<?xml version="1.0" standalone="no"?>
<!DOCTYPE svg PUBLIC "-//W3C//DTD SVG 1.1//EN" "http://www.w3.org/Graphics/SVG/1.1/DTD/svg11.dtd" >
<svg xmlns="http://www.w3.org/2000/svg" xmlns:xlink="http://www.w3.org/1999/xlink" version="1.1">
<metadata>
Created by FontForge 20150824 at Tue Jul 19 19:18:39 2016
 By Everything Fonts
Copyright (c) 2011-12 by vernon adams. All rights reserved. Vietnamese by Viet Linh
</metadata>
<defs>
<font id="VL_OswaldLight" horiz-adv-x="1106" >
  <font-face 
    font-family="VL_OswaldLight"
    font-weight="300"
    font-stretch="normal"
    units-per-em="2048"
    panose-1="2 0 3 3 0 0 0 0 0 0"
    ascent="1638"
    descent="-410"
    x-height="1198"
    cap-height="1720"
    bbox="-145 -625 1919 2557"
    underline-thickness="50"
    underline-position="-225"
    unicode-range="U+000D-FB04"
  />
<missing-glyph horiz-adv-x="748" 
d="M612 0h-544v1366h544v-1366zM135 1296v-1228h410v1228h-410z" />
    <glyph glyph-name=".notdef" horiz-adv-x="748" 
d="M612 0h-544v1366h544v-1366zM135 1296v-1228h410v1228h-410z" />
    <glyph glyph-name=".null" horiz-adv-x="0" 
 />
    <glyph glyph-name="nonmarkingreturn" horiz-adv-x="682" 
 />
    <glyph glyph-name="NULL" horiz-adv-x="0" 
 />
    <glyph glyph-name="NULL" horiz-adv-x="0" 
 />
    <glyph glyph-name="CR" unicode="&#xd;" horiz-adv-x="682" 
 />
    <glyph glyph-name="space" unicode=" " horiz-adv-x="406" 
 />
    <glyph glyph-name="exclam" unicode="!" horiz-adv-x="434" 
d="M324 0h-187v178h187v-178zM252 387h-55l-80 1331h194z" />
    <glyph glyph-name="quotedbl" unicode="&#x22;" horiz-adv-x="694" 
d="M543 1407h-68l-49 307h168q-38 -219 -51 -307zM219 1407h-67l-50 307h168q-8 -43 -24.5 -146.5t-26.5 -160.5z" />
    <glyph glyph-name="numbersign" unicode="#" horiz-adv-x="1020" 
d="M449 1024l-66 -240h176l68 240h-178zM162 0h-144l185 659h-156v125h191l67 240h-207v115h240l162 581h145l-164 -581h176l164 581h146l-164 -581h153v-115h-186l-68 -240h205v-125h-239l-185 -659h-143l184 659h-178z" />
    <glyph glyph-name="dollar" unicode="$" horiz-adv-x="948" 
d="M63 444l134 39q17 -154 93 -254q76 -99 210 -104q121 -2 194 56.5t74 183.5q0 150 -233 335l-295 230q-183 147 -183 305q0 159 108 257q108 96 281 101v154h89v-156q147 -18 243 -120q96 -100 117 -265l-127 -39q-18 126 -97 214q-80 89 -190 89q-276 0 -276 -217
q0 -116 139 -233l285 -225q63 -54 106 -94q43 -39 88 -94q90 -108 90 -230q0 -170 -104 -268q-103 -97 -274 -105v-141h-89v143q-109 12 -191 75q-151 116 -192 363z" />
    <glyph glyph-name="percent" unicode="%" horiz-adv-x="1257" 
d="M782 307v234q0 323 226 323q227 0 227 -323v-234q0 -334 -227 -334q-226 0 -226 334zM1118 309v230q0 225 -110 225q-109 0 -109 -225v-230q0 -235 109 -235q110 0 110 235zM57 1188v233q0 324 226 324q227 0 227 -324v-233q0 -334 -227 -334q-226 0 -226 334zM391 1190
v227q0 228 -109 228q-108 0 -108 -228v-227q0 -236 108 -236q109 0 109 236zM428 0h-123l551 1720h125z" />
    <glyph glyph-name="ampersand" unicode="&#x26;" horiz-adv-x="1116" 
d="M442 928q114 110 181 240q69 132 69 247q0 98 -49 152.5t-145 54.5q-57 0 -99.5 -24t-64.5 -66q-41 -81 -41 -168q0 -183 149 -436zM735 229l-329 504q-84 -78 -141 -197q-56 -120 -56 -223t58 -161t175 -58q148 0 293 135zM1094 123v-137q-76 6 -156 45q-81 40 -133 102
q-169 -160 -371 -160q-182 0 -274 90q-92 92 -92 236q0 134 74 287q75 153 204 258q-207 342 -207 526q0 166 96 270q98 105 257 105q160 0 252 -89t92 -237q0 -141 -85.5 -297t-252.5 -305l321 -493q150 198 150 430h127q0 -112 -56 -259t-149 -268q95 -104 203 -104z" />
    <glyph glyph-name="quotesingle" unicode="'" horiz-adv-x="373" 
d="M219 1407h-65l-52 307h168q-10 -59 -27 -162.5t-24 -144.5z" />
    <glyph glyph-name="parenleft" unicode="(" horiz-adv-x="535" 
d="M541 68v-131q-127 0 -226 74q-41 32 -74 87q-33 59 -53 105q-20 50 -36 124q-13 67 -22 129q-7 49 -10 138l-4 127q-1 29 -1 121v18v21q0 119 1 157q1 58 9 166q7 105 23 176q18 75 46 154q32 86 75 134q48 53 119 86.5t153 33.5v-133q-55 0 -99 -24q-43 -24 -71.5 -61
t-49.5 -100q-19 -63 -30 -120q-8 -45 -17 -142q-5 -74 -7 -149q-1 -41 -1 -156v-37q0 -110 1 -142l4 -136q3 -92 10 -139l20 -120q12 -67 32 -108q21 -40 49 -79q52 -74 159 -74z" />
    <glyph glyph-name="parenright" unicode=")" horiz-adv-x="545" 
d="M18 -63v131q109 0 159 74q29 42 48 79q21 39 33 108q7 44 19 120q8 56 11 139l4 136q1 32 1 142v37q0 115 -1 156q-2 75 -7 149q-6 87 -18 142q-10 54 -32 120q-19 63 -48 101q-62 84 -169 84v133q87 0 158 -36q70 -36 114 -84q44 -49 74 -134q30 -81 46 -154
q17 -68 24 -176q8 -108 9 -166q1 -38 1 -157v-21v-18q0 -92 -1 -121l-4 -127q-3 -89 -10 -138q-9 -66 -23 -129q-15 -74 -36 -124q-19 -47 -53 -105q-31 -54 -73 -87q-99 -74 -226 -74z" />
    <glyph glyph-name="asterisk" unicode="*" horiz-adv-x="760" 
d="M236 911l-89 52l172 247l-264 101l35 90l252 -121l-16 303h118l-20 -301l254 121l35 -90l-264 -103l174 -249l-88 -50l-152 252z" />
    <glyph glyph-name="plus" unicode="+" horiz-adv-x="649" 
d="M395 383h-121v192h-192v115h192v193h121v-193h193v-115h-193v-192z" />
    <glyph glyph-name="comma" unicode="," horiz-adv-x="389" 
d="M160 -256l-27 55q67 26 88 96q19 60 19 105h-129v178h186v-22q0 -63 -1 -81q-1 -9 -1.5 -34.5t-0.5 -37.5q-2 -52 -5 -69q-1 -5 -3 -16l-4 -22t-4 -21q-9 -54 -39 -91q-25 -35 -79 -40z" />
    <glyph glyph-name="hyphen" unicode="-" horiz-adv-x="532" 
d="M430 449h-313v114h313v-114z" />
    <glyph glyph-name="period" unicode="." horiz-adv-x="397" 
d="M299 0h-184v178h184v-178z" />
    <glyph glyph-name="slash" unicode="/" horiz-adv-x="651" 
d="M115 0h-144l551 1720h146z" />
    <glyph glyph-name="zero" unicode="0" horiz-adv-x="1047" 
d="M117 500v721q0 189 55 308q99 216 353 216q183 0 279 -101q132 -139 132 -423v-721q0 -527 -410 -527q-409 0 -409 527zM782 465v788q0 369 -257 369t-257 -369v-788q0 -371 257 -371t257 371z" />
    <glyph glyph-name="one" unicode="1" horiz-adv-x="532" 
d="M385 0h-152v1479q-48 -31 -100 -56q-61 -27 -92 -34v145q60 20 130 69q72 51 112 117h102v-1720z" />
    <glyph glyph-name="two" unicode="2" horiz-adv-x="932" 
d="M848 0h-785v127l461 698q26 40 66 103q28 45 59 105q68 134 68 239q0 162 -55 256q-54 94 -173 94q-133 0 -199 -81q-28 -36 -45 -92q-28 -100 -28 -232h-151v22q11 506 421 506q191 0 286 -126q95 -127 95 -345q0 -109 -58 -238q-60 -135 -134 -243l-434 -670h606v-123z
" />
    <glyph glyph-name="three" unicode="3" horiz-adv-x="932" 
d="M74 395v27h141q4 -197 70 -267q33 -33 75 -47t109 -14q57 0 97.5 16.5t71.5 56.5t46.5 112.5t15.5 179.5q0 175 -53 269q-61 108 -203 120v129q145 6 200 82q56 77 56 258q0 169 -57 236q-57 69 -174 69q-121 0 -183.5 -79t-70.5 -251h-141v25q0 178 86 294
q46 63 126.5 98.5t184.5 35.5q100 0 176 -35.5t119.5 -96.5t64.5 -135.5t21 -160.5q0 -165 -66 -272q-64 -104 -170 -136q236 -95 236 -446q0 -490 -397 -490q-82 0 -147.5 23.5t-108.5 63t-71.5 94.5t-41 114.5t-12.5 126.5z" />
    <glyph glyph-name="four" unicode="4" horiz-adv-x="848" 
d="M504 1595l-318 -972h320zM657 0h-151v510h-479v104l397 1108h233v-1099h170v-113h-170v-510z" />
    <glyph glyph-name="five" unicode="5" horiz-adv-x="948" 
d="M123 430l151 10q0 -206 57 -279q30 -38 69 -52.5t102 -14.5q121 0 178 101q57 102 57 340q0 229 -53 324t-174 95q-70 0 -136.5 -36t-109.5 -105h-123v907h660l-15 -121h-491l-23 -632q48 49 120 78.5t149 29.5q93 0 162 -41.5t109 -116.5t58.5 -169.5t18.5 -210.5
q0 -247 -88 -400q-45 -79 -122.5 -121.5t-176.5 -42.5q-196 0 -287.5 114t-91.5 343z" />
    <glyph glyph-name="six" unicode="6" horiz-adv-x="979" 
d="M266 811v-309q0 -125 14 -205t45.5 -124t72.5 -60.5t104 -18.5q135 0 195 86q61 85 61 301q0 207 -60 291q-58 84 -186 84q-72 0 -143 -13q-70 -12 -103 -32zM115 489v766q0 490 387 490q98 0 173 -34.5t115 -97.5q82 -121 82 -290v-27h-143q-4 203 -66 266
q-31 34 -70.5 47t-105.5 13q-56 0 -94.5 -16t-68 -55.5t-44 -111.5t-14.5 -179v-326q94 45 246 45q210 0 306 -145q91 -136 91 -353q1 -110 -22 -200.5t-71 -161t-128 -109t-186 -37.5q-200 0 -293.5 130t-93.5 386z" />
    <glyph glyph-name="seven" unicode="7" horiz-adv-x="690" 
d="M313 0h-157l327 1585h-483v135h647v-75q-85 -427 -169 -832q-93 -445 -165 -813z" />
    <glyph glyph-name="eight" unicode="8" horiz-adv-x="954" 
d="M477 977q137 8 191 84q55 76 55 256q0 169 -60 236q-59 69 -187 69t-187 -69q-58 -67 -58 -236q0 -179 54 -256q55 -77 192 -84zM477 848q-131 -17 -188.5 -113t-57.5 -276q0 -215 64 -292q33 -39 75.5 -56t106.5 -17q65 0 107.5 17t74.5 56q64 77 64 292
q0 179 -58 275.5t-188 113.5zM313 909q-102 32 -168 136q-65 107 -65 272q0 185 90 303q95 125 307 125q104 0 182 -33t124 -92t68.5 -135t22.5 -168q0 -165 -66 -272q-64 -104 -169 -136q235 -94 235 -446q0 -490 -397 -490t-397 490q0 351 233 446z" />
    <glyph glyph-name="nine" unicode="9" horiz-adv-x="989" 
d="M725 907v310q0 190 -38 287q-29 67 -75.5 92.5t-124.5 25.5q-133 0 -195 -86q-61 -85 -61 -299q0 -208 59 -293q60 -84 187 -84q75 0 143 13q70 13 105 34zM119 395v27h141q4 -196 66 -267q32 -33 72.5 -47t103.5 -14q56 1 94.5 17t68.5 56t44.5 112t15.5 180v325
q-96 -45 -248 -45q-211 0 -306 143q-91 139 -91 355q0 223 94 360q48 71 128.5 109.5t184.5 38.5q200 0 295 -130t95 -386v-766q0 -490 -390 -490q-97 0 -170.5 34.5t-116.5 96.5q-81 120 -81 291z" />
    <glyph glyph-name="colon" unicode=":" horiz-adv-x="426" 
d="M309 274h-184v181h184v-181zM309 813h-184v178h184v-178z" />
    <glyph glyph-name="semicolon" unicode=";" horiz-adv-x="422" 
d="M172 0l-25 55q61 23 83 84q24 61 24 117h-129v178h184q0 -5 -2 -57q0 -61 -1 -78l-3 -68q-1 -37 -5 -65q-4 -25 -10 -52q-2 -8 -4 -15t-5 -14t-4.5 -11t-6 -11t-5.5 -8.5t-7 -10t-7 -9.5q-22 -30 -77 -35zM309 813h-184v178h184v-178z" />
    <glyph glyph-name="less" unicode="&#x3c;" horiz-adv-x="727" 
d="M76 494v215l569 399v-166l-477 -340q131 -92 234 -166q130 -91 243 -176v-166q-456 318 -569 400z" />
    <glyph glyph-name="equal" unicode="=" horiz-adv-x="750" 
d="M633 256h-506v115h506v-115zM633 575h-506v115h506v-115z" />
    <glyph glyph-name="greater" unicode="&#x3e;" horiz-adv-x="727" 
d="M672 494l-570 -400v166l478 342l-478 340v168q373 -265 570 -401v-215z" />
    <glyph glyph-name="question" unicode="?" horiz-adv-x="868" 
d="M459 0h-185v180h185v-180zM434 453h-135v340q199 116 292 242q39 54 64 111q37 84 37 171q0 157 -72.5 232t-181.5 75q-115 0 -192 -80q-76 -79 -78 -223v-141h-135v145q0 96 34 178.5t92 135.5q117 108 279 108q155 0 269 -105q58 -52 90 -136t32 -187
q0 -178 -97 -318.5t-298 -265.5v-282z" />
    <glyph glyph-name="at" unicode="@" horiz-adv-x="1434" 
d="M834 643v477q-76 54 -132 54q-47 0 -77 -48q-54 -87 -54 -286q0 -279 115 -279q51 0 83 19t65 63zM1092 199l24 -119q-186 -39 -332 -39q-264 0 -430 111q-279 186 -282 716q0 188 51 342t143 254q90 99 208 151t251 52q306 0 476 -203q169 -202 169 -575
q0 -192 -58 -297q-39 -74 -96 -110t-122 -36q-75 0 -142 44q-66 46 -88 112q-18 -80 -77 -118t-136 -38q-52 0 -95.5 29.5t-69.5 75.5q-25 49 -40 100q-24 88 -24 189q0 216 65 328q66 112 166 112q96 0 181 -76v70h151v-559q0 -154 105 -154q129 0 129 320q0 307 -89 464
q-41 75 -104 120q-61 44 -131 62.5t-166 18.5q-39 0 -68 -4q-39 -6 -86 -20q-53 -15 -98 -42q-48 -28 -95.5 -80t-79.5 -118q-79 -163 -79 -418q0 -165 33 -295.5t87 -209.5q54 -76 128 -122q72 -45 143 -61t166 -16q75 0 143 9q33 4 57 8l63 12q44 10 49 10z" />
    <glyph glyph-name="A" unicode="A" horiz-adv-x="973" 
d="M485 1563l-180 -1014h361zM289 449l-88 -449h-154l340 1720h199l340 -1720h-156l-86 449h-395z" />
    <glyph glyph-name="B" unicode="B" horiz-adv-x="1012" 
d="M299 1606v-625h244q55 -1 95 24t62 69t32 95.5t9 110.5q0 326 -245 326h-197zM299 864v-747h270q100 0 155 77q24 35 38 88q26 99 26 230q0 125 -24 205q-44 147 -195 147h-270zM547 0h-402v1720h371q177 0 270 -90q42 -39 71 -99q48 -100 48 -247q0 -107 -49 -209
q-50 -103 -137 -141q124 -55 175 -184q46 -115 46 -238q0 -185 -42 -297q-25 -69 -68 -115t-116.5 -73t-166.5 -27z" />
    <glyph glyph-name="C" unicode="C" horiz-adv-x="1032" 
d="M115 500v721q0 193 53 308q99 216 375 216q403 0 403 -524v-70h-145v102q0 167 -54 263q-55 106 -204 106q-129 0 -195 -69q-31 -31 -49 -80q-33 -88 -33 -220v-788q0 -160 53 -262q60 -109 224 -109q146 0 204 108q54 96 54 263v119h145v-84q0 -191 -51 -311
q-88 -212 -352 -216q-194 0 -299 102q-47 47 -77 114q-52 120 -52 311z" />
    <glyph glyph-name="D" unicode="D" horiz-adv-x="1085" 
d="M532 0h-387v1720h387q122 0 209.5 -39t137 -111t72 -161t22.5 -201v-700q0 -508 -441 -508zM299 1599v-1476h233q287 0 287 350v768q0 358 -287 358h-233z" />
    <glyph glyph-name="E" unicode="E" horiz-adv-x="795" 
d="M745 0h-600v1720h600v-121h-446v-653h319v-115h-319v-708h446v-123z" />
    <glyph glyph-name="F" unicode="F" horiz-adv-x="735" 
d="M299 0h-154v1720h607v-121h-453v-653h354v-115h-354v-831z" />
    <glyph glyph-name="G" unicode="G" horiz-adv-x="1087" 
d="M115 481v729q0 535 452 535q216 -4 300 -129q57 -81 78 -197q20 -108 20 -248v-12h-154v12v15q0 84 -1 109q-2 46 -7 99q-6 63 -22 95q-14 32 -42 67q-49 66 -174 66q-170 0 -238 -107q-61 -96 -61 -239v-860q0 -128 53 -221q62 -101 234 -101q154 0 219 106
q51 84 51 216v291h-211v114h363v-821h-68l-45 168q-33 -88 -120 -142q-88 -53 -191 -53q-248 0 -358 159q-37 57 -60 146q-7 33 -12 75q-2 22 -5 67q-1 17 -1 61z" />
    <glyph glyph-name="H" unicode="H" horiz-adv-x="1126" 
d="M299 0h-154v1720h154v-778h528v778h154v-1720h-154v836h-528v-836z" />
    <glyph glyph-name="I" unicode="I" horiz-adv-x="444" 
d="M297 0h-152v1720h152v-1720z" />
    <glyph glyph-name="J" unicode="J" horiz-adv-x="565" 
d="M90 0h-78v115q60 0 79 1q27 1 59 6q33 5 47 11t30 22t22 34t12 56q7 45 7 165v1310h152v-1310q0 -78 -3 -130q-7 -125 -50 -182q-77 -105 -277 -98z" />
    <glyph glyph-name="K" unicode="K" horiz-adv-x="981" 
d="M299 0h-154v1720h154v-905l459 905h155l-356 -708l438 -1012h-161l-367 909l-168 -303v-606z" />
    <glyph glyph-name="L" unicode="L" horiz-adv-x="772" 
d="M778 0h-633v1720h154v-1597h479v-123z" />
    <glyph glyph-name="M" unicode="M" horiz-adv-x="1329" 
d="M281 0h-136v1720h189l332 -1484q53 265 160 713q102 423 171 771h187v-1720h-135v1376l-318 -1376h-133l-317 1376v-1376z" />
    <glyph glyph-name="N" unicode="N" horiz-adv-x="1083" 
d="M276 0h-131v1720h117l547 -1362v1362h129v-1720h-115l-547 1333v-1333z" />
    <glyph glyph-name="O" unicode="O" 
d="M115 500v721q0 188 58 308q102 216 380 216q196 0 299 -101q139 -134 139 -423v-721q0 -527 -438 -527t-438 527zM840 465v788q0 369 -287 369t-287 -369v-788q0 -371 287 -371t287 371z" />
    <glyph glyph-name="P" unicode="P" horiz-adv-x="1004" 
d="M299 1599v-712h285q127 -2 182 86.5t55 281.5q0 178 -58 261t-179 83h-285zM299 0h-154v1720h422q111 0 192 -36.5t127 -102t67.5 -146t21.5 -178.5q0 -162 -52 -279q-92 -212 -358 -212h-266v-766z" />
    <glyph glyph-name="Q" unicode="Q" horiz-adv-x="1112" 
d="M840 465v788q0 369 -287 369t-287 -369v-788q0 -371 287 -371t287 371zM115 500v721q0 188 58 308q102 216 380 216q196 0 299 -101q139 -134 139 -423v-721q0 -361 -205 -475l63 -53q69 -58 150 -70v-115q-81 12 -154 61.5t-155 141.5q-66 -17 -137 -17q-438 0 -438 527
z" />
    <glyph glyph-name="R" unicode="R" horiz-adv-x="1067" 
d="M299 1599v-636h305q133 0 178 99q39 81 39 218q0 115 -25 185q-45 134 -192 134h-305zM299 0h-154v1720h459q170 0 260 -87q111 -114 111 -357q0 -329 -242 -418l266 -858h-161l-250 840h-289v-840z" />
    <glyph glyph-name="S" unicode="S" horiz-adv-x="948" 
d="M68 416l135 39q17 -149 84 -247q78 -114 223 -114q117 0 180.5 65.5t63.5 184.5q0 98 -59 190q-60 95 -173 214l-268 282q-93 98 -137.5 178t-44.5 166q0 168 111 269q113 102 286 102q168 0 271.5 -95t136.5 -278l4 -16l-129 -39l-2 12q-21 128 -93 211q-70 82 -188 82
q-117 0 -183.5 -58.5t-66.5 -168.5q0 -66 35 -131t106 -144l252 -274l50 -55q40 -43 52 -58q7 -7 47 -54q34 -40 46 -61l35 -58q25 -39 32 -66q25 -75 25 -138q0 -184 -114 -284q-113 -99 -293 -99q-92 0 -167.5 35t-126.5 97t-83.5 140.5t-46.5 170.5z" />
    <glyph glyph-name="T" unicode="T" horiz-adv-x="754" 
d="M451 0h-152v1599h-336v121h825v-121h-337v-1599z" />
    <glyph glyph-name="U" unicode="U" horiz-adv-x="1133" 
d="M121 424v1296h151v-1333q0 -150 68.5 -221.5t224.5 -71.5q147 0 213 72.5t66 220.5v1333h149v-1296q0 -451 -428 -451q-205 0 -309 88q-140 119 -135 363z" />
    <glyph glyph-name="V" unicode="V" horiz-adv-x="948" 
d="M582 0h-199l-371 1720h164l305 -1540l291 1540h166z" />
    <glyph glyph-name="W" unicode="W" horiz-adv-x="1415" 
d="M485 0h-174l-288 1720h143l233 -1470l224 1470h192l203 -1470l233 1470h142l-285 -1720h-176l-215 1520z" />
    <glyph glyph-name="X" unicode="X" horiz-adv-x="950" 
d="M186 0h-155l366 866l-366 856h141l303 -725l293 725h156l-367 -872l367 -850h-146l-299 717z" />
    <glyph glyph-name="Y" unicode="Y" horiz-adv-x="889" 
d="M526 0h-151v535l-377 1185h154l58 -203q41 -142 78 -266l77 -259q54 -179 61 -204l25 -79q63 235 147 519q96 326 143 492h150l-365 -1185v-535z" />
    <glyph glyph-name="Z" unicode="Z" horiz-adv-x="866" 
d="M821 0h-762v141l607 1458h-541v121h696v-141l-606 -1456h606v-123z" />
    <glyph glyph-name="bracketleft" unicode="[" horiz-adv-x="494" 
d="M481 -63h-331v1843h331v-82h-180v-1682h180v-79z" />
    <glyph glyph-name="backslash" unicode="\" horiz-adv-x="639" 
d="M684 0h-143l-553 1720h145z" />
    <glyph glyph-name="bracketright" unicode="]" horiz-adv-x="504" 
d="M356 -63h-331v79h180v1682h-180v82h331v-1843z" />
    <glyph glyph-name="asciicircum" unicode="^" horiz-adv-x="739" 
d="M373 1436l-154 -541h-176q76 189 227 563h207l225 -563h-174z" />
    <glyph glyph-name="underscore" unicode="_" horiz-adv-x="913" 
d="M811 0h-696v115h696v-115z" />
    <glyph glyph-name="grave" unicode="`" horiz-adv-x="451" 
d="M354 1323h-55l-229 399h161z" />
    <glyph glyph-name="a" unicode="a" horiz-adv-x="809" 
d="M555 244v422q-112 -80 -116 -83q-44 -32 -89 -72q-49 -44 -71 -76q-54 -78 -54 -169q0 -87 37 -127q38 -41 84 -41q56 0 115 41q60 42 94 105zM725 0h-141l-19 145q-47 -82 -116.5 -127t-137.5 -45q-92 0 -164 74q-71 74 -71 193q0 49 6 101q5 44 36 103q16 28 37.5 50
t64.5 59q88 75 335 180v10q0 101 -9 174t-22 112t-34.5 61.5t-39 28t-42.5 5.5q-54 0 -94 -36q-53 -48 -60 -193v-6h-156q13 159 92.5 247.5t210.5 88.5q72 0 129 -23t89 -60q33 -38 52 -87q36 -87 36 -203v-576q0 -71 4 -132q5 -73 10 -105z" />
    <glyph glyph-name="b" unicode="b" horiz-adv-x="870" 
d="M614 545v94q3 299 -44 407q-10 32 -30 45q-17 14 -31 18.5t-38 4.5q-94 0 -201 -119v-790q46 -54 99.5 -87.5t97.5 -33.5q18 0 28.5 1.5t26 7t25.5 18.5t22 34.5t19 56t13.5 81.5t9.5 113t3 149zM270 0h-149v1720h149v-635q47 68 107.5 104t124.5 36q42 0 74 -9
q31 -7 70 -43t61 -94q59 -146 59 -438v-94q0 -109 -9 -196q-17 -164 -57 -248q-35 -77 -82 -103.5t-106 -26.5q-152 0 -242 140v-113z" />
    <glyph glyph-name="c" unicode="c" horiz-adv-x="815" 
d="M106 455v112v64q0 94 1 122q1 30 8 115q6 72 17 115q10 37 34 94q24 53 58 81q81 67 208 67q133 0 207 -81q33 -36 54 -92q34 -86 42 -235q0 -1 1 -5t1 -5h-149v8q-6 169 -40 238q-35 71 -116 71q-58 0 -91.5 -26.5t-54.5 -86.5q-11 -34 -19 -97q-11 -98 -11 -283v-64
q0 -279 35 -387q34 -106 141 -106q79 0 114 71q34 72 42 248v10h149v-8q-5 -153 -39 -248q-30 -85 -93 -128t-173 -46q-125 0 -189 52q-27 23 -41 37.5t-30 40t-26 57.5q-17 57 -23 87q-9 43 -13 102q-4 60 -4 106z" />
    <glyph glyph-name="d" unicode="d" horiz-adv-x="866" 
d="M596 205v790q-107 119 -201 119q-23 -1 -37 -4t-31.5 -18.5t-30.5 -45.5q-49 -114 -44 -407v-94q0 -83 3 -149t9.5 -113t13.5 -81.5t19 -56t22 -34.5t25.5 -18.5t26 -7t28.5 -1.5q44 0 97.5 33.5t99.5 87.5zM745 0h-149v113q-90 -140 -242 -140q-92 0 -147 61
q-103 125 -107 513v94q0 297 57 438q25 59 63 94q39 36 70 43q32 9 75 9q64 0 124 -36t107 -104v635h149v-1720z" />
    <glyph glyph-name="e" unicode="e" horiz-adv-x="829" 
d="M260 702h332v47q1 33 0.5 66.5t-1.5 66t-5 63t-10.5 57.5t-17.5 49.5t-26 38.5t-37 25t-49 9q-99 0 -146 -68q-18 -24 -29 -91q-8 -60 -10 -112q-1 -32 -1 -151zM109 553v166q0 240 62 362q44 82 108.5 113.5t158.5 30.5q162 0 232 -114q71 -115 71 -359q0 -61 -2 -123
h-481v-185q0 -228 49 -306q24 -37 53 -50.5t78 -13.5q68 0 113 67q45 68 47 226h139q-12 -139 -48 -228q-66 -166 -249 -166q-127 0 -198 50q-70 51 -103 177t-30 353z" />
    <glyph glyph-name="f" unicode="f" horiz-adv-x="532" 
d="M328 0h-152v1114h-166v84h166v129v19v49q0 24 4 56q5 37 12 59q28 73 61 100q56 43 140 43q71 0 123 -15v-108q-24 6 -74 6q-61 0 -91 -32q-11 -11 -17 -36q-6 -24 -6 -82v-8v-180h190v-84h-190v-1114z" />
    <glyph glyph-name="g" unicode="g" horiz-adv-x="881" 
d="M623 776q0 79 -19 155q-12 46 -32 84t-58.5 63.5t-85.5 25.5q-62 0 -99.5 -35t-64.5 -95q-14 -37 -20 -73q-13 -85 -13 -125q0 -80 19 -151q16 -69 60.5 -112t117.5 -44q47 0 86 22t58 56q20 35 32 78q19 71 19 151zM524 2l-215 47q-49 -37 -99 -111q-50 -76 -50 -128
q-4 -32 21 -53t63 -31q19 -7 55 -9l53 -3q13 -1 54 -1h12q264 0 264 129q0 72 -37 109t-121 51zM213 211q-4 -25 27 -35q30 -10 166 -39l63 -12q160 -31 252 -85q102 -60 102 -169q0 -144 -122 -205q-67 -37 -151 -49q-70 -10 -134 -10q-400 0 -400 157q0 100 65 179
q67 78 161 127q-14 1 -50 11q-30 9 -74 29q-42 21 -42 40q0 44 50 131q14 26 43 68q18 26 20 28q7 7 19 24l11 17q-71 62 -106 164q-33 102 -33 211q-1 58 10 116t37.5 115.5t65 101t98.5 71t133 28.5q94 0 157 -48q63 -46 126 -139q29 53 71 107q50 63 111 76v-146
q-38 -6 -79 -32t-73 -62q37 -105 37 -180q0 -92 -19 -169.5t-59 -140t-109 -98t-161 -35.5q-86 0 -143 25q-57 -106 -70 -172z" />
    <glyph glyph-name="h" unicode="h" horiz-adv-x="860" 
d="M270 0h-149v1720h149v-635q44 68 111 104t141 36q91 0 159 -74q67 -73 67 -209v-942h-152v934q0 180 -127 180q-46 0 -104 -35q-55 -34 -95 -88v-991z" />
    <glyph glyph-name="i" unicode="i" horiz-adv-x="406" 
d="M283 1473h-152v178h152v-178zM283 0h-152v1198h152v-1198z" />
    <glyph glyph-name="j" unicode="j" horiz-adv-x="428" 
d="M299 1473h-152v180h152v-180zM-43 -311v106q12 0 25 -0.5t20 -1t10 -0.5q87 0 119 71q8 18 11 43q5 41 5 75v1216h152v-1243q0 -274 -262 -274q-37 0 -80 8z" />
    <glyph glyph-name="k" unicode="k" horiz-adv-x="829" 
d="M270 0h-149v1720h149v-1089l373 567h170l-287 -455l285 -743h-158l-233 653l-150 -184v-469z" />
    <glyph glyph-name="l" unicode="l" horiz-adv-x="442" 
d="M297 0h-152v1720h152v-1720z" />
    <glyph glyph-name="m" unicode="m" horiz-adv-x="1335" 
d="M270 0h-149v1198h149v-111q117 138 267 138q60 0 118 -38q57 -37 82 -97q59 64 128 99.5t128 35.5q93 0 161 -64q69 -63 69 -160v-1001h-150v971q0 71 -32.5 107t-90.5 36q-94 0 -190 -96v-1018h-150v971q0 143 -127 143q-51 0 -107.5 -31.5t-105.5 -87.5v-995z" />
    <glyph glyph-name="n" unicode="n" horiz-adv-x="860" 
d="M270 0h-149v1198h149v-113q46 68 113.5 104t140.5 36q88 0 156 -75q68 -76 68 -210v-940h-152v944q0 85 -34 127.5t-93 42.5q-47 0 -100.5 -32.5t-98.5 -88.5v-993z" />
    <glyph glyph-name="o" unicode="o" horiz-adv-x="846" 
d="M106 467v100v64q0 94 1 122q0 2 7 115q4 70 16 115q10 37 34 94q24 53 58 81q81 67 200 67q66 0 118 -20q53 -19 85.5 -47.5t55.5 -80.5q25 -54 35 -94q12 -45 16 -115l6 -115q1 -28 1 -122v-64v-100q0 -35 -3 -96q-3 -54 -8 -93q-4 -29 -17 -82q-10 -47 -26 -76
q-17 -28 -39 -59q-33 -43 -87.5 -63.5t-135.5 -24.5q-88 0 -168 39q-44 24 -95 108q-16 29 -26 76q-13 62 -16 82q-4 33 -9 93q-3 61 -3 96zM256 631v-64q0 -281 33 -387t134 -106t134 106t33 387v64q0 72 -2 158q-5 156 -26 222q-18 59 -51 86t-88 27t-87.5 -27t-52.5 -86
q-11 -39 -17 -97q-10 -100 -10 -283z" />
    <glyph glyph-name="p" unicode="p" horiz-adv-x="870" 
d="M614 557v96q0 83 -3 149t-9.5 113t-13.5 81.5t-19 56t-22 34.5t-25.5 18.5t-26 7t-28.5 1.5q-45 0 -98 -33t-99 -88v-790q107 -119 201 -119q25 0 37 4q17 4 34.5 20t27.5 43q47 110 44 406zM270 -385h-149v1583h149v-113q90 140 242 140q39 0 70 -9t67 -43.5t59.5 -94
t40 -168.5t17.5 -259v-94q0 -291 -59 -439q-23 -59 -61 -94q-36 -32 -66.5 -41.5t-77.5 -9.5q-137 0 -232 140v-498z" />
    <glyph glyph-name="q" unicode="q" horiz-adv-x="870" 
d="M600 203v790q-46 55 -98 88t-96 33q-32 0 -51.5 -7t-40.5 -33q-58 -89 -58 -421v-96q-4 -288 44 -406q17 -41 41 -53.5t58 -13.5q94 0 201 119zM752 -385h-152v498q-44 -68 -105 -104t-124 -36q-48 0 -79.5 10t-67.5 41q-38 35 -62 94q-56 145 -56 439v94q0 309 65 444
q22 44 42 68.5t48 38.5q43 23 97 23q153 0 242 -140v113h152v-1583z" />
    <glyph glyph-name="r" unicode="r" horiz-adv-x="535" 
d="M270 0h-149v1198h149v-170q28 93 101 140q73 46 151 49v-150q-14 2 -22 2q-230 0 -230 -174v-895z" />
    <glyph glyph-name="s" unicode="s" horiz-adv-x="750" 
d="M57 299l115 41q28 -90 84 -168q64 -90 152 -90q76 0 116.5 46.5t40.5 129.5q0 117 -205 297l-88 76q-98 86 -148 154q-50 70 -50 153q0 135 82 210t219 75q132 0 205 -95q71 -89 102 -208l-133 -41q-11 55 -30 105q-20 51 -59 90q-40 40 -93 40q-67 0 -106.5 -44.5
t-39.5 -117.5q0 -57 37 -111t113 -118l96 -84q38 -33 69 -62q28 -24 63 -64q39 -43 56 -75q48 -82 52 -176q0 -136 -85 -212q-86 -77 -221 -77q-132 0 -221 92q-88 93 -123 234z" />
    <glyph glyph-name="t" unicode="t" horiz-adv-x="551" 
d="M168 283v831h-164v84h164v424h149v-424h193v-84h-193v-823q0 -82 7 -121q9 -42 28.5 -57.5t67.5 -18.5q46 0 88 8v-102q-68 -18 -131 -18q-108 0 -157 61q-22 28 -35 70q-14 44 -15 79q-2 50 -2 91z" />
    <glyph glyph-name="u" unicode="u" horiz-adv-x="893" 
d="M113 256v942h151v-944q0 -85 34 -127.5t93 -42.5q47 0 100 33t99 88v993h149v-1198h-149v113q-46 -68 -113 -104t-141 -36q-88 0 -156 75q-67 74 -67 208z" />
    <glyph glyph-name="v" unicode="v" horiz-adv-x="748" 
d="M471 0h-174l-272 1198h145l215 -1063l195 1063h143z" />
    <glyph glyph-name="w" unicode="w" horiz-adv-x="1161" 
d="M399 0h-159l-197 1198h129l160 -1022l170 1022h160l184 -1022l143 1022h129l-194 -1198h-146l-192 987z" />
    <glyph glyph-name="x" unicode="x" horiz-adv-x="782" 
d="M186 0h-147l258 627l-256 571h156l194 -500l197 500h155l-258 -571l258 -627h-145l-207 535z" />
    <glyph glyph-name="y" unicode="y" horiz-adv-x="776" 
d="M80 -299h-2v123q119 8 174 40t55 91q0 75 -10 141l-260 1102h151l209 -1001l203 1001h154l-301 -1282q-29 -113 -117 -162t-256 -53z" />
    <glyph glyph-name="z" unicode="z" horiz-adv-x="694" 
d="M653 0h-606v143l471 940h-407v115h548v-143l-460 -940h454v-115z" />
    <glyph glyph-name="braceleft" unicode="{" horiz-adv-x="520" 
d="M512 55v-112q-105 0 -184 42q-45 24 -102 116q-16 30 -30 84q-12 57 -18 91q-7 41 -8 106l-3 109q-1 27 -1 117q0 78 -26 119t-105 41v188q80 0 105 40q26 41 26 118q0 92 1 119l3 108q1 65 8 106t18 91q14 52 30 84q17 30 43 65q36 47 94.5 69t148.5 26v-115
q-51 0 -89 -11q-36 -10 -59 -46q-22 -34 -36 -66q-13 -30 -19 -103q-5 -61 -7 -117q-1 -31 -1 -150t-27 -189q-32 -93 -135 -123q102 -28 135 -123q27 -70 27 -188q0 -121 1 -152q2 -58 7 -118q6 -71 19 -101q14 -32 36 -65q22 -34 57 -47t91 -13z" />
    <glyph glyph-name="bar" unicode="|" horiz-adv-x="416" 
d="M268 -129h-118v1876h118v-1876z" />
    <glyph glyph-name="braceright" unicode="}" horiz-adv-x="530" 
d="M25 -57v112q53 0 89 12q35 13 58 48q22 33 36 65t18 101t6 118q1 31 1 152q0 104 28 188q31 94 136 123q-105 31 -136 123q-28 84 -28 189q0 119 -1 150q-2 46 -6 117t-18 103t-36 66q-21 33 -55 45t-92 12v115q98 0 182 -43q52 -25 103 -117q19 -33 29 -84
q12 -61 17 -91q6 -37 9 -106q2 -34 5 -108q1 -27 1 -119q0 -78 25 -118t106 -40v-188q-80 0 -106 -41q-25 -40 -25 -119q0 -90 -1 -117q-3 -75 -5 -109q-3 -68 -9 -106l-17 -91q-10 -53 -29 -84q-16 -27 -43 -64q-37 -48 -94.5 -69t-147.5 -25z" />
    <glyph glyph-name="asciitilde" unicode="~" horiz-adv-x="815" 
d="M213 958h-115q0 41 17 85q38 99 159 104q43 0 140 -39t137 -39q29 0 44 15.5t21 52.5h115q0 -1 -1 -14t-4 -28.5t-9 -36.5t-18.5 -40t-30 -35.5t-46.5 -26.5t-65 -10q-55 0 -151 39q-94 39 -132 39q-28 0 -42.5 -14.5t-18.5 -51.5z" />
    <glyph glyph-name="uni00A0" unicode="&#xa0;" horiz-adv-x="406" 
 />
    <glyph glyph-name="exclamdown" unicode="&#xa1;" horiz-adv-x="434" 
d="M119 1376h184v-178h-184v178zM190 989h56l80 -1331h-195z" />
    <glyph glyph-name="cent" unicode="&#xa2;" horiz-adv-x="760" 
d="M434 86h-63v154q-62 5 -110 24q-52 23 -81 48t-49 70q-23 56 -32 85q-12 43 -16 104l-6 107q-1 26 -1 117v61q0 85 1 110l6 104q4 67 15 103q10 34 32 87q23 52 52 77q77 68 187 72v133h65v-133q150 -12 211 -132q48 -95 62 -271v-15h-150v15q-2 42 -2 45q0 13 -3 48
q-3 37 -7 52l-12 47q-10 43 -46 79q-29 32 -86 32q-58 -5 -89.5 -21t-47.5 -59q-10 -27 -19 -62q-8 -29 -12 -85q-3 -33 -5 -100l-3 -126v-61q0 -86 3 -146q7 -146 28 -203q40 -113 143 -106q48 0 72 20q5 5 13.5 12.5t11.5 10.5q7 6 13 17t13 27.5t8 19.5q6 11 11 41l6 41
q3 30 4 43l3 40q1 7 1 39q0 3 1 10.5t1 8.5h152q0 -2 -1 -7t-1 -6q-4 -139 -38 -236q-27 -82 -82 -126t-153 -55v-154z" />
    <glyph glyph-name="sterling" unicode="&#xa3;" horiz-adv-x="836" 
d="M782 0h-727v66l127 49v653h-127v109h127v327q0 30 2 80q1 36 9 95q7 55 20 105q31 118 95 182q79 79 200 79q167 -7 225 -125q20 -39 30 -73q10 -35 14 -77l6 -67q1 -14 1 -53v-7h-120v59q0 25 -4 56q-3 34 -9 54q-18 60 -46 79q-42 31 -103 27q-57 -5 -81 -28l-28 -27
q-19 -20 -37 -82q-5 -17 -10 -53q-4 -33 -6 -56l-3 -65q-1 -29 -1 -69v-75v-280h289v-115h-289v-653h446v-115z" />
    <glyph glyph-name="currency" unicode="&#xa4;" horiz-adv-x="1028" 
d="M516 311q95 1 168 50q137 93 137 274q0 129 -81 224q-81 94 -224 99q-146 -5 -225 -98q-80 -95 -80 -225q0 -81 32 -154q33 -70 104 -120q71 -48 169 -50zM221 152l-53 36l78 125q-67 59 -103.5 144t-36.5 178t35 177.5t101 139.5l-74 117l53 39l74 -117q94 60 221 60
q138 0 236 -70l79 127l54 -39l-82 -129q59 -56 91 -137t32 -168q0 -88 -33.5 -170t-93.5 -139l86 -138l-54 -36l-83 133q-100 -66 -232 -66q-123 0 -217 55z" />
    <glyph glyph-name="yen" unicode="&#xa5;" horiz-adv-x="909" 
d="M539 0h-154v225h-211v92h211v205h-211v90h186l-350 1108h168l283 -1032l95 349l91 335q41 152 96 348h158l-340 -1108h182v-90h-204v-205h204v-92h-204v-225z" />
    <glyph glyph-name="brokenbar" unicode="&#xa6;" horiz-adv-x="403" 
d="M268 889h-131v553h131v-553zM268 -14h-131v551h131v-551z" />
    <glyph glyph-name="section" unicode="&#xa7;" horiz-adv-x="834" 
d="M329 779l62 -56l148 -127q84 38 84 162q0 117 -205 295l-70 59q-55 -8 -88 -52t-33 -108t53 -123zM78 299l115 41q27 -84 83 -168q64 -90 152 -90q79 0 118.5 46t39.5 130q0 117 -205 297l-86 76l-56 47q-18 16 -47 45q-35 37 -47 51l-33 48q-32 53 -32 116
q0 97 44.5 164.5t125.5 97.5q-68 65 -100.5 120.5t-32.5 117.5q0 136 82 209q83 75 219 75q129 0 205 -95q72 -88 102 -210l-133 -41q-10 58 -30 108q-20 51 -59 90q-40 40 -93 40q-68 0 -107 -44.5t-39 -119.5q0 -40 26 -84q25 -40 56 -71q22 -21 82 -74l94 -82
q56 -48 88 -80q37 -37 74 -84q75 -94 80 -213q0 -86 -37 -151t-104 -101q103 -118 104 -248q0 -136 -85 -212q-86 -77 -220 -77q-131 0 -220 92q-90 94 -124 234z" />
    <glyph glyph-name="dieresis" unicode="&#xa8;" horiz-adv-x="795" 
d="M682 1386h-184v179h184v-179zM297 1386h-184v179h184v-179z" />
    <glyph glyph-name="copyright" unicode="&#xa9;" horiz-adv-x="1378" 
d="M502 100q91 -32 194 -32q104 0 194 32q125 46 207 147t118 235q22 86 22.5 175.5t-22.5 175.5t-65 160t-109 132t-151 89q-88 33 -194 33q-104 0 -193 -33q-125 -45 -206.5 -145.5t-119.5 -235.5q-19 -88 -21 -176t22.5 -175t65.5 -160.5t107.5 -132t150.5 -89.5zM922 35
q-104 -37 -227 -37t-225 37q-147 53 -242.5 165t-136.5 262q-21 79 -24 162t10.5 163.5t46 156.5t80 140t116 115t150.5 80q105 38 225 38t225 -38q147 -52 243 -164.5t137 -262.5q23 -97 25.5 -195t-25.5 -195t-76 -179t-126 -147.5t-176 -100.5zM829 506h89q0 -2 -2 -18
q-3 -42 -16 -95q-17 -66 -62 -116q-51 -56 -136 -56q-69 0 -127 32q-36 21 -71 84q-22 43 -33 119q-5 27 -6 70q-2 58 -2 70v72v71q0 13 2 69q4 68 18 131q14 56 51 104q50 65 168 69q132 -6 177 -112q28 -58 34 -114q5 -38 5 -39v-18h-89q0 80 -24 146q-24 65 -105 65
q-86 5 -123 -84q-10 -24 -15 -71q-4 -46 -6 -95q-1 -31 -1 -123q0 -91 1 -122q2 -116 21 -168q36 -89 123 -82q80 0 105 64q24 64 24 147z" />
    <glyph glyph-name="ordfeminine" unicode="&#xaa;" horiz-adv-x="745" 
d="M494 193v331q-82 -53 -117 -79q-42 -30 -82 -68q-76 -72 -76 -164q0 -65 29.5 -98t73.5 -33q48 0 95.5 30.5t76.5 80.5zM635 0h-117l-16 121q-39 -72 -99 -108q-59 -36 -112 -36q-79 0 -138 58q-59 59 -59 153q0 39 1 52q1 23 10 55t22 52q40 62 116 109q111 71 251 124
q0 190 -41 243q-18 26 -36 34.5t-46 8.5q-46 0 -79 -32q-43 -40 -48 -164h-131q10 132 76.5 206t177.5 74q119 0 179 -70q75 -83 75 -241v-420q0 -56 4 -105q5 -66 8 -83z" />
    <glyph glyph-name="guillemotleft" unicode="&#xab;" horiz-adv-x="874" 
d="M778 324v-199l-389 450v130l389 450v-199l-276 -315zM467 324v-199l-389 450v130l389 450v-199l-277 -315z" />
    <glyph glyph-name="logicalnot" unicode="&#xac;" horiz-adv-x="657" 
d="M483 449h-383v114h441v-307h-58v193z" />
    <glyph glyph-name="uni00AD" unicode="&#xad;" horiz-adv-x="659" 
d="M557 449h-440v114h440v-114z" />
    <glyph glyph-name="registered" unicode="&#xae;" horiz-adv-x="1378" 
d="M502 100q91 -32 194 -32q104 0 194 32q125 46 207 147t118 235q22 86 22.5 175.5t-22.5 175.5t-65 160t-109 132t-151 89q-88 33 -194 33q-104 0 -193 -33q-125 -45 -206.5 -145.5t-119.5 -235.5q-19 -88 -21 -176t22.5 -175t65.5 -160.5t107.5 -132t150.5 -89.5zM922 35
q-104 -37 -227 -37t-225 37q-147 53 -242.5 165t-136.5 262q-21 79 -24 162t10.5 163.5t46 156.5t80 140t116 115t150.5 80q105 38 225 38t225 -38q147 -52 243 -164.5t137 -262.5q23 -97 25.5 -195t-25.5 -195t-76 -179t-126 -147.5t-176 -100.5zM575 1032v-338h68h47
q12 0 42 3q28 3 40 8l16 9q16 8 26 16t15 17q23 44 23 97q0 96 -42 142t-128 46h-107zM575 242h-71v841h190q238 0 238 -239q0 -71 -47 -124q-46 -52 -103 -63q16 -31 156 -413h-86l-133 401h-144v-403z" />
    <glyph glyph-name="macron" unicode="&#xaf;" horiz-adv-x="702" 
d="M571 1382h-440v115h440v-115z" />
    <glyph glyph-name="degree" unicode="&#xb0;" horiz-adv-x="637" 
d="M154 1657q57 65 163 65q107 0 163 -66q57 -64 57 -153t-57 -153q-55 -64 -163 -64q-106 0 -163 64q-56 65 -56 153q0 87 56 154zM211 1608q-35 -46 -35 -104q0 -59 34 -102q35 -44 106 -44q73 0 108 44t35 102q0 59 -35 103t-108 44q-72 0 -105 -43z" />
    <glyph glyph-name="plusminus" unicode="&#xb1;" horiz-adv-x="702" 
d="M418 383h-119v192h-193v115h193v193h119v-193h192v-115h-192v-192zM610 0h-504v115h504v-115z" />
    <glyph glyph-name="twosuperior" unicode="&#xb2;" horiz-adv-x="764" 
d="M649 586h-549v100l306 459q116 188 116 278q0 211 -125 211q-96 0 -127 -81q-26 -73 -26 -183h-142q0 181 73.5 277t221.5 96q131 0 199 -84t68 -236q0 -115 -129 -317l-267 -410h381v-110z" />
    <glyph glyph-name="threesuperior" unicode="&#xb3;" horiz-adv-x="770" 
d="M104 954h129q0 -106 27 -181q29 -81 123 -81q74 0 107.5 55t33.5 166q0 68 -46 144q-47 77 -113 90v84q77 20 118 76q41 58 41 118q0 213 -131 213q-75 0 -116 -54q-16 -22 -27 -59q-17 -63 -17 -151h-129q0 179 72 275t215 96q129 0 196 -88q68 -89 68 -221
q0 -74 -45 -145q-45 -70 -112 -103q64 -39 111 -122q46 -82 46 -153q0 -149 -70 -237q-69 -88 -202 -88q-139 0 -209 94.5t-70 271.5z" />
    <glyph glyph-name="acute" unicode="&#xb4;" horiz-adv-x="444" 
d="M152 1323h-56l123 399h162z" />
    <glyph glyph-name="paragraph" unicode="&#xb6;" horiz-adv-x="969" 
d="M514 0h-125v877q-170 0 -268 74q-98 75 -98 214q0 142 94 217.5t276 75.5h438v-1458h-106v877h-211v-877z" />
    <glyph glyph-name="periodcentered" unicode="&#xb7;" horiz-adv-x="446" 
d="M315 705h-184v178h184v-178z" />
    <glyph glyph-name="cedilla" unicode="&#xb8;" horiz-adv-x="449" 
d="M111 -393v57q147 0 147 68q0 30 -28.5 67t-73.5 68v133h63v-115q141 -84 141 -161q0 -54 -66.5 -85.5t-182.5 -31.5z" />
    <glyph glyph-name="onesuperior" unicode="&#xb9;" horiz-adv-x="522" 
d="M379 588h-135v909q-48 -32 -101 -56q-61 -27 -92 -34v127q59 19 130 69q72 51 112 117h86v-1132z" />
    <glyph glyph-name="ordmasculine" unicode="&#xba;" horiz-adv-x="715" 
d="M111 1235v47q0 57 1 74l3 72q1 46 6 72l12 65q12 55 51 109q53 73 173 73q79 0 132 -33q41 -23 74 -88q12 -23 21 -61q10 -35 13 -65q4 -31 5 -72l3 -72q1 -17 1 -74v-47q0 -79 -1 -102q-3 -67 -5 -93q-5 -61 -13 -90q-9 -28 -27 -70q-16 -39 -44 -61q-65 -49 -158 -49
q-61 0 -103 16q-43 16 -71 55q-25 36 -42 71q-15 35 -21 98q-7 73 -8 105q-2 54 -2 120zM227 1282v-47q0 -219 26 -303q25 -82 105 -82t105 82q26 84 26 303v47q0 160 -13 254q-11 69 -39 98.5t-79 32.5q-82 0 -107 -82q-24 -83 -24 -303z" />
    <glyph glyph-name="guillemotright" unicode="&#xbb;" horiz-adv-x="872" 
d="M811 575l-387 -450v199l274 317l-274 315v199l387 -450v-130zM500 575l-389 -450v199l276 317l-276 315v199l389 -450v-130z" />
    <glyph glyph-name="onequarter" unicode="&#xbc;" horiz-adv-x="1499" 
d="M328 588h-135v909q-48 -31 -100 -56q-59 -27 -93 -34v127q60 20 130 69q72 51 112 117h86v-1132zM492 0h-144l551 1720h145zM1257 1016l-229 -637h229v637zM1257 276h-374v95l301 762h211v-754h133v-103h-133v-276h-138v276z" />
    <glyph glyph-name="onehalf" unicode="&#xbd;" horiz-adv-x="1716" 
d="M1675 0h-549v98l306 459q116 188 116 279q0 213 -125 213q-95 0 -128 -83q-25 -66 -25 -182h-142q0 371 295 371q131 0 199 -83.5t68 -233.5q0 -118 -129 -320l-267 -407h381v-111zM612 0h-143l551 1720h145zM328 588h-135v909q-48 -31 -100 -56q-59 -27 -93 -34v127
q60 20 130 69q72 51 112 117h86v-1132z" />
    <glyph glyph-name="threequarters" unicode="&#xbe;" horiz-adv-x="1890" 
d="M1647 1016l-230 -637h232zM1649 276h-375v95l301 762h209v-754h135v-103h-135v-276h-135v276zM788 0h-143l551 1720h145zM59 954h129q0 -106 27 -181q29 -81 123 -81q74 0 107.5 55t33.5 166q0 68 -46 144q-47 77 -114 90v84q78 19 119 76q41 58 41 118q0 213 -131 213
q-76 0 -116 -54q-16 -22 -27 -59q-17 -63 -17 -151h-129q0 179 72 275t215 96q129 0 196 -88q68 -89 68 -221q0 -74 -45 -145q-45 -70 -112 -103q64 -39 111 -122q46 -82 46 -153q0 -149 -70 -237q-69 -88 -202 -88q-139 0 -209 94.5t-70 271.5z" />
    <glyph glyph-name="questiondown" unicode="&#xbf;" horiz-adv-x="811" 
d="M383 1378h182v-180h-182v180zM408 926h133v-340q-219 -131 -303 -258q-56 -81 -73 -152q-15 -61 -15 -115q0 -163 77 -237q73 -70 174 -70q118 0 195 80q76 79 78 223v144h135v-148q0 -96 -35 -178t-94 -135q-122 -109 -279 -109q-76 0 -144.5 27t-123.5 78t-88 134.5
t-33 188.5q0 180 98 320q99 139 298 262v285z" />
    <glyph glyph-name="Agrave" unicode="&#xc0;" horiz-adv-x="973" 
d="M514 1909h-55l-230 397h162zM485 1563l-180 -1014h361zM289 449l-88 -449h-154l340 1720h199l340 -1720h-156l-86 449h-395z" />
    <glyph glyph-name="Aacute" unicode="&#xc1;" horiz-adv-x="973" 
d="M514 1909h-55l123 397h161zM485 1563l-180 -1014h361zM289 449l-88 -449h-154l340 1720h199l340 -1720h-156l-86 449h-395z" />
    <glyph glyph-name="Acircumflex" unicode="&#xc2;" horiz-adv-x="973" 
d="M338 1909h-113l156 307h213l154 -307h-111l-150 299zM485 1563l-180 -1014h361zM289 449l-88 -449h-154l340 1720h199l340 -1720h-156l-86 449h-395z" />
    <glyph glyph-name="Atilde" unicode="&#xc3;" horiz-adv-x="973" 
d="M324 1919h-115q6 55 18 85q14 32 31 50q19 23 55.5 38t81.5 15q28 0 95 -38q67 -37 92 -37q29 0 44 14.5t21 50.5h117l-2 -12q0 -31 -16 -70t-50 -71q-37 -35 -118 -35q-37 0 -103 39q-65 39 -90 39q-28 0 -41.5 -15t-19.5 -53zM485 1563l-180 -1014h361zM289 449
l-88 -449h-154l340 1720h199l340 -1720h-156l-86 449h-395z" />
    <glyph glyph-name="Adieresis" unicode="&#xc4;" horiz-adv-x="973" 
d="M770 1909h-184v178h184v-178zM385 1909h-182v178h182v-178zM485 1563l-180 -1014h361zM289 449l-88 -449h-154l340 1720h199l340 -1720h-156l-86 449h-395z" />
    <glyph glyph-name="Aring" unicode="&#xc5;" horiz-adv-x="973" 
d="M324 2101q56 66 162 66q108 0 163 -66q56 -65 56 -153t-56 -153q-55 -64 -163 -64q-107 0 -164 64q-56 65 -56 153q0 89 58 153zM379 2050q-35 -44 -35 -103t35 -103t107 -44t107 44q34 43 34 103q0 61 -34 104q-35 44 -107 44t-107 -45zM485 1563l-180 -1014h361z
M289 449l-88 -449h-154l340 1720h199l340 -1720h-156l-86 449h-395z" />
    <glyph glyph-name="AE" unicode="&#xc6;" horiz-adv-x="1380" 
d="M719 1563l-354 -1014h354v1014zM164 0h-152l635 1720h674v-121h-449v-653h320v-115h-320v-708h449v-123h-600v449h-391z" />
    <glyph glyph-name="Ccedilla" unicode="&#xc7;" horiz-adv-x="1032" 
d="M455 -408v60q145 0 145 65q0 30 -28 67.5t-74 68.5v133h63v-115q144 -84 144 -162q0 -52 -67.5 -84.5t-182.5 -32.5zM115 500v721q0 193 53 308q99 216 375 216q403 0 403 -524v-70h-145v102q0 167 -54 263q-55 106 -204 106q-129 0 -195 -69q-31 -31 -49 -80
q-33 -88 -33 -220v-788q0 -160 53 -262q60 -109 224 -109q146 0 204 108q54 96 54 263v119h145v-84q0 -191 -51 -311q-88 -212 -352 -216q-194 0 -299 102q-47 47 -77 114q-52 120 -52 311z" />
    <glyph glyph-name="Egrave" unicode="&#xc8;" horiz-adv-x="795" 
d="M473 1909h-55l-230 397h162zM745 0h-600v1720h600v-121h-446v-653h319v-115h-319v-708h446v-123z" />
    <glyph glyph-name="Eacute" unicode="&#xc9;" horiz-adv-x="795" 
d="M473 1909h-55l123 397h161zM745 0h-600v1720h600v-121h-446v-653h319v-115h-319v-708h446v-123z" />
    <glyph glyph-name="Ecircumflex" unicode="&#xca;" horiz-adv-x="795" 
d="M299 1909h-115l158 307h213l152 -307h-109l-152 299zM745 0h-600v1720h600v-121h-446v-653h319v-115h-319v-708h446v-123z" />
    <glyph glyph-name="Edieresis" unicode="&#xcb;" horiz-adv-x="795" 
d="M729 1909h-182v178h182v-178zM346 1909h-184v178h184v-178zM745 0h-600v1720h600v-121h-446v-653h319v-115h-319v-708h446v-123z" />
    <glyph glyph-name="Igrave" unicode="&#xcc;" horiz-adv-x="444" 
d="M250 1909h-57l-230 397h164zM297 0h-152v1720h152v-1720z" />
    <glyph glyph-name="Iacute" unicode="&#xcd;" horiz-adv-x="444" 
d="M250 1909h-57l122 397h162zM297 0h-152v1720h152v-1720z" />
    <glyph glyph-name="Icircumflex" unicode="&#xce;" horiz-adv-x="444" 
d="M74 1909h-115l158 307h213l151 -307h-108l-152 299zM297 0h-152v1720h152v-1720z" />
    <glyph glyph-name="Idieresis" unicode="&#xcf;" horiz-adv-x="444" 
d="M506 1909h-184v178h184v-178zM121 1909h-184v178h184v-178zM297 0h-152v1720h152v-1720z" />
    <glyph glyph-name="Eth" unicode="&#xd0;" horiz-adv-x="1128" 
d="M336 829v-706h233q287 0 287 350v768q0 358 -287 358h-233v-675h199v-95h-199zM569 0h-387v829h-139v95h139v796h387q122 0 209.5 -39t137 -111t72 -161t22.5 -201v-700q0 -508 -441 -508z" />
    <glyph glyph-name="Ntilde" unicode="&#xd1;" horiz-adv-x="1083" 
d="M379 1919h-115q0 40 18 85q41 98 169 103q27 0 94 -38q67 -37 92 -37q30 0 44.5 14.5t20.5 50.5h115v-12q-10 -69 -33 -103q-15 -22 -35 -38q-37 -35 -115 -35q-38 0 -104 39q-64 39 -90 39q-28 0 -42.5 -15.5t-18.5 -52.5zM276 0h-131v1720h117l547 -1362v1362h129
v-1720h-115l-547 1333v-1333z" />
    <glyph glyph-name="Ograve" unicode="&#xd2;" 
d="M582 1909h-58l-227 397h162zM115 500v721q0 188 58 308q102 216 380 216q196 0 299 -101q139 -134 139 -423v-721q0 -527 -438 -527t-438 527zM840 465v788q0 369 -287 369t-287 -369v-788q0 -371 287 -371t287 371z" />
    <glyph glyph-name="Oacute" unicode="&#xd3;" 
d="M582 1909h-58l123 397h164zM115 500v721q0 188 58 308q102 216 380 216q196 0 299 -101q139 -134 139 -423v-721q0 -527 -438 -527t-438 527zM840 465v788q0 369 -287 369t-287 -369v-788q0 -371 287 -371t287 371z" />
    <glyph glyph-name="Ocircumflex" unicode="&#xd4;" 
d="M406 1909h-113l156 307h213l151 -307h-108l-150 299zM115 500v721q0 188 58 308q102 216 380 216q196 0 299 -101q139 -134 139 -423v-721q0 -527 -438 -527t-438 527zM840 465v788q0 369 -287 369t-287 -369v-788q0 -371 287 -371t287 371z" />
    <glyph glyph-name="Otilde" unicode="&#xd5;" 
d="M391 1919h-115q0 37 18 85q10 30 29 50q20 23 57.5 38t82.5 15q28 0 95 -38q67 -37 89 -37q31 0 46.5 14.5t21.5 50.5h114v-12q-10 -69 -33 -103q-15 -22 -35 -38q-37 -35 -115 -35q-38 0 -104 39q-64 39 -89 39q-28 0 -43 -15t-19 -53zM115 500v721q0 188 58 308
q102 216 380 216q196 0 299 -101q139 -134 139 -423v-721q0 -527 -438 -527t-438 527zM840 465v788q0 369 -287 369t-287 -369v-788q0 -371 287 -371t287 371z" />
    <glyph glyph-name="Odieresis" unicode="&#xd6;" 
d="M838 1909h-185v178h185v-178zM453 1909h-185v178h185v-178zM115 500v721q0 188 58 308q102 216 380 216q196 0 299 -101q139 -134 139 -423v-721q0 -527 -438 -527t-438 527zM840 465v788q0 369 -287 369t-287 -369v-788q0 -371 287 -371t287 371z" />
    <glyph glyph-name="multiply" unicode="&#xd7;" horiz-adv-x="674" 
d="M127 334l-76 76l193 192l-193 193l76 73l192 -190l193 190l76 -73l-193 -193q170 -172 193 -192l-76 -76l-193 192z" />
    <glyph glyph-name="Oslash" unicode="&#xd8;" 
d="M991 1221v-721q0 -527 -438 -527q-137 0 -234 52l-57 -177l-63 21l63 197q-147 128 -147 434v721q0 188 58 308q102 216 380 216q136 0 231 -53l58 178l65 -21l-63 -196q147 -131 147 -432zM553 94q287 0 287 371v788q0 151 -47 242l-431 -1335q70 -66 191 -66zM266 1253
v-788q0 -151 47 -242l428 1338q-67 61 -188 61q-287 0 -287 -369z" />
    <glyph glyph-name="Ugrave" unicode="&#xd9;" horiz-adv-x="1133" 
d="M586 1909h-58l-229 397h164zM121 424v1296h151v-1333q0 -150 68.5 -221.5t224.5 -71.5q147 0 213 72.5t66 220.5v1333h149v-1296q0 -451 -428 -451q-205 0 -309 88q-140 119 -135 363z" />
    <glyph glyph-name="Uacute" unicode="&#xda;" horiz-adv-x="1133" 
d="M586 1909h-58l123 397h162zM121 424v1296h151v-1333q0 -150 68.5 -221.5t224.5 -71.5q147 0 213 72.5t66 220.5v1333h149v-1296q0 -451 -428 -451q-205 0 -309 88q-140 119 -135 363z" />
    <glyph glyph-name="Ucircumflex" unicode="&#xdb;" horiz-adv-x="1133" 
d="M410 1909h-113l156 307h213l151 -307h-108l-152 299zM121 424v1296h151v-1333q0 -150 68.5 -221.5t224.5 -71.5q147 0 213 72.5t66 220.5v1333h149v-1296q0 -451 -428 -451q-205 0 -309 88q-140 119 -135 363z" />
    <glyph glyph-name="Udieresis" unicode="&#xdc;" horiz-adv-x="1133" 
d="M842 1909h-185v178h185v-178zM457 1909h-185v178h185v-178zM121 424v1296h151v-1333q0 -150 68.5 -221.5t224.5 -71.5q147 0 213 72.5t66 220.5v1333h149v-1296q0 -451 -428 -451q-205 0 -309 88q-140 119 -135 363z" />
    <glyph glyph-name="Yacute" unicode="&#xdd;" horiz-adv-x="889" 
d="M471 1909h-55l123 397h161zM526 0h-151v535l-377 1185h154l58 -203q41 -142 78 -266l77 -259q54 -179 61 -204l25 -79q63 235 147 519q96 326 143 492h150l-365 -1185v-535z" />
    <glyph glyph-name="Thorn" unicode="&#xde;" horiz-adv-x="1059" 
d="M299 1339v-710l285 -2q127 0 182 87.5t55 280.5q0 178 -58 261t-179 83h-285zM299 0h-154v1720h154v-258h268q110 0 191.5 -37t127.5 -102.5t67.5 -146t21.5 -177.5q0 -161 -52 -280q-87 -209 -358 -213h-266v-506z" />
    <glyph glyph-name="germandbls" unicode="&#xdf;" horiz-adv-x="1053" 
d="M289 0h-152v1337q0 96 31.5 176.5t84.5 130.5q106 103 253 103q69 0 132.5 -27t115 -78t82 -132.5t30.5 -182.5q2 -108 -57 -214t-160 -146q73 -17 131 -59t92 -96q34 -55 53 -119q36 -113 36 -240q0 -480 -578 -480v115q205 0 309 76q44 32 73 83q26 48 35 93.5t9 112.5
q0 151 -38 252q-66 184 -290 184h-104v117h106q122 0 174 99q45 83 45 220q0 147 -60 230t-142 83q-86 0 -149 -80q-62 -80 -62 -223v-1335z" />
    <glyph glyph-name="agrave" unicode="&#xe0;" horiz-adv-x="809" 
d="M426 1389h-55l-230 397h162zM555 244v422q-112 -80 -116 -83q-44 -32 -89 -72q-49 -44 -71 -76q-54 -78 -54 -169q0 -87 37 -127q38 -41 84 -41q56 0 115 41q60 42 94 105zM725 0h-141l-19 145q-47 -82 -116.5 -127t-137.5 -45q-92 0 -164 74q-71 74 -71 193q0 49 6 101
q5 44 36 103q16 28 37.5 50t64.5 59q88 75 335 180v10q0 101 -9 174t-22 112t-34.5 61.5t-39 28t-42.5 5.5q-54 0 -94 -36q-53 -48 -60 -193v-6h-156q13 159 92.5 247.5t210.5 88.5q72 0 129 -23t89 -60q33 -38 52 -87q36 -87 36 -203v-576q0 -71 4 -132q5 -73 10 -105z" />
    <glyph glyph-name="aacute" unicode="&#xe1;" horiz-adv-x="809" 
d="M428 1389h-55l123 397h161zM555 244v422q-112 -80 -116 -83q-44 -32 -89 -72q-49 -44 -71 -76q-54 -78 -54 -169q0 -87 37 -127q38 -41 84 -41q56 0 115 41q60 42 94 105zM725 0h-141l-19 145q-47 -82 -116.5 -127t-137.5 -45q-92 0 -164 74q-71 74 -71 193q0 49 6 101
q5 44 36 103q16 28 37.5 50t64.5 59q88 75 335 180v10q0 101 -9 174t-22 112t-34.5 61.5t-39 28t-42.5 5.5q-54 0 -94 -36q-53 -48 -60 -193v-6h-156q13 159 92.5 247.5t210.5 88.5q72 0 129 -23t89 -60q33 -38 52 -87q36 -87 36 -203v-576q0 -71 4 -132q5 -73 10 -105z" />
    <glyph glyph-name="acircumflex" unicode="&#xe2;" horiz-adv-x="809" 
d="M252 1389h-115l158 307h213l151 -307h-108l-152 299zM555 244v422q-112 -80 -116 -83q-44 -32 -89 -72q-49 -44 -71 -76q-54 -78 -54 -169q0 -87 37 -127q38 -41 84 -41q56 0 115 41q60 42 94 105zM725 0h-141l-19 145q-47 -82 -116.5 -127t-137.5 -45q-92 0 -164 74
q-71 74 -71 193q0 49 6 101q5 44 36 103q16 28 37.5 50t64.5 59q88 75 335 180v10q0 101 -9 174t-22 112t-34.5 61.5t-39 28t-42.5 5.5q-54 0 -94 -36q-53 -48 -60 -193v-6h-156q13 159 92.5 247.5t210.5 88.5q72 0 129 -23t89 -60q33 -38 52 -87q36 -87 36 -203v-576
q0 -71 4 -132q5 -73 10 -105z" />
    <glyph glyph-name="atilde" unicode="&#xe3;" horiz-adv-x="809" 
d="M238 1401h-115q0 43 16 82q40 99 170 104q29 0 94 -38q67 -38 91 -38q29 0 45 15.5t20 52.5h117v-14q-12 -89 -68 -141q-37 -35 -116 -35q-36 0 -103 38q-65 39 -90 39q-30 0 -43.5 -14.5t-17.5 -50.5zM555 244v422q-112 -80 -116 -83q-44 -32 -89 -72q-49 -44 -71 -76
q-54 -78 -54 -169q0 -87 37 -127q38 -41 84 -41q56 0 115 41q60 42 94 105zM725 0h-141l-19 145q-47 -82 -116.5 -127t-137.5 -45q-92 0 -164 74q-71 74 -71 193q0 49 6 101q5 44 36 103q16 28 37.5 50t64.5 59q88 75 335 180v10q0 101 -9 174t-22 112t-34.5 61.5t-39 28
t-42.5 5.5q-54 0 -94 -36q-53 -48 -60 -193v-6h-156q13 159 92.5 247.5t210.5 88.5q72 0 129 -23t89 -60q33 -38 52 -87q36 -87 36 -203v-576q0 -71 4 -132q5 -73 10 -105z" />
    <glyph glyph-name="adieresis" unicode="&#xe4;" horiz-adv-x="809" 
d="M682 1389h-182v178h182v-178zM299 1389h-184v178h184v-178zM555 244v422q-112 -80 -116 -83q-44 -32 -89 -72q-49 -44 -71 -76q-54 -78 -54 -169q0 -87 37 -127q38 -41 84 -41q56 0 115 41q60 42 94 105zM725 0h-141l-19 145q-47 -82 -116.5 -127t-137.5 -45
q-92 0 -164 74q-71 74 -71 193q0 49 6 101q5 44 36 103q16 28 37.5 50t64.5 59q88 75 335 180v10q0 101 -9 174t-22 112t-34.5 61.5t-39 28t-42.5 5.5q-54 0 -94 -36q-53 -48 -60 -193v-6h-156q13 159 92.5 247.5t210.5 88.5q72 0 129 -23t89 -60q33 -38 52 -87
q36 -87 36 -203v-576q0 -71 4 -132q5 -73 10 -105z" />
    <glyph glyph-name="aring" unicode="&#xe5;" horiz-adv-x="809" 
d="M236 1759q57 66 163 66q107 0 163 -66q56 -65 56 -153t-56 -153q-55 -64 -163 -64q-106 0 -163 64q-56 65 -56 153t56 153zM293 1708q-35 -44 -35 -103q0 -60 34 -103q35 -44 106 -44q73 0 108 44t35 103q0 60 -35 104t-108 44q-72 0 -105 -45zM555 244v422
q-112 -80 -116 -83q-44 -32 -89 -72q-49 -44 -71 -76q-54 -78 -54 -169q0 -87 37 -127q38 -41 84 -41q56 0 115 41q60 42 94 105zM725 0h-141l-19 145q-47 -82 -116.5 -127t-137.5 -45q-92 0 -164 74q-71 74 -71 193q0 49 6 101q5 44 36 103q16 28 37.5 50t64.5 59
q88 75 335 180v10q0 101 -9 174t-22 112t-34.5 61.5t-39 28t-42.5 5.5q-54 0 -94 -36q-53 -48 -60 -193v-6h-156q13 159 92.5 247.5t210.5 88.5q72 0 129 -23t89 -60q33 -38 52 -87q36 -87 36 -203v-576q0 -71 4 -132q5 -73 10 -105z" />
    <glyph glyph-name="ae" unicode="&#xe6;" horiz-adv-x="1255" 
d="M707 709v-4q151 30 226 88q32 26 50 59q27 50 27 119q0 64 -31 108q-32 45 -86 45q-53 0 -99 -24q-7 -4 -13 -9.5t-12.5 -14t-10 -14t-10.5 -17t-9 -14.5q-10 -15 -16 -51l-9 -58q-2 -17 -4 -66l-2 -70q-1 -17 -1 -77zM553 489v97q-196 -71 -262 -134t-66 -186
q0 -79 29.5 -124.5t73.5 -45.5q57 0 103 46q45 45 71 111q51 128 51 236zM254 907v-18h-158q14 159 93 247q81 89 212 89q165 0 232 -154q82 154 254 154q109 0 183 -73q75 -74 75 -194q-1 -69 -36 -126t-83.5 -92t-110.5 -61.5t-106 -37.5t-80 -16l-22 -4v-177
q0 -143 21 -227q21 -81 53.5 -112t86.5 -31q67 0 107 58.5t43 213.5v21h139l-2 -23q-7 -128 -47 -217q-32 -75 -89 -114.5t-155 -39.5q-104 0 -173.5 61.5t-92.5 174.5q-17 -66 -53.5 -115.5t-81.5 -74.5q-85 -46 -152 -46q-94 0 -166 74q-71 74 -71 193q0 59 7 100
q8 47 37 97q28 45 101 94q99 70 334 145v76q0 186 -31 279q-11 35 -31.5 57.5t-41.5 29.5q-41 14 -90 -1q-39 -11 -70 -61.5t-35 -148.5z" />
    <glyph glyph-name="ccedilla" unicode="&#xe7;" horiz-adv-x="815" 
d="M346 -408v60q148 0 148 65q0 30 -29.5 67t-75.5 69v133h66v-115q141 -84 141 -162q0 -52 -67.5 -84.5t-182.5 -32.5zM106 455v112v64q0 94 1 122q1 30 8 115q6 72 17 115q10 37 34 94q24 53 58 81q81 67 208 67q133 0 207 -81q33 -36 54 -92q34 -86 42 -235q0 -1 1 -5
t1 -5h-149v8q-6 169 -40 238q-35 71 -116 71q-58 0 -91.5 -26.5t-54.5 -86.5q-11 -34 -19 -97q-11 -98 -11 -283v-64q0 -279 35 -387q34 -106 141 -106q79 0 114 71q34 72 42 248v10h149v-8q-5 -153 -39 -248q-30 -85 -93 -128t-173 -46q-125 0 -189 52q-27 23 -41 37.5
t-30 40t-26 57.5q-17 57 -23 87q-9 43 -13 102q-4 60 -4 106z" />
    <glyph glyph-name="egrave" unicode="&#xe8;" horiz-adv-x="829" 
d="M451 1389h-58l-227 397h162zM258 702h332v47q1 33 0.5 66.5t-1.5 66t-5 63t-10.5 57.5t-17.5 49.5t-26 38.5t-37 25t-49 9q-99 0 -146 -68q-18 -24 -29 -91q-8 -60 -10 -112q-1 -32 -1 -151zM106 553v166q0 238 63 362q44 82 108.5 113.5t158.5 30.5q162 0 232 -114
q71 -115 71 -359q0 -61 -2 -123h-481v-185q0 -228 49 -306q24 -37 53 -50.5t78 -13.5q68 0 113 67q45 68 47 226h139q-12 -139 -48 -228q-66 -166 -249 -166q-127 0 -198 50q-71 52 -103.5 178.5t-30.5 351.5z" />
    <glyph glyph-name="eacute" unicode="&#xe9;" horiz-adv-x="829" 
d="M451 1389h-58l123 397h164zM258 702h332v47q1 33 0.5 66.5t-1.5 66t-5 63t-10.5 57.5t-17.5 49.5t-26 38.5t-37 25t-49 9q-99 0 -146 -68q-18 -24 -29 -91q-8 -60 -10 -112q-1 -32 -1 -151zM106 553v166q0 238 63 362q44 82 108.5 113.5t158.5 30.5q162 0 232 -114
q71 -115 71 -359q0 -61 -2 -123h-481v-185q0 -228 49 -306q24 -37 53 -50.5t78 -13.5q68 0 113 67q45 68 47 226h139q-12 -139 -48 -228q-66 -166 -249 -166q-127 0 -198 50q-71 52 -103.5 178.5t-30.5 351.5z" />
    <glyph glyph-name="ecircumflex" unicode="&#xea;" horiz-adv-x="829" 
d="M274 1389h-112l155 307h213l152 -307h-109l-149 299zM258 702h332v47q1 33 0.5 66.5t-1.5 66t-5 63t-10.5 57.5t-17.5 49.5t-26 38.5t-37 25t-49 9q-99 0 -146 -68q-18 -24 -29 -91q-8 -60 -10 -112q-1 -32 -1 -151zM106 553v166q0 238 63 362q44 82 108.5 113.5
t158.5 30.5q162 0 232 -114q71 -115 71 -359q0 -61 -2 -123h-481v-185q0 -228 49 -306q24 -37 53 -50.5t78 -13.5q68 0 113 67q45 68 47 226h139q-12 -139 -48 -228q-66 -166 -249 -166q-127 0 -198 50q-71 52 -103.5 178.5t-30.5 351.5z" />
    <glyph glyph-name="edieresis" unicode="&#xeb;" horiz-adv-x="829" 
d="M707 1389h-185v178h185v-178zM322 1389h-185v178h185v-178zM258 702h332v47q1 33 0.5 66.5t-1.5 66t-5 63t-10.5 57.5t-17.5 49.5t-26 38.5t-37 25t-49 9q-99 0 -146 -68q-18 -24 -29 -91q-8 -60 -10 -112q-1 -32 -1 -151zM106 553v166q0 238 63 362q44 82 108.5 113.5
t158.5 30.5q162 0 232 -114q71 -115 71 -359q0 -61 -2 -123h-481v-185q0 -228 49 -306q24 -37 53 -50.5t78 -13.5q68 0 113 67q45 68 47 226h139q-12 -139 -48 -228q-66 -166 -249 -166q-127 0 -198 50q-71 52 -103.5 178.5t-30.5 351.5z" />
    <glyph glyph-name="igrave" unicode="&#xec;" horiz-adv-x="406" 
d="M236 1389h-58l-227 397h162zM283 0h-152v1198h152v-1198z" />
    <glyph glyph-name="iacute" unicode="&#xed;" horiz-adv-x="406" 
d="M236 1389h-58l123 397h164zM283 0h-152v1198h152v-1198z" />
    <glyph glyph-name="icircumflex" unicode="&#xee;" horiz-adv-x="406" 
d="M59 1389h-112l155 307h213l154 -307h-111l-149 299zM283 0h-152v1198h152v-1198z" />
    <glyph glyph-name="idieresis" unicode="&#xef;" horiz-adv-x="406" 
d="M492 1389h-185v178h185v-178zM106 1389h-184v178h184v-178zM283 0h-152v1198h152v-1198z" />
    <glyph glyph-name="eth" unicode="&#xf0;" horiz-adv-x="877" 
d="M233 545v-15q0 -239 44 -337.5t135 -98.5q43 0 70 10t51 36q40 40 57.5 135t17.5 276q0 143 -14 381q-23 20 -80 32q-55 13 -113 13q-55 0 -91 -38q-71 -76 -77 -394zM84 532v5q0 244 74 400q78 163 243 163q115 0 185 -45q-27 184 -70 303l-164 -37v94l127 31
q-50 93 -123 130q-76 39 -190 46l-14 123q171 -12 282.5 -76t179.5 -194l179 41v-95l-140 -32q105 -272 105 -854v-25q0 -269 -83.5 -403t-262.5 -134q-86 0 -150.5 42t-102.5 119t-56.5 176.5t-18.5 221.5z" />
    <glyph glyph-name="ntilde" unicode="&#xf1;" horiz-adv-x="860" 
d="M272 1401h-114q0 38 17 82q10 30 29 50q20 23 57.5 38.5t82.5 15.5q28 0 95 -38q68 -38 89 -38q30 0 46 15t22 53h115v-14q-12 -87 -68 -141q-37 -35 -116 -35q-37 0 -104 38q-64 39 -89 39q-30 0 -44 -14.5t-18 -50.5zM270 0h-149v1198h149v-113q46 68 113.5 104
t140.5 36q88 0 156 -75q68 -76 68 -210v-940h-152v944q0 85 -34 127.5t-93 42.5q-47 0 -100.5 -32.5t-98.5 -88.5v-993z" />
    <glyph glyph-name="ograve" unicode="&#xf2;" horiz-adv-x="846" 
d="M451 1389h-56l-229 397h162zM106 467v100v64q0 94 1 122q0 2 7 115q4 70 16 115q10 37 34 94q24 53 58 81q81 67 200 67q66 0 118 -20q53 -19 85.5 -47.5t55.5 -80.5q25 -54 35 -94q12 -45 16 -115l6 -115q1 -28 1 -122v-64v-100q0 -35 -3 -96q-3 -54 -8 -93
q-4 -29 -17 -82q-10 -47 -26 -76q-17 -28 -39 -59q-33 -43 -87.5 -63.5t-135.5 -24.5q-88 0 -168 39q-44 24 -95 108q-16 29 -26 76q-13 62 -16 82q-4 33 -9 93q-3 61 -3 96zM256 631v-64q0 -281 33 -387t134 -106t134 106t33 387v64q0 72 -2 158q-5 156 -26 222
q-18 59 -51 86t-88 27t-87.5 -27t-52.5 -86q-11 -39 -17 -97q-10 -100 -10 -283z" />
    <glyph glyph-name="oacute" unicode="&#xf3;" horiz-adv-x="846" 
d="M451 1389h-56l123 397h162zM106 467v100v64q0 94 1 122q0 2 7 115q4 70 16 115q10 37 34 94q24 53 58 81q81 67 200 67q66 0 118 -20q53 -19 85.5 -47.5t55.5 -80.5q25 -54 35 -94q12 -45 16 -115l6 -115q1 -28 1 -122v-64v-100q0 -35 -3 -96q-3 -54 -8 -93
q-4 -29 -17 -82q-10 -47 -26 -76q-17 -28 -39 -59q-33 -43 -87.5 -63.5t-135.5 -24.5q-88 0 -168 39q-44 24 -95 108q-16 29 -26 76q-13 62 -16 82q-4 33 -9 93q-3 61 -3 96zM256 631v-64q0 -281 33 -387t134 -106t134 106t33 387v64q0 72 -2 158q-5 156 -26 222
q-18 59 -51 86t-88 27t-87.5 -27t-52.5 -86q-11 -39 -17 -97q-10 -100 -10 -283z" />
    <glyph glyph-name="ocircumflex" unicode="&#xf4;" horiz-adv-x="846" 
d="M274 1389h-112l155 307h213l154 -307h-111l-149 299zM106 467v100v64q0 94 1 122q0 2 7 115q4 70 16 115q10 37 34 94q24 53 58 81q81 67 200 67q66 0 118 -20q53 -19 85.5 -47.5t55.5 -80.5q25 -54 35 -94q12 -45 16 -115l6 -115q1 -28 1 -122v-64v-100q0 -35 -3 -96
q-3 -54 -8 -93q-4 -29 -17 -82q-10 -47 -26 -76q-17 -28 -39 -59q-33 -43 -87.5 -63.5t-135.5 -24.5q-88 0 -168 39q-44 24 -95 108q-16 29 -26 76q-13 62 -16 82q-4 33 -9 93q-3 61 -3 96zM256 631v-64q0 -281 33 -387t134 -106t134 106t33 387v64q0 72 -2 158
q-5 156 -26 222q-18 59 -51 86t-88 27t-87.5 -27t-52.5 -86q-11 -39 -17 -97q-10 -100 -10 -283z" />
    <glyph glyph-name="otilde" unicode="&#xf5;" horiz-adv-x="846" 
d="M260 1401h-115q6 51 19 82q38 99 170 104q25 0 93 -38t91 -38q31 0 46.5 15t19.5 53h116l-2 -14q0 -79 -66 -141q-37 -35 -116 -35q-38 0 -105 38q-65 39 -87 39q-30 0 -44 -14.5t-20 -50.5zM106 467v100v64q0 94 1 122q0 2 7 115q4 70 16 115q10 37 34 94q24 53 58 81
q81 67 200 67q66 0 118 -20q53 -19 85.5 -47.5t55.5 -80.5q25 -54 35 -94q12 -45 16 -115l6 -115q1 -28 1 -122v-64v-100q0 -35 -3 -96q-3 -54 -8 -93q-4 -29 -17 -82q-10 -47 -26 -76q-17 -28 -39 -59q-33 -43 -87.5 -63.5t-135.5 -24.5q-88 0 -168 39q-44 24 -95 108
q-16 29 -26 76q-13 62 -16 82q-4 33 -9 93q-3 61 -3 96zM256 631v-64q0 -281 33 -387t134 -106t134 106t33 387v64q0 72 -2 158q-5 156 -26 222q-18 59 -51 86t-88 27t-87.5 -27t-52.5 -86q-11 -39 -17 -97q-10 -100 -10 -283z" />
    <glyph glyph-name="odieresis" unicode="&#xf6;" horiz-adv-x="846" 
d="M707 1389h-185v178h185v-178zM324 1389h-185v178h185v-178zM106 467v100v64q0 94 1 122q0 2 7 115q4 70 16 115q10 37 34 94q24 53 58 81q81 67 200 67q66 0 118 -20q53 -19 85.5 -47.5t55.5 -80.5q25 -54 35 -94q12 -45 16 -115l6 -115q1 -28 1 -122v-64v-100
q0 -35 -3 -96q-3 -54 -8 -93q-4 -29 -17 -82q-10 -47 -26 -76q-17 -28 -39 -59q-33 -43 -87.5 -63.5t-135.5 -24.5q-88 0 -168 39q-44 24 -95 108q-16 29 -26 76q-13 62 -16 82q-4 33 -9 93q-3 61 -3 96zM256 631v-64q0 -281 33 -387t134 -106t134 106t33 387v64
q0 72 -2 158q-5 156 -26 222q-18 59 -51 86t-88 27t-87.5 -27t-52.5 -86q-11 -39 -17 -97q-10 -100 -10 -283z" />
    <glyph glyph-name="divide" unicode="&#xf7;" horiz-adv-x="674" 
d="M412 233h-185v179h185v-179zM412 879h-185v180h185v-180zM602 575h-567v115h567v-115z" />
    <glyph glyph-name="oslash" unicode="&#xf8;" horiz-adv-x="850" 
d="M739 631v-64v-100q0 -35 -3 -96q-3 -54 -8 -93q-4 -29 -17 -82q-10 -47 -26 -76q-17 -28 -39 -59q-61 -80 -222 -88q-84 0 -150 29l-84 -258l-47 16l86 271q-40 30 -68.5 92.5t-38.5 129.5q-8 41 -12 103q-4 57 -4 102v109v64q0 94 1 122q0 2 7 115q4 70 16 115
q10 37 34 94q24 53 58 81q81 67 202 67q103 0 174 -47l96 303l49 -17l-104 -323q72 -81 88 -232q9 -93 10 -131q2 -70 2 -147zM424 74q100 0 133 106t33 387v64q0 213 -15 309l-262 -813q38 -53 111 -53zM256 631v-64q0 -266 29 -368l268 837q-37 88 -129 88
q-56 0 -88.5 -26.5t-52.5 -86.5q-11 -39 -17 -97q-10 -100 -10 -283z" />
    <glyph glyph-name="ugrave" unicode="&#xf9;" horiz-adv-x="893" 
d="M455 1389h-58l-227 397h162zM113 256v942h151v-944q0 -85 34 -127.5t93 -42.5q47 0 100 33t99 88v993h149v-1198h-149v113q-46 -68 -113 -104t-141 -36q-88 0 -156 75q-67 74 -67 208z" />
    <glyph glyph-name="uacute" unicode="&#xfa;" horiz-adv-x="893" 
d="M455 1389h-58l123 397h162zM113 256v942h151v-944q0 -85 34 -127.5t93 -42.5q47 0 100 33t99 88v993h149v-1198h-149v113q-46 -68 -113 -104t-141 -36q-88 0 -156 75q-67 74 -67 208z" />
    <glyph glyph-name="ucircumflex" unicode="&#xfb;" horiz-adv-x="893" 
d="M279 1389h-113l156 307h213l151 -307h-108l-152 299zM113 256v942h151v-944q0 -85 34 -127.5t93 -42.5q47 0 100 33t99 88v993h149v-1198h-149v113q-46 -68 -113 -104t-141 -36q-88 0 -156 75q-67 74 -67 208z" />
    <glyph glyph-name="udieresis" unicode="&#xfc;" horiz-adv-x="893" 
d="M711 1389h-185v178h185v-178zM326 1389h-185v178h185v-178zM113 256v942h151v-944q0 -85 34 -127.5t93 -42.5q47 0 100 33t99 88v993h149v-1198h-149v113q-46 -68 -113 -104t-141 -36q-88 0 -156 75q-67 74 -67 208z" />
    <glyph glyph-name="yacute" unicode="&#xfd;" horiz-adv-x="776" 
d="M424 1389h-57l122 397h162zM80 -299h-2v123q119 8 174 40t55 91q0 75 -10 141l-260 1102h151l209 -1001l203 1001h154l-301 -1282q-29 -113 -117 -162t-256 -53z" />
    <glyph glyph-name="thorn" unicode="&#xfe;" horiz-adv-x="874" 
d="M614 545v94q3 299 -44 407q-10 32 -30 45q-17 14 -31 18.5t-38 4.5q-94 0 -201 -119v-790q46 -54 99.5 -87.5t97.5 -33.5q18 0 28.5 1.5t26 7t25.5 18.5t22 34.5t19 56t13.5 81.5t9.5 113t3 149zM270 -385h-149v2105h149v-635q47 68 107.5 104t124.5 36q42 0 74 -9
q31 -7 70 -43t61 -94q59 -146 59 -438v-94q0 -109 -9 -196q-17 -164 -57 -248q-35 -77 -82 -103.5t-106 -26.5q-152 0 -242 140v-498z" />
    <glyph glyph-name="ydieresis" unicode="&#xff;" horiz-adv-x="776" 
d="M680 1389h-184v178h184v-178zM295 1389h-184v178h184v-178zM80 -299h-2v123q119 8 174 40t55 91q0 75 -10 141l-260 1102h151l209 -1001l203 1001h154l-301 -1282q-29 -113 -117 -162t-256 -53z" />
    <glyph glyph-name="Amacron" unicode="&#x100;" horiz-adv-x="973" 
d="M707 1909h-443v114h443v-114zM485 1563l-180 -1014h361zM289 449l-88 -449h-154l340 1720h199l340 -1720h-156l-86 449h-395z" />
    <glyph glyph-name="amacron" unicode="&#x101;" horiz-adv-x="809" 
d="M621 1389h-443v114h443v-114zM555 244v422q-112 -80 -116 -83q-44 -32 -89 -72q-49 -44 -71 -76q-54 -78 -54 -169q0 -87 37 -127q38 -41 84 -41q56 0 115 41q60 42 94 105zM725 0h-141l-19 145q-47 -82 -116.5 -127t-137.5 -45q-92 0 -164 74q-71 74 -71 193q0 49 6 101
q5 44 36 103q16 28 37.5 50t64.5 59q88 75 335 180v10q0 101 -9 174t-22 112t-34.5 61.5t-39 28t-42.5 5.5q-54 0 -94 -36q-53 -48 -60 -193v-6h-156q13 159 92.5 247.5t210.5 88.5q72 0 129 -23t89 -60q33 -38 52 -87q36 -87 36 -203v-576q0 -71 4 -132q5 -73 10 -105z" />
    <glyph glyph-name="Abreve" unicode="&#x102;" horiz-adv-x="973" 
d="M211 2175h111q14 -88 54 -123t110 -35q71 0 111 35t54 123h111q-2 -74 -29 -129.5t-72 -85.5q-75 -51 -175 -51t-175 51q-44 30 -71 85.5t-29 129.5zM485 1563l-180 -1014h361zM289 449l-88 -449h-154l340 1720h199l340 -1720h-156l-86 449h-395z" />
    <glyph glyph-name="abreve" unicode="&#x103;" horiz-adv-x="809" 
d="M125 1657h111q13 -93 56 -127q42 -33 108 -33q67 0 109 33q43 34 56 127h111q-2 -75 -29.5 -131.5t-71.5 -86.5q-77 -50 -175 -50t-175 50q-44 30 -71 86t-29 132zM555 244v422q-112 -80 -116 -83q-44 -32 -89 -72q-49 -44 -71 -76q-54 -78 -54 -169q0 -87 37 -127
q38 -41 84 -41q56 0 115 41q60 42 94 105zM725 0h-141l-19 145q-47 -82 -116.5 -127t-137.5 -45q-92 0 -164 74q-71 74 -71 193q0 49 6 101q5 44 36 103q16 28 37.5 50t64.5 59q88 75 335 180v10q0 101 -9 174t-22 112t-34.5 61.5t-39 28t-42.5 5.5q-54 0 -94 -36
q-53 -48 -60 -193v-6h-156q13 159 92.5 247.5t210.5 88.5q72 0 129 -23t89 -60q33 -38 52 -87q36 -87 36 -203v-576q0 -71 4 -132q5 -73 10 -105z" />
    <glyph glyph-name="Aogonek" unicode="&#x104;" horiz-adv-x="973" 
d="M920 -276v-70q-124 0 -177 12q-52 12 -76.5 41.5t-27.5 85.5q0 70 55 134q54 62 101 85h69q-66 -59 -98.5 -108.5t-32.5 -102.5q-3 -54 46 -66q12 -5 45 -8q4 -1 14 -1.5t15 -0.5q25 -1 67 -1zM485 1563l-180 -1014h361zM289 449l-88 -449h-154l340 1720h199l340 -1720
h-156l-86 449h-395z" />
    <glyph glyph-name="aogonek" unicode="&#x105;" horiz-adv-x="809" 
d="M725 -281v-69q-103 0 -177 13q-54 10 -77.5 39.5t-26.5 86.5q0 69 54 134q55 63 100 85h70q-66 -58 -98.5 -107.5t-32.5 -103.5q0 -25 9 -37q4 -15 38 -29q10 -5 46 -8l28 -3q27 -1 67 -1zM555 244v422q-112 -80 -116 -83q-44 -32 -89 -72q-49 -44 -71 -76
q-54 -78 -54 -169q0 -87 37 -127q38 -41 84 -41q56 0 115 41q60 42 94 105zM725 0h-141l-19 145q-47 -82 -116.5 -127t-137.5 -45q-92 0 -164 74q-71 74 -71 193q0 49 6 101q5 44 36 103q16 28 37.5 50t64.5 59q88 75 335 180v10q0 101 -9 174t-22 112t-34.5 61.5t-39 28
t-42.5 5.5q-54 0 -94 -36q-53 -48 -60 -193v-6h-156q13 159 92.5 247.5t210.5 88.5q72 0 129 -23t89 -60q33 -38 52 -87q36 -87 36 -203v-576q0 -71 4 -132q5 -73 10 -105z" />
    <glyph glyph-name="Cacute" unicode="&#x106;" horiz-adv-x="1032" 
d="M557 1909h-55l123 397h161zM115 500v721q0 193 53 308q99 216 375 216q403 0 403 -524v-70h-145v102q0 167 -54 263q-55 106 -204 106q-129 0 -195 -69q-31 -31 -49 -80q-33 -88 -33 -220v-788q0 -160 53 -262q60 -109 224 -109q146 0 204 108q54 96 54 263v119h145v-84
q0 -191 -51 -311q-88 -212 -352 -216q-194 0 -299 102q-47 47 -77 114q-52 120 -52 311z" />
    <glyph glyph-name="cacute" unicode="&#x107;" horiz-adv-x="815" 
d="M451 1389h-58l123 397h164zM106 455v112v64q0 94 1 122q1 30 8 115q6 72 17 115q10 37 34 94q24 53 58 81q81 67 208 67q133 0 207 -81q33 -36 54 -92q34 -86 42 -235q0 -1 1 -5t1 -5h-149v8q-6 169 -40 238q-35 71 -116 71q-58 0 -91.5 -26.5t-54.5 -86.5
q-11 -34 -19 -97q-11 -98 -11 -283v-64q0 -279 35 -387q34 -106 141 -106q79 0 114 71q34 72 42 248v10h149v-8q-5 -153 -39 -248q-30 -85 -93 -128t-173 -46q-125 0 -189 52q-27 23 -41 37.5t-30 40t-26 57.5q-17 57 -23 87q-9 43 -13 102q-4 60 -4 106z" />
    <glyph glyph-name="Ccircumflex" unicode="&#x108;" horiz-adv-x="1032" 
d="M383 1909h-115l158 307h213l152 -307h-109l-152 299zM115 500v721q0 193 53 308q99 216 375 216q403 0 403 -524v-70h-145v102q0 167 -54 263q-55 106 -204 106q-129 0 -195 -69q-31 -31 -49 -80q-33 -88 -33 -220v-788q0 -160 53 -262q60 -109 224 -109q146 0 204 108
q54 96 54 263v119h145v-84q0 -191 -51 -311q-88 -212 -352 -216q-194 0 -299 102q-47 47 -77 114q-52 120 -52 311z" />
    <glyph glyph-name="ccircumflex" unicode="&#x109;" horiz-adv-x="815" 
d="M274 1389h-112l155 307h213l152 -307h-109l-149 299zM106 455v112v64q0 94 1 122q1 30 8 115q6 72 17 115q10 37 34 94q24 53 58 81q81 67 208 67q133 0 207 -81q33 -36 54 -92q34 -86 42 -235q0 -1 1 -5t1 -5h-149v8q-6 169 -40 238q-35 71 -116 71q-58 0 -91.5 -26.5
t-54.5 -86.5q-11 -34 -19 -97q-11 -98 -11 -283v-64q0 -279 35 -387q34 -106 141 -106q79 0 114 71q34 72 42 248v10h149v-8q-5 -153 -39 -248q-30 -85 -93 -128t-173 -46q-125 0 -189 52q-27 23 -41 37.5t-30 40t-26 57.5q-17 57 -23 87q-9 43 -13 102q-4 60 -4 106z" />
    <glyph glyph-name="Cdotaccent" unicode="&#x10a;" horiz-adv-x="1032" 
d="M623 1909h-185v178h185v-178zM115 500v721q0 193 53 308q99 216 375 216q403 0 403 -524v-70h-145v102q0 167 -54 263q-55 106 -204 106q-129 0 -195 -69q-31 -31 -49 -80q-33 -88 -33 -220v-788q0 -160 53 -262q60 -109 224 -109q146 0 204 108q54 96 54 263v119h145
v-84q0 -191 -51 -311q-88 -212 -352 -216q-194 0 -299 102q-47 47 -77 114q-52 120 -52 311z" />
    <glyph glyph-name="cdotaccent" unicode="&#x10b;" horiz-adv-x="815" 
d="M514 1389h-184v178h184v-178zM106 455v112v64q0 94 1 122q1 30 8 115q6 72 17 115q10 37 34 94q24 53 58 81q81 67 208 67q133 0 207 -81q33 -36 54 -92q34 -86 42 -235q0 -1 1 -5t1 -5h-149v8q-6 169 -40 238q-35 71 -116 71q-58 0 -91.5 -26.5t-54.5 -86.5
q-11 -34 -19 -97q-11 -98 -11 -283v-64q0 -279 35 -387q34 -106 141 -106q79 0 114 71q34 72 42 248v10h149v-8q-5 -153 -39 -248q-30 -85 -93 -128t-173 -46q-125 0 -189 52q-27 23 -41 37.5t-30 40t-26 57.5q-17 57 -23 87q-9 43 -13 102q-4 60 -4 106z" />
    <glyph glyph-name="Ccaron" unicode="&#x10c;" horiz-adv-x="1032" 
d="M557 1909h-55l-209 346h141l96 -238l95 238h143zM115 500v721q0 193 53 308q99 216 375 216q403 0 403 -524v-70h-145v102q0 167 -54 263q-55 106 -204 106q-129 0 -195 -69q-31 -31 -49 -80q-33 -88 -33 -220v-788q0 -160 53 -262q60 -109 224 -109q146 0 204 108
q54 96 54 263v119h145v-84q0 -191 -51 -311q-88 -212 -352 -216q-194 0 -299 102q-47 47 -77 114q-52 120 -52 311z" />
    <glyph glyph-name="ccaron" unicode="&#x10d;" horiz-adv-x="815" 
d="M451 1389h-58l-209 346h144l94 -238l94 238h143zM106 455v112v64q0 94 1 122q1 30 8 115q6 72 17 115q10 37 34 94q24 53 58 81q81 67 208 67q133 0 207 -81q33 -36 54 -92q34 -86 42 -235q0 -1 1 -5t1 -5h-149v8q-6 169 -40 238q-35 71 -116 71q-58 0 -91.5 -26.5
t-54.5 -86.5q-11 -34 -19 -97q-11 -98 -11 -283v-64q0 -279 35 -387q34 -106 141 -106q79 0 114 71q34 72 42 248v10h149v-8q-5 -153 -39 -248q-30 -85 -93 -128t-173 -46q-125 0 -189 52q-27 23 -41 37.5t-30 40t-26 57.5q-17 57 -23 87q-9 43 -13 102q-4 60 -4 106z" />
    <glyph glyph-name="Dcaron" unicode="&#x10e;" horiz-adv-x="1085" 
d="M588 1909h-58l-208 346h143l94 -238l94 238h144zM532 0h-387v1720h387q122 0 209.5 -39t137 -111t72 -161t22.5 -201v-700q0 -508 -441 -508zM299 1599v-1476h233q287 0 287 350v768q0 358 -287 358h-233z" />
    <glyph glyph-name="dcaron" unicode="&#x10f;" horiz-adv-x="866" 
d="M1040 1286l-26 55q30 13 54 39t33 56q17 61 17 106h-127v178h185v-22v-80q0 -43 -1 -74q-2 -47 -6 -71l-10 -57q-4 -21 -10.5 -38t-12 -26t-17.5 -26q-24 -35 -79 -40zM596 205v790q-107 119 -201 119q-23 -1 -37 -4t-31.5 -18.5t-30.5 -45.5q-49 -114 -44 -407v-94
q0 -83 3 -149t9.5 -113t13.5 -81.5t19 -56t22 -34.5t25.5 -18.5t26 -7t28.5 -1.5q44 0 97.5 33.5t99.5 87.5zM745 0h-149v113q-90 -140 -242 -140q-92 0 -147 61q-103 125 -107 513v94q0 297 57 438q25 59 63 94q39 36 70 43q32 9 75 9q64 0 124 -36t107 -104v635h149v-1720
z" />
    <glyph glyph-name="Dcroat" unicode="&#x110;" horiz-adv-x="1128" 
d="M336 829v-706h233q287 0 287 350v768q0 358 -287 358h-233v-675h199v-95h-199zM569 0h-387v829h-139v95h139v796h387q122 0 209.5 -39t137 -111t72 -161t22.5 -201v-700q0 -508 -441 -508z" />
    <glyph glyph-name="dcroat" unicode="&#x111;" horiz-adv-x="893" 
d="M596 1399h-178v86h178v235h149v-235h115v-86h-115v-1399h-149v113q-90 -140 -242 -140q-92 0 -147 61q-103 125 -107 513v94q0 297 57 438q25 59 63 94q39 36 70 43q32 9 75 9q64 0 124 -36t107 -104v314zM596 205v790q-107 119 -201 119q-23 -1 -37 -4t-31.5 -18.5
t-30.5 -45.5q-49 -114 -44 -407v-94q0 -83 3 -149t9.5 -113t13.5 -81.5t19 -56t22 -34.5t25.5 -18.5t26 -7t28.5 -1.5q44 0 97.5 33.5t99.5 87.5z" />
    <glyph glyph-name="Emacron" unicode="&#x112;" horiz-adv-x="795" 
d="M666 1909h-441v114h441v-114zM745 0h-600v1720h600v-121h-446v-653h319v-115h-319v-708h446v-123z" />
    <glyph glyph-name="emacron" unicode="&#x113;" horiz-adv-x="829" 
d="M643 1389h-440v114h440v-114zM258 702h332v47q1 33 0.5 66.5t-1.5 66t-5 63t-10.5 57.5t-17.5 49.5t-26 38.5t-37 25t-49 9q-99 0 -146 -68q-18 -24 -29 -91q-8 -60 -10 -112q-1 -32 -1 -151zM106 553v166q0 238 63 362q44 82 108.5 113.5t158.5 30.5q162 0 232 -114
q71 -115 71 -359q0 -61 -2 -123h-481v-185q0 -228 49 -306q24 -37 53 -50.5t78 -13.5q68 0 113 67q45 68 47 226h139q-12 -139 -48 -228q-66 -166 -249 -166q-127 0 -198 50q-71 52 -103.5 178.5t-30.5 351.5z" />
    <glyph glyph-name="Edotaccent" unicode="&#x116;" horiz-adv-x="795" 
d="M539 1868h-185v178h185v-178zM745 0h-600v1720h600v-121h-446v-653h319v-115h-319v-708h446v-123z" />
    <glyph glyph-name="edotaccent" unicode="&#x117;" horiz-adv-x="829" 
d="M514 1348h-184v178h184v-178zM258 702h332v47q1 33 0.5 66.5t-1.5 66t-5 63t-10.5 57.5t-17.5 49.5t-26 38.5t-37 25t-49 9q-99 0 -146 -68q-18 -24 -29 -91q-8 -60 -10 -112q-1 -32 -1 -151zM106 553v166q0 238 63 362q44 82 108.5 113.5t158.5 30.5q162 0 232 -114
q71 -115 71 -359q0 -61 -2 -123h-481v-185q0 -228 49 -306q24 -37 53 -50.5t78 -13.5q68 0 113 67q45 68 47 226h139q-12 -139 -48 -228q-66 -166 -249 -166q-127 0 -198 50q-71 52 -103.5 178.5t-30.5 351.5z" />
    <glyph glyph-name="Eogonek" unicode="&#x118;" horiz-adv-x="795" 
d="M571 -276v-70q-121 0 -177 12q-54 11 -78.5 41.5t-24.5 85.5q0 69 54 134q53 62 101 85h68q-66 -61 -98.5 -109.5t-32.5 -101.5q0 -54 47 -66q10 -5 46 -8q3 0 7 -0.5t10 -1t11 -0.5q27 -1 67 -1zM745 0h-600v1720h600v-121h-446v-653h319v-115h-319v-708h446v-123z" />
    <glyph glyph-name="eogonek" unicode="&#x119;" horiz-adv-x="829" 
d="M512 -303v-70q-120 0 -175 13q-54 11 -77.5 40.5t-26.5 86.5q0 66 54 131q55 63 100 88h70q-66 -60 -98.5 -109.5t-32.5 -101.5q0 -26 9 -38q6 -22 38 -31q5 -2 45 -6q2 0 6 -0.5t10.5 -1t11.5 -0.5q28 -1 66 -1zM258 702h332v47q1 33 0.5 66.5t-1.5 66t-5 63t-10.5 57.5
t-17.5 49.5t-26 38.5t-37 25t-49 9q-99 0 -146 -68q-18 -24 -29 -91q-8 -60 -10 -112q-1 -32 -1 -151zM106 553v166q0 238 63 362q44 82 108.5 113.5t158.5 30.5q162 0 232 -114q71 -115 71 -359q0 -61 -2 -123h-481v-185q0 -228 49 -306q24 -37 53 -50.5t78 -13.5
q68 0 113 67q45 68 47 226h139q-12 -139 -48 -228q-66 -166 -249 -166q-127 0 -198 50q-71 52 -103.5 178.5t-30.5 351.5z" />
    <glyph glyph-name="Ecaron" unicode="&#x11a;" horiz-adv-x="795" 
d="M473 1909h-55l-209 346h141l96 -238l95 238h141zM745 0h-600v1720h600v-121h-446v-653h319v-115h-319v-708h446v-123z" />
    <glyph glyph-name="ecaron" unicode="&#x11b;" horiz-adv-x="829" 
d="M451 1389h-58l-209 346h144l94 -238l94 238h143zM258 702h332v47q1 33 0.5 66.5t-1.5 66t-5 63t-10.5 57.5t-17.5 49.5t-26 38.5t-37 25t-49 9q-99 0 -146 -68q-18 -24 -29 -91q-8 -60 -10 -112q-1 -32 -1 -151zM106 553v166q0 238 63 362q44 82 108.5 113.5t158.5 30.5
q162 0 232 -114q71 -115 71 -359q0 -61 -2 -123h-481v-185q0 -228 49 -306q24 -37 53 -50.5t78 -13.5q68 0 113 67q45 68 47 226h139q-12 -139 -48 -228q-66 -166 -249 -166q-127 0 -198 50q-71 52 -103.5 178.5t-30.5 351.5z" />
    <glyph glyph-name="Gcircumflex" unicode="&#x11c;" horiz-adv-x="1087" 
d="M397 1909h-112l155 307h213l154 -307h-111l-149 299zM115 481v729q0 535 452 535q216 -4 300 -129q57 -81 78 -197q20 -108 20 -248v-12h-154v12v15q0 84 -1 109q-2 46 -7 99q-6 63 -22 95q-14 32 -42 67q-49 66 -174 66q-170 0 -238 -107q-61 -96 -61 -239v-860
q0 -128 53 -221q62 -101 234 -101q154 0 219 106q51 84 51 216v291h-211v114h363v-821h-68l-45 168q-33 -88 -120 -142q-88 -53 -191 -53q-248 0 -358 159q-37 57 -60 146q-7 33 -12 75q-2 22 -5 67q-1 17 -1 61z" />
    <glyph glyph-name="gcircumflex" unicode="&#x11d;" horiz-adv-x="881" 
d="M305 1389h-112l155 307h213l154 -307h-111l-149 299zM623 776q0 79 -19 155q-12 46 -32 84t-58.5 63.5t-85.5 25.5q-62 0 -99.5 -35t-64.5 -95q-14 -37 -20 -73q-13 -85 -13 -125q0 -80 19 -151q16 -69 60.5 -112t117.5 -44q47 0 86 22t58 56q20 35 32 78q19 71 19 151z
M524 2l-215 47q-49 -37 -99 -111q-50 -76 -50 -128q-4 -32 21 -53t63 -31q19 -7 55 -9l53 -3q13 -1 54 -1h12q264 0 264 129q0 72 -37 109t-121 51zM213 211q-4 -25 27 -35q30 -10 166 -39l63 -12q160 -31 252 -85q102 -60 102 -169q0 -144 -122 -205q-67 -37 -151 -49
q-70 -10 -134 -10q-400 0 -400 157q0 100 65 179q67 78 161 127q-14 1 -50 11q-30 9 -74 29q-42 21 -42 40q0 44 50 131q14 26 43 68q18 26 20 28q7 7 19 24l11 17q-71 62 -106 164q-33 102 -33 211q-1 58 10 116t37.5 115.5t65 101t98.5 71t133 28.5q94 0 157 -48
q63 -46 126 -139q29 53 71 107q50 63 111 76v-146q-38 -6 -79 -32t-73 -62q37 -105 37 -180q0 -92 -19 -169.5t-59 -140t-109 -98t-161 -35.5q-86 0 -143 25q-57 -106 -70 -172z" />
    <glyph glyph-name="Gbreve" unicode="&#x11e;" horiz-adv-x="1087" 
d="M268 2175h111q14 -88 54 -123t110 -35q71 0 111.5 35t54.5 123h110q-2 -74 -29 -129.5t-71 -85.5q-75 -51 -175 -51t-175 51q-44 30 -71.5 86t-29.5 129zM115 481v729q0 535 452 535q216 -4 300 -129q57 -81 78 -197q20 -108 20 -248v-12h-154v12v15q0 84 -1 109
q-2 46 -7 99q-6 63 -22 95q-14 32 -42 67q-49 66 -174 66q-170 0 -238 -107q-61 -96 -61 -239v-860q0 -128 53 -221q62 -101 234 -101q154 0 219 106q51 84 51 216v291h-211v114h363v-821h-68l-45 168q-33 -88 -120 -142q-88 -53 -191 -53q-248 0 -358 159q-37 57 -60 146
q-7 33 -12 75q-2 22 -5 67q-1 17 -1 61z" />
    <glyph glyph-name="gbreve" unicode="&#x11f;" horiz-adv-x="881" 
d="M176 1657h111q13 -93 56 -127q42 -33 108 -33q67 0 109 33q43 34 56 127h111q-2 -76 -29 -132t-71 -86q-77 -50 -175 -50q-99 0 -176 50q-44 30 -71 86t-29 132zM623 776q0 79 -19 155q-12 46 -32 84t-58.5 63.5t-85.5 25.5q-62 0 -99.5 -35t-64.5 -95q-14 -37 -20 -73
q-13 -85 -13 -125q0 -80 19 -151q16 -69 60.5 -112t117.5 -44q47 0 86 22t58 56q20 35 32 78q19 71 19 151zM524 2l-215 47q-49 -37 -99 -111q-50 -76 -50 -128q-4 -32 21 -53t63 -31q19 -7 55 -9l53 -3q13 -1 54 -1h12q264 0 264 129q0 72 -37 109t-121 51zM213 211
q-4 -25 27 -35q30 -10 166 -39l63 -12q160 -31 252 -85q102 -60 102 -169q0 -144 -122 -205q-67 -37 -151 -49q-70 -10 -134 -10q-400 0 -400 157q0 100 65 179q67 78 161 127q-14 1 -50 11q-30 9 -74 29q-42 21 -42 40q0 44 50 131q14 26 43 68q18 26 20 28q7 7 19 24
l11 17q-71 62 -106 164q-33 102 -33 211q-1 58 10 116t37.5 115.5t65 101t98.5 71t133 28.5q94 0 157 -48q63 -46 126 -139q29 53 71 107q50 63 111 76v-146q-38 -6 -79 -32t-73 -62q37 -105 37 -180q0 -92 -19 -169.5t-59 -140t-109 -98t-161 -35.5q-86 0 -143 25
q-57 -106 -70 -172z" />
    <glyph glyph-name="Gdotaccent" unicode="&#x120;" horiz-adv-x="1087" 
d="M637 1909h-184v178h184v-178zM115 481v729q0 535 452 535q216 -4 300 -129q57 -81 78 -197q20 -108 20 -248v-12h-154v12v15q0 84 -1 109q-2 46 -7 99q-6 63 -22 95q-14 32 -42 67q-49 66 -174 66q-170 0 -238 -107q-61 -96 -61 -239v-860q0 -128 53 -221
q62 -101 234 -101q154 0 219 106q51 84 51 216v291h-211v114h363v-821h-68l-45 168q-33 -88 -120 -142q-88 -53 -191 -53q-248 0 -358 159q-37 57 -60 146q-7 33 -12 75q-2 22 -5 67q-1 17 -1 61z" />
    <glyph glyph-name="gdotaccent" unicode="&#x121;" horiz-adv-x="881" 
d="M545 1389h-185v178h185v-178zM623 776q0 79 -19 155q-12 46 -32 84t-58.5 63.5t-85.5 25.5q-62 0 -99.5 -35t-64.5 -95q-14 -37 -20 -73q-13 -85 -13 -125q0 -80 19 -151q16 -69 60.5 -112t117.5 -44q47 0 86 22t58 56q20 35 32 78q19 71 19 151zM524 2l-215 47
q-49 -37 -99 -111q-50 -76 -50 -128q-4 -32 21 -53t63 -31q19 -7 55 -9l53 -3q13 -1 54 -1h12q264 0 264 129q0 72 -37 109t-121 51zM213 211q-4 -25 27 -35q30 -10 166 -39l63 -12q160 -31 252 -85q102 -60 102 -169q0 -144 -122 -205q-67 -37 -151 -49q-70 -10 -134 -10
q-400 0 -400 157q0 100 65 179q67 78 161 127q-14 1 -50 11q-30 9 -74 29q-42 21 -42 40q0 44 50 131q14 26 43 68q18 26 20 28q7 7 19 24l11 17q-71 62 -106 164q-33 102 -33 211q-1 58 10 116t37.5 115.5t65 101t98.5 71t133 28.5q94 0 157 -48q63 -46 126 -139
q29 53 71 107q50 63 111 76v-146q-38 -6 -79 -32t-73 -62q37 -105 37 -180q0 -92 -19 -169.5t-59 -140t-109 -98t-161 -35.5q-86 0 -143 25q-57 -106 -70 -172z" />
    <glyph glyph-name="uni0122" unicode="&#x122;" horiz-adv-x="1087" 
d="M502 -625l-29 56q33 12 56.5 37.5t32.5 57.5q18 65 18 105h-127v179h184v-23v-64q0 -34 -1 -59q0 -9 -0.5 -29t-1.5 -27q-3 -68 -13 -98q-19 -66 -26 -75q-37 -53 -83 -58q-2 0 -5 -1q-2 -1 -3 -1h-2zM115 481v729q0 535 452 535q216 -4 300 -129q57 -81 78 -197
q20 -108 20 -248v-12h-154v12v15q0 84 -1 109q-2 46 -7 99q-6 63 -22 95q-14 32 -42 67q-49 66 -174 66q-170 0 -238 -107q-61 -96 -61 -239v-860q0 -128 53 -221q62 -101 234 -101q154 0 219 106q51 84 51 216v291h-211v114h363v-821h-68l-45 168q-33 -88 -120 -142
q-88 -53 -191 -53q-248 0 -358 159q-37 57 -60 146q-7 33 -12 75q-2 22 -5 67q-1 17 -1 61z" />
    <glyph glyph-name="uni0123" unicode="&#x123;" horiz-adv-x="930" 
d="M502 1726l26 -55q-61 -19 -88 -95q-18 -60 -18 -106h129v-178h-186v23q0 62 1 79q1 10 1.5 35.5t0.5 38.5q2 55 5 71l9 57q7 47 40 90q25 35 80 40zM623 776q0 79 -19 155q-12 46 -32 84t-58.5 63.5t-85.5 25.5q-62 0 -99.5 -35t-64.5 -95q-14 -37 -20 -73
q-13 -85 -13 -125q0 -80 19 -151q16 -69 60.5 -112t117.5 -44q47 0 86 22t58 56q20 35 32 78q19 71 19 151zM524 2l-215 47q-49 -37 -99 -111q-50 -76 -50 -128q-4 -32 21 -53t63 -31q19 -7 55 -9l53 -3q13 -1 54 -1h12q264 0 264 129q0 72 -37 109t-121 51zM213 211
q-4 -25 27 -35q30 -10 166 -39l63 -12q160 -31 252 -85q102 -60 102 -169q0 -144 -122 -205q-67 -37 -151 -49q-70 -10 -134 -10q-400 0 -400 157q0 100 65 179q67 78 161 127q-14 1 -50 11q-30 9 -74 29q-42 21 -42 40q0 44 50 131q14 26 43 68q18 26 20 28q7 7 19 24
l11 17q-71 62 -106 164q-33 102 -33 211q-1 58 10 116t37.5 115.5t65 101t98.5 71t133 28.5q94 0 157 -48q63 -46 126 -139q29 53 71 107q50 63 111 76v-146q-38 -6 -79 -32t-73 -62q37 -105 37 -180q0 -92 -19 -169.5t-59 -140t-109 -98t-161 -35.5q-86 0 -143 25
q-57 -106 -70 -172z" />
    <glyph glyph-name="Hcircumflex" unicode="&#x124;" horiz-adv-x="1126" 
d="M416 1909h-115l158 307h213l151 -307h-108l-152 299zM299 0h-154v1720h154v-778h528v778h154v-1720h-154v836h-528v-836z" />
    <glyph glyph-name="hcircumflex" unicode="&#x125;" horiz-adv-x="860" 
d="M287 1884h-115l158 307h213l151 -307h-108l-152 299zM270 0h-149v1720h149v-635q44 68 111 104t141 36q91 0 159 -74q67 -73 67 -209v-942h-152v934q0 180 -127 180q-46 0 -104 -35q-55 -34 -95 -88v-991z" />
    <glyph glyph-name="Hbar" unicode="&#x126;" horiz-adv-x="1118" 
d="M293 1331v-389h528v389h-528zM293 0h-154v1331h-39v94h39v295h154v-295h528v295h154v-295h39v-94h-39v-1331h-154v836h-528v-836z" />
    <glyph glyph-name="hbar" unicode="&#x127;" horiz-adv-x="911" 
d="M305 0h-151v1403h-123v94h123v223h149v-223h168v-94h-168v-318q46 69 110.5 104.5t135.5 35.5q91 0 162 -74t71 -209v-942h-151v934q0 74 -35 113.5t-87 39.5q-47 0 -102.5 -26.5t-101.5 -69.5v-991z" />
    <glyph glyph-name="Itilde" unicode="&#x128;" horiz-adv-x="444" 
d="M59 1919h-114q0 40 17 85q11 31 30 50q19 22 56.5 37.5t82.5 15.5q28 0 95 -38q67 -37 89 -37q30 0 46 14.5t22 50.5h115v-12q-14 -96 -68 -141q-37 -35 -116 -35q-38 0 -104 39q-65 39 -89 39q-30 0 -44 -15t-18 -53zM297 0h-152v1720h152v-1720z" />
    <glyph glyph-name="itilde" unicode="&#x129;" horiz-adv-x="406" 
d="M45 1401h-115q0 35 18 82q34 98 169 104q27 0 95 -38t89 -38q31 0 46 14.5t22 53.5h114v-14q-4 -29 -7 -43.5t-19 -45.5t-42 -52q-37 -35 -115 -35q-37 0 -104 38q-64 39 -90 39q-27 0 -42 -15t-19 -50zM283 0h-152v1198h152v-1198z" />
    <glyph glyph-name="Imacron" unicode="&#x12a;" horiz-adv-x="444" 
d="M442 1909h-442v114h442v-114zM297 0h-152v1720h152v-1720z" />
    <glyph glyph-name="imacron" unicode="&#x12b;" horiz-adv-x="406" 
d="M428 1389h-440v114h440v-114zM283 0h-152v1198h152v-1198z" />
    <glyph glyph-name="Ibreve" unicode="&#x12c;" horiz-adv-x="444" 
d="M-55 2175h110q15 -93 58 -125q43 -33 108 -33t109 33q43 33 55 125h113q-4 -74 -31.5 -129.5t-71.5 -85.5q-75 -51 -175 -51t-175 51q-92 63 -100 215zM297 0h-152v1720h152v-1720z" />
    <glyph glyph-name="ibreve" unicode="&#x12d;" horiz-adv-x="406" 
d="M-70 1657h113q12 -94 55 -127q44 -33 108 -33q66 0 109 33t58 127h110q-7 -155 -100 -218q-77 -50 -175 -50t-175 50q-44 30 -71.5 86t-31.5 132zM283 0h-152v1198h152v-1198z" />
    <glyph glyph-name="Iogonek" unicode="&#x12e;" horiz-adv-x="444" 
d="M311 -276v-70q-123 0 -176 12q-52 11 -77 41.5t-25 85.5q0 69 54 134q53 62 99 85h70q-66 -59 -98.5 -108.5t-32.5 -102.5q0 -28 7 -37q5 -18 40 -29q10 -5 45 -8q2 0 6 -0.5t10 -1t11 -0.5q27 -1 67 -1zM297 0h-152v1720h152v-1720z" />
    <glyph glyph-name="iogonek" unicode="&#x12f;" horiz-adv-x="406" 
d="M299 -276v-70q-121 0 -177 12q-54 12 -77.5 41t-26.5 86q0 69 54 134q55 63 100 85h70q-66 -58 -98.5 -107.5t-32.5 -103.5q0 -25 9 -37q5 -19 38 -29q10 -5 46 -8q3 0 7 -0.5t10 -1t11 -0.5q27 -1 67 -1zM283 1473h-152v178h152v-178zM283 0h-152v1198h152v-1198z" />
    <glyph glyph-name="Idotaccent" unicode="&#x130;" horiz-adv-x="444" 
d="M313 1909h-184v178h184v-178zM297 0h-152v1720h152v-1720z" />
    <glyph glyph-name="dotlessi" unicode="&#x131;" horiz-adv-x="406" 
d="M283 0h-152v1198h152v-1198z" />
    <glyph glyph-name="IJ" unicode="&#x132;" horiz-adv-x="1010" 
d="M535 0h-78v115q60 0 78 1q29 2 60 6q32 5 46 11t30 22q4 4 7 7.5t5.5 8t4.5 7.5t4 9.5t2.5 9t2.5 10.5t2.5 10.5t2 13.5t2.5 14q9 45 9 165v1310h151v-1310q0 -83 -4 -130q-10 -130 -48 -182q-73 -105 -277 -98zM297 0h-152v1720h152v-1720z" />
    <glyph glyph-name="ij" unicode="&#x133;" horiz-adv-x="834" 
d="M702 1473h-149v180h149v-180zM360 -311v106q13 0 27 -0.5t21 -1t10 -0.5q84 -2 117 71q10 15 13 43q5 41 5 75v1216h149v-1243q0 -274 -260 -274q-39 0 -82 8zM283 1473h-152v178h152v-178zM283 0h-152v1198h152v-1198z" />
    <glyph glyph-name="Jcircumflex" unicode="&#x134;" horiz-adv-x="565" 
d="M162 1909h-115l158 307h213l151 -307h-108l-152 299zM90 0h-78v115q60 0 79 1q27 1 59 6q33 5 47 11t30 22t22 34t12 56q7 45 7 165v1310h152v-1310q0 -78 -3 -130q-7 -125 -50 -182q-77 -105 -277 -98z" />
    <glyph glyph-name="jcircumflex" unicode="&#x135;" horiz-adv-x="410" 
d="M20 1389h-112l155 307h213l154 -307h-111l-149 299zM-72 -311v106q12 0 25.5 -0.5t20.5 -1t10 -0.5q83 0 119 71q10 15 13 43q5 41 5 75v1216h149v-1243q0 -274 -262 -274q-37 0 -80 8z" />
    <glyph glyph-name="uni0136" unicode="&#x136;" horiz-adv-x="981" 
d="M526 -598l-26 55q67 26 88 96q18 57 18 105h-129v178h187v-22v-63q0 -34 -1 -59q-2 -42 -4 -57l-5 -50q-3 -33 -7 -47q-13 -59 -27 -75q-38 -55 -81 -59q-12 -2 -13 -2zM299 0h-154v1720h154v-905l459 905h155l-356 -708l438 -1012h-161l-367 909l-168 -303v-606z" />
    <glyph glyph-name="uni0137" unicode="&#x137;" horiz-adv-x="829" 
d="M424 -598l-29 55q67 26 88 96q19 52 19 105h-127v178h184v-22v-63q0 -34 -1 -59q0 -10 -0.5 -30t-1.5 -27l-4 -50q-3 -27 -8 -47q-20 -65 -27 -75q-34 -54 -83 -59q-2 0 -5 -1q-2 -1 -3 -1h-2zM270 0h-149v1720h149v-1089l373 567h170l-287 -455l285 -743h-158l-233 653
l-150 -184v-469z" />
    <glyph glyph-name="kgreenlandic" unicode="&#x138;" horiz-adv-x="881" 
d="M270 0h-149v1198h149v-598l373 598h172l-295 -481l295 -717h-162l-241 618l-142 -198v-420z" />
    <glyph glyph-name="Lacute" unicode="&#x139;" horiz-adv-x="772" 
d="M489 1909h-55l123 397h162zM778 0h-633v1720h154v-1597h479v-123z" />
    <glyph glyph-name="lacute" unicode="&#x13a;" horiz-adv-x="442" 
d="M250 1884h-57l122 397h162zM297 0h-152v1720h152v-1720z" />
    <glyph glyph-name="uni013B" unicode="&#x13b;" horiz-adv-x="772" 
d="M420 -598l-29 55q67 26 88 96q19 60 19 105h-127v178h184v-22v-63q0 -34 -1 -59q0 -10 -0.5 -30t-1.5 -27l-4 -50q-3 -27 -8 -47q-20 -65 -27 -75q-34 -54 -83 -59q-2 0 -5 -1q-2 -1 -3 -1h-2zM778 0h-633v1720h154v-1597h479v-123z" />
    <glyph glyph-name="uni013C" unicode="&#x13c;" horiz-adv-x="442" 
d="M176 -598l-26 55q66 26 87 96q19 52 19 105h-129v178h186v-22v-63q0 -34 -1 -59l-3 -57l-5 -50q-3 -33 -7 -47q-13 -59 -27 -75q-19 -28 -36.5 -42t-45.5 -17q-10 -2 -12 -2zM297 0h-152v1720h152v-1720z" />
    <glyph glyph-name="Lcaron" unicode="&#x13d;" horiz-adv-x="772" 
d="M1071 1311l-27 55q31 9 54.5 35.5t33.5 59.5q19 54 19 106h-127v178h184v-23q0 -64 -1 -81q-1 -9 -1.5 -34.5t-0.5 -37.5q-2 -54 -5 -71q-4 -22 -9 -57q-7 -44 -40 -91q-26 -35 -80 -39zM778 0h-633v1720h154v-1597h479v-123z" />
    <glyph glyph-name="lcaron" unicode="&#x13e;" horiz-adv-x="442" 
d="M590 1286l-27 55q60 24 83.5 84t23.5 117h-129v178h184v-22v-80q0 -43 -1 -74q-2 -54 -5 -71q-1 -3 -4.5 -23.5t-6.5 -33.5q-4 -21 -10.5 -38t-12 -26t-17.5 -26q-24 -35 -78 -40zM297 0h-152v1720h152v-1720z" />
    <glyph glyph-name="Ldot" unicode="&#x13f;" horiz-adv-x="772" 
d="M684 782h-184v181h184v-181zM778 0h-633v1720h154v-1597h479v-123z" />
    <glyph glyph-name="ldot" unicode="&#x140;" horiz-adv-x="889" 
d="M758 705h-185v178h185v-178zM297 0h-152v1720h152v-1720z" />
    <glyph glyph-name="Lslash" unicode="&#x141;" horiz-adv-x="827" 
d="M815 0h-633v858l-139 -51v115l139 53v745h154v-690l250 96v-114l-250 -97v-792h479v-123z" />
    <glyph glyph-name="lslash" unicode="&#x142;" horiz-adv-x="530" 
d="M334 0h-152v872l-139 -65v115l139 65v733h152v-659l135 65v-114l-135 -66v-946z" />
    <glyph glyph-name="Nacute" unicode="&#x143;" horiz-adv-x="1083" 
d="M569 1909h-55l123 397h162zM276 0h-131v1720h117l547 -1362v1362h129v-1720h-115l-547 1333v-1333z" />
    <glyph glyph-name="nacute" unicode="&#x144;" horiz-adv-x="860" 
d="M463 1389h-57l122 397h162zM270 0h-149v1198h149v-113q46 68 113.5 104t140.5 36q88 0 156 -75q68 -76 68 -210v-940h-152v944q0 85 -34 127.5t-93 42.5q-47 0 -100.5 -32.5t-98.5 -88.5v-993z" />
    <glyph glyph-name="uni0145" unicode="&#x145;" horiz-adv-x="1083" 
d="M498 -598l-27 55q67 26 88 96q19 60 19 105h-129v178h186v-22v-63q0 -34 -1 -59l-3 -57l-5 -50q-3 -27 -8 -47q-12 -53 -27 -75q-34 -54 -81 -59q-10 -2 -12 -2zM276 0h-131v1720h117l547 -1362v1362h129v-1720h-115l-547 1333v-1333z" />
    <glyph glyph-name="uni0146" unicode="&#x146;" horiz-adv-x="860" 
d="M389 -598l-27 55q67 26 88 96q19 52 19 105h-127v178h184v-22v-63q0 -34 -1 -59l-3 -57l-5 -50q-3 -33 -7 -47q-13 -59 -27 -75q-19 -28 -36.5 -42t-45.5 -17q-10 -2 -12 -2zM270 0h-149v1198h149v-113q46 68 113.5 104t140.5 36q88 0 156 -75q68 -76 68 -210v-940h-152
v944q0 85 -34 127.5t-93 42.5q-47 0 -100.5 -32.5t-98.5 -88.5v-993z" />
    <glyph glyph-name="Ncaron" unicode="&#x147;" horiz-adv-x="1083" 
d="M569 1909h-57l-209 346h143l95 -238l96 238h141zM276 0h-131v1720h117l547 -1362v1362h129v-1720h-115l-547 1333v-1333z" />
    <glyph glyph-name="ncaron" unicode="&#x148;" horiz-adv-x="860" 
d="M463 1389h-57l-209 346h143l94 -238l94 238h144zM270 0h-149v1198h149v-113q46 68 113.5 104t140.5 36q88 0 156 -75q68 -76 68 -210v-940h-152v944q0 85 -34 127.5t-93 42.5q-47 0 -100.5 -32.5t-98.5 -88.5v-993z" />
    <glyph glyph-name="Omacron" unicode="&#x14c;" 
d="M774 1909h-440v114h440v-114zM115 500v721q0 188 58 308q102 216 380 216q196 0 299 -101q139 -134 139 -423v-721q0 -527 -438 -527t-438 527zM840 465v788q0 369 -287 369t-287 -369v-788q0 -371 287 -371t287 371z" />
    <glyph glyph-name="omacron" unicode="&#x14d;" horiz-adv-x="846" 
d="M643 1389h-440v114h440v-114zM106 467v100v64q0 94 1 122q0 2 7 115q4 70 16 115q10 37 34 94q24 53 58 81q81 67 200 67q66 0 118 -20q53 -19 85.5 -47.5t55.5 -80.5q25 -54 35 -94q12 -45 16 -115l6 -115q1 -28 1 -122v-64v-100q0 -35 -3 -96q-3 -54 -8 -93
q-4 -29 -17 -82q-10 -47 -26 -76q-17 -28 -39 -59q-33 -43 -87.5 -63.5t-135.5 -24.5q-88 0 -168 39q-44 24 -95 108q-16 29 -26 76q-13 62 -16 82q-4 33 -9 93q-3 61 -3 96zM256 631v-64q0 -281 33 -387t134 -106t134 106t33 387v64q0 72 -2 158q-5 156 -26 222
q-18 59 -51 86t-88 27t-87.5 -27t-52.5 -86q-11 -39 -17 -97q-10 -100 -10 -283z" />
    <glyph glyph-name="Obreve" unicode="&#x14e;" 
d="M276 2175h111q14 -92 57 -125q44 -33 108 -33q66 0 109 33q45 34 58 125h110q-4 -74 -31 -129.5t-71 -85.5q-75 -51 -174 -51t-174 51q-92 63 -103 215zM115 500v721q0 188 58 308q102 216 380 216q196 0 299 -101q139 -134 139 -423v-721q0 -527 -438 -527t-438 527z
M840 465v788q0 369 -287 369t-287 -369v-788q0 -371 287 -371t287 371z" />
    <glyph glyph-name="obreve" unicode="&#x14f;" horiz-adv-x="846" 
d="M147 1657h111q13 -93 56 -127q42 -33 108 -33q67 0 109 33t57 127h110q-2 -76 -29 -132t-71 -86q-77 -50 -175 -50t-175 50q-95 65 -101 218zM106 467v100v64q0 94 1 122q0 2 7 115q4 70 16 115q10 37 34 94q24 53 58 81q81 67 200 67q66 0 118 -20q53 -19 85.5 -47.5
t55.5 -80.5q25 -54 35 -94q12 -45 16 -115l6 -115q1 -28 1 -122v-64v-100q0 -35 -3 -96q-3 -54 -8 -93q-4 -29 -17 -82q-10 -47 -26 -76q-17 -28 -39 -59q-33 -43 -87.5 -63.5t-135.5 -24.5q-88 0 -168 39q-44 24 -95 108q-16 29 -26 76q-13 62 -16 82q-4 33 -9 93
q-3 61 -3 96zM256 631v-64q0 -281 33 -387t134 -106t134 106t33 387v64q0 72 -2 158q-5 156 -26 222q-18 59 -51 86t-88 27t-87.5 -27t-52.5 -86q-11 -39 -17 -97q-10 -100 -10 -283z" />
    <glyph glyph-name="Ohungarumlaut" unicode="&#x150;" 
d="M698 1909h-59l106 311h160zM467 1909h-59l106 311h160zM115 500v721q0 188 58 308q102 216 380 216q196 0 299 -101q139 -134 139 -423v-721q0 -527 -438 -527t-438 527zM840 465v788q0 369 -287 369t-287 -369v-788q0 -371 287 -371t287 371z" />
    <glyph glyph-name="ohungarumlaut" unicode="&#x151;" horiz-adv-x="846" 
d="M567 1389h-57l104 313h160zM338 1389h-59l104 313h162zM106 467v100v64q0 94 1 122q0 2 7 115q4 70 16 115q10 37 34 94q24 53 58 81q81 67 200 67q66 0 118 -20q53 -19 85.5 -47.5t55.5 -80.5q25 -54 35 -94q12 -45 16 -115l6 -115q1 -28 1 -122v-64v-100q0 -35 -3 -96
q-3 -54 -8 -93q-4 -29 -17 -82q-10 -47 -26 -76q-17 -28 -39 -59q-33 -43 -87.5 -63.5t-135.5 -24.5q-88 0 -168 39q-44 24 -95 108q-16 29 -26 76q-13 62 -16 82q-4 33 -9 93q-3 61 -3 96zM256 631v-64q0 -281 33 -387t134 -106t134 106t33 387v64q0 72 -2 158
q-5 156 -26 222q-18 59 -51 86t-88 27t-87.5 -27t-52.5 -86q-11 -39 -17 -97q-10 -100 -10 -283z" />
    <glyph glyph-name="OE" unicode="&#x152;" horiz-adv-x="1499" 
d="M555 121h287v1478h-287q-289 0 -289 -346v-788q0 -340 289 -344zM115 500v721q0 499 440 499h887v-121h-449v-653h320v-115h-320v-708h449v-123h-887q-440 0 -440 500z" />
    <glyph glyph-name="oe" unicode="&#x153;" horiz-adv-x="1331" 
d="M743 702h332v56v52q0 28 -1 51l-3 52q-10 83 -13 92q-16 52 -32 72q-36 47 -96 47q-49 0 -97 -23q-31 -15 -56 -66q-13 -24 -25 -106q-4 -24 -6 -68l-2 -75q-1 -20 -1 -84zM258 631v-64q0 -281 33 -387t134 -106t134 106t33 387v64q0 72 -2 158q-5 156 -26 222
q-18 59 -51 86t-88 27t-87.5 -27t-52.5 -86q-11 -39 -17 -97q-10 -100 -10 -283zM109 467v100v64q0 94 1 122l6 115q4 70 16 115q10 37 34 94q24 53 57 81q80 67 203 67q169 0 242 -121q42 65 103.5 93t152.5 28q158 0 229.5 -113.5t71.5 -359.5q0 -61 -2 -123h-480v-185
q0 -231 47 -306q24 -37 54 -50.5t78 -13.5q64 0 111 68q47 69 48 225h140q-14 -138 -49 -227q-65 -167 -248 -167q-182 0 -256 113q-74 -113 -242 -113q-89 0 -169 39q-44 24 -95 108q-16 29 -26 76q-13 62 -16 82q-5 39 -8 93q-3 61 -3 96z" />
    <glyph glyph-name="Racute" unicode="&#x154;" horiz-adv-x="1067" 
d="M600 1909h-55l123 397h161zM299 1599v-636h305q133 0 178 99q39 81 39 218q0 115 -25 185q-45 134 -192 134h-305zM299 0h-154v1720h459q170 0 260 -87q111 -114 111 -357q0 -329 -242 -418l266 -858h-161l-250 840h-289v-840z" />
    <glyph glyph-name="racute" unicode="&#x155;" horiz-adv-x="535" 
d="M348 1389h-55l123 397h162zM270 0h-149v1198h149v-170q28 93 101 140q73 46 151 49v-150q-14 2 -22 2q-230 0 -230 -174v-895z" />
    <glyph glyph-name="uni0156" unicode="&#x156;" horiz-adv-x="1067" 
d="M528 -598l-26 55q67 26 88 96q18 57 18 105h-129v178h187v-22v-63q0 -34 -1 -59q-2 -42 -4 -57l-5 -50q-3 -33 -7 -47q-13 -59 -27 -75q-38 -55 -81 -59q-12 -2 -13 -2zM299 1599v-636h305q133 0 178 99q39 81 39 218q0 115 -25 185q-45 134 -192 134h-305zM299 0h-154
v1720h459q170 0 260 -87q111 -114 111 -357q0 -329 -242 -418l266 -858h-161l-250 840h-289v-840z" />
    <glyph glyph-name="uni0157" unicode="&#x157;" horiz-adv-x="535" 
d="M276 -598l-26 55q67 26 88 96q18 57 18 105h-129v178h187v-22v-63q0 -34 -1 -59l-3 -57q-2 -21 -6 -50q-3 -33 -7 -47q-13 -59 -27 -75q-38 -55 -81 -59q-10 -2 -13 -2zM270 0h-149v1198h149v-170q28 93 101 140q73 46 151 49v-150q-14 2 -22 2q-230 0 -230 -174v-895z
" />
    <glyph glyph-name="Rcaron" unicode="&#x158;" horiz-adv-x="1067" 
d="M600 1909h-55l-209 346h141l96 -238l95 238h143zM299 1599v-636h305q133 0 178 99q39 81 39 218q0 115 -25 185q-45 134 -192 134h-305zM299 0h-154v1720h459q170 0 260 -87q111 -114 111 -357q0 -329 -242 -418l266 -858h-161l-250 840h-289v-840z" />
    <glyph glyph-name="rcaron" unicode="&#x159;" horiz-adv-x="535" 
d="M348 1389h-55l-209 346h141l97 -238l94 238h141zM270 0h-149v1198h149v-170q28 93 101 140q73 46 151 49v-150q-14 2 -22 2q-230 0 -230 -174v-895z" />
    <glyph glyph-name="Sacute" unicode="&#x15a;" horiz-adv-x="948" 
d="M512 1909h-55l123 397h161zM68 416l135 39q17 -149 84 -247q78 -114 223 -114q117 0 180.5 65.5t63.5 184.5q0 98 -59 190q-60 95 -173 214l-268 282q-93 98 -137.5 178t-44.5 166q0 168 111 269q113 102 286 102q168 0 271.5 -95t136.5 -278l4 -16l-129 -39l-2 12
q-21 128 -93 211q-70 82 -188 82q-117 0 -183.5 -58.5t-66.5 -168.5q0 -66 35 -131t106 -144l252 -274l50 -55q40 -43 52 -58q7 -7 47 -54q34 -40 46 -61l35 -58q25 -39 32 -66q25 -75 25 -138q0 -184 -114 -284q-113 -99 -293 -99q-92 0 -167.5 35t-126.5 97t-83.5 140.5
t-46.5 170.5z" />
    <glyph glyph-name="sacute" unicode="&#x15b;" horiz-adv-x="750" 
d="M410 1389h-56l123 397h162zM57 299l115 41q28 -90 84 -168q64 -90 152 -90q76 0 116.5 46.5t40.5 129.5q0 117 -205 297l-88 76q-98 86 -148 154q-50 70 -50 153q0 135 82 210t219 75q132 0 205 -95q71 -89 102 -208l-133 -41q-11 55 -30 105q-20 51 -59 90
q-40 40 -93 40q-67 0 -106.5 -44.5t-39.5 -117.5q0 -57 37 -111t113 -118l96 -84q38 -33 69 -62q28 -24 63 -64q39 -43 56 -75q48 -82 52 -176q0 -136 -85 -212q-86 -77 -221 -77q-132 0 -221 92q-88 93 -123 234z" />
    <glyph glyph-name="Scircumflex" unicode="&#x15c;" horiz-adv-x="948" 
d="M336 1909h-115l158 307h213l151 -307h-108l-152 299zM68 416l135 39q17 -149 84 -247q78 -114 223 -114q117 0 180.5 65.5t63.5 184.5q0 98 -59 190q-60 95 -173 214l-268 282q-93 98 -137.5 178t-44.5 166q0 168 111 269q113 102 286 102q168 0 271.5 -95t136.5 -278
l4 -16l-129 -39l-2 12q-21 128 -93 211q-70 82 -188 82q-117 0 -183.5 -58.5t-66.5 -168.5q0 -66 35 -131t106 -144l252 -274l50 -55q40 -43 52 -58q7 -7 47 -54q34 -40 46 -61l35 -58q25 -39 32 -66q25 -75 25 -138q0 -184 -114 -284q-113 -99 -293 -99q-92 0 -167.5 35
t-126.5 97t-83.5 140.5t-46.5 170.5z" />
    <glyph glyph-name="scircumflex" unicode="&#x15d;" horiz-adv-x="750" 
d="M233 1389h-112l155 307h213l152 -307h-109l-149 299zM57 299l115 41q28 -90 84 -168q64 -90 152 -90q76 0 116.5 46.5t40.5 129.5q0 117 -205 297l-88 76q-98 86 -148 154q-50 70 -50 153q0 135 82 210t219 75q132 0 205 -95q71 -89 102 -208l-133 -41q-11 55 -30 105
q-20 51 -59 90q-40 40 -93 40q-67 0 -106.5 -44.5t-39.5 -117.5q0 -57 37 -111t113 -118l96 -84q38 -33 69 -62q28 -24 63 -64q39 -43 56 -75q48 -82 52 -176q0 -136 -85 -212q-86 -77 -221 -77q-132 0 -221 92q-88 93 -123 234z" />
    <glyph glyph-name="Scedilla" unicode="&#x15e;" horiz-adv-x="948" 
d="M408 -408v60q147 0 147 65q0 30 -29 67.5t-75 68.5v133h63v-115q143 -84 143 -162q0 -52 -67.5 -84.5t-181.5 -32.5zM68 416l135 39q17 -149 84 -247q78 -114 223 -114q117 0 180.5 65.5t63.5 184.5q0 98 -59 190q-60 95 -173 214l-268 282q-93 98 -137.5 178t-44.5 166
q0 168 111 269q113 102 286 102q168 0 271.5 -95t136.5 -278l4 -16l-129 -39l-2 12q-21 128 -93 211q-70 82 -188 82q-117 0 -183.5 -58.5t-66.5 -168.5q0 -66 35 -131t106 -144l252 -274l50 -55q40 -43 52 -58q7 -7 47 -54q34 -40 46 -61l35 -58q25 -39 32 -66
q25 -75 25 -138q0 -184 -114 -284q-113 -99 -293 -99q-92 0 -167.5 35t-126.5 97t-83.5 140.5t-46.5 170.5z" />
    <glyph glyph-name="scedilla" unicode="&#x15f;" horiz-adv-x="750" 
d="M305 -408v60q148 0 148 65q0 30 -29.5 67t-75.5 69v133h66v-115q141 -84 141 -162q0 -52 -67.5 -84.5t-182.5 -32.5zM57 299l115 41q28 -90 84 -168q64 -90 152 -90q76 0 116.5 46.5t40.5 129.5q0 117 -205 297l-88 76q-98 86 -148 154q-50 70 -50 153q0 135 82 210
t219 75q132 0 205 -95q71 -89 102 -208l-133 -41q-11 55 -30 105q-20 51 -59 90q-40 40 -93 40q-67 0 -106.5 -44.5t-39.5 -117.5q0 -57 37 -111t113 -118l96 -84q38 -33 69 -62q28 -24 63 -64q39 -43 56 -75q48 -82 52 -176q0 -136 -85 -212q-86 -77 -221 -77
q-132 0 -221 92q-88 93 -123 234z" />
    <glyph glyph-name="Scaron" unicode="&#x160;" horiz-adv-x="948" 
d="M512 1909h-57l-209 346h141l96 -238l95 238h143zM68 416l135 39q17 -149 84 -247q78 -114 223 -114q117 0 180.5 65.5t63.5 184.5q0 98 -59 190q-60 95 -173 214l-268 282q-93 98 -137.5 178t-44.5 166q0 168 111 269q113 102 286 102q168 0 271.5 -95t136.5 -278l4 -16
l-129 -39l-2 12q-21 128 -93 211q-70 82 -188 82q-117 0 -183.5 -58.5t-66.5 -168.5q0 -66 35 -131t106 -144l252 -274l50 -55q40 -43 52 -58q7 -7 47 -54q34 -40 46 -61l35 -58q25 -39 32 -66q25 -75 25 -138q0 -184 -114 -284q-113 -99 -293 -99q-92 0 -167.5 35
t-126.5 97t-83.5 140.5t-46.5 170.5z" />
    <glyph glyph-name="scaron" unicode="&#x161;" horiz-adv-x="750" 
d="M410 1389h-58l-209 346h144l94 -238l94 238h143zM57 299l115 41q28 -90 84 -168q64 -90 152 -90q76 0 116.5 46.5t40.5 129.5q0 117 -205 297l-88 76q-98 86 -148 154q-50 70 -50 153q0 135 82 210t219 75q132 0 205 -95q71 -89 102 -208l-133 -41q-11 55 -30 105
q-20 51 -59 90q-40 40 -93 40q-67 0 -106.5 -44.5t-39.5 -117.5q0 -57 37 -111t113 -118l96 -84q38 -33 69 -62q28 -24 63 -64q39 -43 56 -75q48 -82 52 -176q0 -136 -85 -212q-86 -77 -221 -77q-132 0 -221 92q-88 93 -123 234z" />
    <glyph glyph-name="uni0162" unicode="&#x162;" horiz-adv-x="754" 
d="M299 -381v59q147 0 147 66q0 64 -104 135v133h66v-114q141 -82 141 -162q0 -52 -67.5 -84.5t-182.5 -32.5zM451 0h-152v1599h-336v121h825v-121h-337v-1599z" />
    <glyph glyph-name="uni0163" unicode="&#x163;" horiz-adv-x="551" 
d="M301 -399v59q148 0 148 68q0 29 -29 65t-76 68v135h66v-117q141 -83 141 -162q0 -52 -67.5 -84t-182.5 -32zM168 283v831h-164v84h164v424h149v-424h193v-84h-193v-823q0 -82 7 -121q9 -42 28.5 -57.5t67.5 -18.5q46 0 88 8v-102q-68 -18 -131 -18q-108 0 -157 61
q-22 28 -35 70q-14 44 -15 79q-2 50 -2 91z" />
    <glyph glyph-name="Tcaron" unicode="&#x164;" horiz-adv-x="754" 
d="M406 1909h-58l-209 346h144l94 -238l94 238h143zM451 0h-152v1599h-336v121h825v-121h-337v-1599z" />
    <glyph glyph-name="tcaron" unicode="&#x165;" horiz-adv-x="551" 
d="M803 1188l-29 55q32 12 56 38t33 57q18 64 18 106h-127v178h184v-23v-80q0 -41 -1 -72q-2 -52 -5 -70q-1 -4 -4.5 -24.5t-6.5 -33.5q-8 -48 -41 -92q-23 -31 -77 -39zM168 283v831h-164v84h164v424h149v-424h193v-84h-193v-823q0 -82 7 -121q9 -42 28.5 -57.5t67.5 -18.5
q46 0 88 8v-102q-68 -18 -131 -18q-108 0 -157 61q-22 28 -35 70q-14 44 -15 79q-2 50 -2 91z" />
    <glyph glyph-name="Utilde" unicode="&#x168;" horiz-adv-x="1133" 
d="M395 1919h-114q0 40 17 85q10 30 29 50q20 23 57.5 38t82.5 15q28 0 95 -38q67 -37 89 -37q31 0 46.5 14.5t21.5 50.5h115v-12q-5 -27 -9 -43t-19.5 -46.5t-39.5 -51.5q-37 -35 -116 -35q-38 0 -104 39q-64 39 -89 39q-30 0 -44 -15t-18 -53zM121 424v1296h151v-1333
q0 -150 68.5 -221.5t224.5 -71.5q147 0 213 72.5t66 220.5v1333h149v-1296q0 -451 -428 -451q-205 0 -309 88q-140 119 -135 363z" />
    <glyph glyph-name="utilde" unicode="&#x169;" horiz-adv-x="893" 
d="M264 1401h-114q0 38 17 82q10 30 29 50q20 23 57.5 38.5t82.5 15.5q28 0 95 -38q68 -38 89 -38q31 0 46.5 15t21.5 53h114v-14q-4 -29 -7 -43.5t-19 -45.5t-42 -52q-37 -35 -115 -35q-37 0 -104 38q-64 39 -89 39q-28 0 -43 -14.5t-19 -50.5zM113 256v942h151v-944
q0 -85 34 -127.5t93 -42.5q47 0 100 33t99 88v993h149v-1198h-149v113q-46 -68 -113 -104t-141 -36q-88 0 -156 75q-67 74 -67 208z" />
    <glyph glyph-name="Umacron" unicode="&#x16a;" horiz-adv-x="1133" 
d="M778 1909h-440v114h440v-114zM121 424v1296h151v-1333q0 -150 68.5 -221.5t224.5 -71.5q147 0 213 72.5t66 220.5v1333h149v-1296q0 -451 -428 -451q-205 0 -309 88q-140 119 -135 363z" />
    <glyph glyph-name="umacron" unicode="&#x16b;" horiz-adv-x="893" 
d="M645 1389h-440v114h440v-114zM113 256v942h151v-944q0 -85 34 -127.5t93 -42.5q47 0 100 33t99 88v993h149v-1198h-149v113q-46 -68 -113 -104t-141 -36q-88 0 -156 75q-67 74 -67 208z" />
    <glyph glyph-name="Ubreve" unicode="&#x16c;" horiz-adv-x="1133" 
d="M281 2175h110q15 -93 58 -125q43 -33 108 -33t109 33q43 33 57 125h111q-11 -152 -103 -215q-75 -51 -174 -51t-174 51q-44 30 -71 85.5t-31 129.5zM121 424v1296h151v-1333q0 -150 68.5 -221.5t224.5 -71.5q147 0 213 72.5t66 220.5v1333h149v-1296q0 -451 -428 -451
q-205 0 -309 88q-140 119 -135 363z" />
    <glyph glyph-name="ubreve" unicode="&#x16d;" horiz-adv-x="893" 
d="M150 1657h110q13 -94 57 -127t109 -33q66 0 109 33q44 33 57 127h110q-7 -153 -102 -218q-77 -50 -174 -50t-174 50q-95 65 -102 218zM113 256v942h151v-944q0 -85 34 -127.5t93 -42.5q47 0 100 33t99 88v993h149v-1198h-149v113q-46 -68 -113 -104t-141 -36
q-88 0 -156 75q-67 74 -67 208z" />
    <glyph glyph-name="Uring" unicode="&#x16e;" horiz-adv-x="1133" 
d="M393 2279q58 66 164 66q107 0 163 -66q56 -65 56 -153t-56 -153q-55 -64 -163 -64q-106 0 -163 64q-56 65 -56 153q0 89 55 153zM451 2228q-35 -44 -35 -103t33 -103q35 -44 108 -44q74 0 107 44q34 43 34 103q0 61 -34 104q-33 44 -107 44q-75 0 -106 -45zM121 424v1296
h151v-1333q0 -150 68.5 -221.5t224.5 -71.5q147 0 213 72.5t66 220.5v1333h149v-1296q0 -451 -428 -451q-205 0 -309 88q-140 119 -135 363z" />
    <glyph glyph-name="uring" unicode="&#x16f;" horiz-adv-x="893" 
d="M262 1759q57 66 163 66q107 0 163 -66q57 -65 57 -153t-57 -153q-55 -64 -163 -64q-107 0 -162 64q-56 65 -56 153q0 89 55 153zM319 1708q-34 -43 -34 -103q0 -59 33 -103q35 -44 108 -44q74 0 107 44q34 43 34 103q0 61 -34 104q-33 44 -107 44t-107 -45zM113 256v942
h151v-944q0 -85 34 -127.5t93 -42.5q47 0 100 33t99 88v993h149v-1198h-149v113q-46 -68 -113 -104t-141 -36q-88 0 -156 75q-67 74 -67 208z" />
    <glyph glyph-name="Uhungarumlaut" unicode="&#x170;" horiz-adv-x="1133" 
d="M702 1909h-59l107 311h159zM471 1909h-59l106 311h160zM121 424v1296h151v-1333q0 -150 68.5 -221.5t224.5 -71.5q147 0 213 72.5t66 220.5v1333h149v-1296q0 -451 -428 -451q-205 0 -309 88q-140 119 -135 363z" />
    <glyph glyph-name="uhungarumlaut" unicode="&#x171;" horiz-adv-x="893" 
d="M571 1389h-59l106 313h160zM340 1389h-59l106 313h160zM113 256v942h151v-944q0 -85 34 -127.5t93 -42.5q47 0 100 33t99 88v993h149v-1198h-149v113q-46 -68 -113 -104t-141 -36q-88 0 -156 75q-67 74 -67 208z" />
    <glyph glyph-name="Uogonek" unicode="&#x172;" horiz-adv-x="1133" 
d="M647 -303v-70q-120 0 -175 13q-54 11 -78.5 41t-24.5 86q0 66 54 131q53 62 99 88h70q-66 -60 -98.5 -109.5t-32.5 -101.5q0 -24 8 -38q4 -20 39 -31q5 -2 45 -6q2 0 6 -0.5t10 -1t11 -0.5q27 -1 67 -1zM121 424v1296h151v-1333q0 -150 68.5 -221.5t224.5 -71.5
q147 0 213 72.5t66 220.5v1333h149v-1296q0 -451 -428 -451q-205 0 -309 88q-140 119 -135 363z" />
    <glyph glyph-name="uogonek" unicode="&#x173;" horiz-adv-x="893" 
d="M551 -303v-70q-123 0 -176 13q-53 11 -77.5 41t-27.5 86q0 67 55 131q54 61 101 88h70q-66 -60 -98.5 -109.5t-32.5 -101.5q0 -30 10.5 -44t34.5 -25q8 -3 45 -6q4 -1 14 -1.5t15 -0.5q27 -1 67 -1zM113 256v942h151v-944q0 -85 34 -127.5t93 -42.5q47 0 100 33t99 88
v993h149v-1198h-149v113q-46 -68 -113 -104t-141 -36q-88 0 -156 75q-67 74 -67 208z" />
    <glyph glyph-name="Wcircumflex" unicode="&#x174;" horiz-adv-x="1415" 
d="M559 1909h-113l156 307h213l154 -307h-111l-149 299zM485 0h-174l-288 1720h143l233 -1470l224 1470h192l203 -1470l233 1470h142l-285 -1720h-176l-215 1520z" />
    <glyph glyph-name="wcircumflex" unicode="&#x175;" horiz-adv-x="1161" 
d="M432 1389h-113l156 307h213l154 -307h-111l-149 299zM399 0h-159l-197 1198h129l160 -1022l170 1022h160l184 -1022l143 1022h129l-194 -1198h-146l-192 987z" />
    <glyph glyph-name="Ycircumflex" unicode="&#x176;" horiz-adv-x="889" 
d="M297 1909h-115l158 307h213l152 -307h-109l-152 299zM526 0h-151v535l-377 1185h154l58 -203q41 -142 78 -266l77 -259q54 -179 61 -204l25 -79q63 235 147 519q96 326 143 492h150l-365 -1185v-535z" />
    <glyph glyph-name="ycircumflex" unicode="&#x177;" horiz-adv-x="776" 
d="M248 1389h-115l158 307h213l151 -307h-108l-152 299zM80 -299h-2v123q119 8 174 40t55 91q0 75 -10 141l-260 1102h151l209 -1001l203 1001h154l-301 -1282q-29 -113 -117 -162t-256 -53z" />
    <glyph glyph-name="Ydieresis" unicode="&#x178;" horiz-adv-x="889" 
d="M727 1909h-182v178h182v-178zM344 1909h-184v178h184v-178zM526 0h-151v535l-377 1185h154l58 -203q41 -142 78 -266l77 -259q54 -179 61 -204l25 -79q63 235 147 519q96 326 143 492h150l-365 -1185v-535z" />
    <glyph glyph-name="Zacute" unicode="&#x179;" horiz-adv-x="866" 
d="M469 1909h-57l123 397h161zM821 0h-762v141l607 1458h-541v121h696v-141l-606 -1456h606v-123z" />
    <glyph glyph-name="zacute" unicode="&#x17a;" horiz-adv-x="694" 
d="M383 1389h-57l123 397h161zM653 0h-606v143l471 940h-407v115h548v-143l-460 -940h454v-115z" />
    <glyph glyph-name="Zdotaccent" unicode="&#x17b;" horiz-adv-x="866" 
d="M532 1909h-184v178h184v-178zM821 0h-762v141l607 1458h-541v121h696v-141l-606 -1456h606v-123z" />
    <glyph glyph-name="zdotaccent" unicode="&#x17c;" horiz-adv-x="694" 
d="M444 1389h-184v178h184v-178zM653 0h-606v143l471 940h-407v115h548v-143l-460 -940h454v-115z" />
    <glyph glyph-name="Zcaron" unicode="&#x17d;" horiz-adv-x="866" 
d="M469 1909h-55l-209 346h141l94 -238l97 238h141zM821 0h-762v141l607 1458h-541v121h696v-141l-606 -1456h606v-123z" />
    <glyph glyph-name="zcaron" unicode="&#x17e;" horiz-adv-x="694" 
d="M381 1389h-55l-209 346h141l94 -238l97 238h141zM653 0h-606v143l471 940h-407v115h548v-143l-460 -940h454v-115z" />
    <glyph glyph-name="florin" unicode="&#x192;" horiz-adv-x="500" 
d="M-41 -381v109q24 -7 74 -7q61 0 91 34q11 13 17 36t6 80v8v1487q0 79 19 147q12 42 33 71q54 69 166 69q69 0 122 -15v-108q-24 6 -73 6q-60 0 -92 -32q-11 -11 -17 -36q-6 -24 -6 -82v-8v-1489q0 -41 -3 -71q-3 -32 -16 -74q-34 -131 -198 -137q-70 0 -123 12z" />
    <glyph glyph-name="Ohorn" unicode="&#x1a0;" 
d="M115 500v721q0 289 139 423q103 101 299 101q97 0 174 -27q73 -24 125 -73q4 -4 11.5 -13t8.5 -10q58 57 58 184q0 14 -4 25h149q-1 -78 -49 -152q-40 -67 -123 -96q19 -28 31 -53q32 -68 45 -144q12 -75 12 -165v-721q0 -527 -438 -527t-438 527zM840 465v788
q0 369 -287 369t-287 -369v-788q0 -371 287 -371t287 371z" />
    <glyph glyph-name="ohorn" unicode="&#x1a1;" horiz-adv-x="846" 
d="M106 567v64q0 94 1 122q0 2 7 115q4 70 16 115q10 37 34 94q23 51 56 79.5t86 48.5q51 20 116 20q66 0 119 -21q50 -18 84 -47q19 -14 32 -39q39 58 39 166q0 14 -4 23h152q-1 -77 -49 -152q-38 -59 -109 -90q17 -39 29 -82q13 -42 17 -115q7 -112 7 -116v-121v-64v-100
q0 -35 -3 -96q-3 -54 -8 -93q-4 -29 -17 -82q-10 -47 -26 -76q-48 -83 -94 -108q-80 -39 -168 -39q-82 4 -135.5 24t-88.5 64l-39 59q-16 29 -26 76q-13 62 -16 82q-4 33 -9 93q-3 61 -3 96v100zM256 631v-64q0 -281 33 -387t134 -106t134 106t33 387v64q0 185 -11 283
q-6 58 -17 97q-18 59 -51 86t-88 27t-87.5 -27t-52.5 -86q-19 -62 -25 -222q-2 -86 -2 -158z" />
    <glyph glyph-name="Uhorn" unicode="&#x1af;" horiz-adv-x="1133" 
d="M121 424v1296h151v-1333q0 -146 68 -219q66 -74 225 -74q150 0 213 74q66 74 66 219v1333h149v-108q68 53 68 194q0 14 -4 25h151q-1 -78 -49 -153q-46 -72 -139 -99l-27 -6v-1149q0 -451 -428 -451q-294 1 -390 187q-54 99 -54 264z" />
    <glyph glyph-name="uhorn" unicode="&#x1b0;" horiz-adv-x="893" 
d="M113 256v942h151v-944q0 -88 35 -129t92 -41q47 0 101 33q54 34 98 88v993h149v-111q68 56 68 197q0 14 -4 23h151q-1 -76 -49 -151q-45 -72 -139 -101l-27 -6v-1049h-149v113q-46 -70 -115 -105q-68 -35 -139 -35q-88 0 -156 75q-67 74 -67 208z" />
    <glyph glyph-name="uni01C4" unicode="&#x1c4;" horiz-adv-x="1952" 
d="M1554 1909h-55l-209 346h142l96 -238l94 238h141zM1907 0h-760v141l604 1458h-541v121h697v-141l-604 -1456h604v-123zM532 0h-387v1720h387q122 0 209.5 -39t137 -111t72 -161t22.5 -201v-700q0 -508 -441 -508zM299 1599v-1476h233q287 0 287 350v768q0 358 -287 358
h-233z" />
    <glyph glyph-name="uni01C5" unicode="&#x1c5;" horiz-adv-x="1782" 
d="M1466 1389h-55l-209 346h141l97 -238l94 238h141zM1741 0h-608v143l473 940h-410v115h551v-143l-463 -940h457v-115zM532 0h-387v1720h387q122 0 209.5 -39t137 -111t72 -161t22.5 -201v-700q0 -508 -441 -508zM299 1599v-1476h233q287 0 287 350v768q0 358 -287 358
h-233z" />
    <glyph glyph-name="uni01C6" unicode="&#x1c6;" horiz-adv-x="1561" 
d="M1247 1389h-55l-211 346h143l95 -238l96 238h141zM1520 0h-607v143l471 940h-407v115h549v-143l-461 -940h455v-115zM596 205v790q-107 119 -201 119q-23 -1 -37 -4t-31.5 -18.5t-30.5 -45.5q-49 -114 -44 -407v-94q0 -83 3 -149t9.5 -113t13.5 -81.5t19 -56t22 -34.5
t25.5 -18.5t26 -7t28.5 -1.5q44 0 97.5 33.5t99.5 87.5zM745 0h-149v113q-90 -140 -242 -140q-92 0 -147 61q-103 125 -107 513v94q0 297 57 438q25 59 63 94q39 36 70 43q32 9 75 9q64 0 124 -36t107 -104v635h149v-1720z" />
    <glyph glyph-name="uni01C7" unicode="&#x1c7;" horiz-adv-x="1337" 
d="M862 0h-78v115q61 0 79 1q27 1 59 6q33 5 47 11t30 22q4 4 7 7.5t5.5 8t4.5 7.5t4 9.5t2.5 9t2.5 10.5t2.5 10.5t2 13.5t2.5 14q8 45 8 165v1310h152v-1310q0 -78 -3 -130q-7 -125 -50 -182q-77 -105 -277 -98zM778 0h-633v1720h154v-1597h479v-123z" />
    <glyph glyph-name="uni01C8" unicode="&#x1c8;" horiz-adv-x="1200" 
d="M1069 1473h-149v180h149v-180zM727 -311v106q13 0 26.5 -0.5t20.5 -1t10 -0.5q87 0 119 71q8 18 11 43q6 40 6 75v1216h149v-1243q0 -274 -260 -274q-39 0 -82 8zM778 0h-633v1720h154v-1597h479v-123z" />
    <glyph glyph-name="uni01C9" unicode="&#x1c9;" horiz-adv-x="870" 
d="M739 1473h-149v180h149v-180zM397 -311v106q12 0 26 -0.5t21.5 -1t10.5 -0.5q86 -3 117 71q10 15 13 43q5 41 5 75v1216h149v-1243q0 -274 -260 -274q-39 0 -82 8zM297 0h-152v1720h152v-1720z" />
    <glyph glyph-name="uni01CA" unicode="&#x1ca;" horiz-adv-x="1649" 
d="M1174 0h-78v115q60 0 78 1q28 2 60 6q32 5 46 11t30 22q4 4 7 7.5t5.5 8t4.5 7.5t4 9.5t2.5 9t2.5 10.5t2.5 10.5t2 13.5t2.5 14q9 45 9 165v1310h151v-1310q0 -83 -4 -130q-10 -130 -48 -182q-73 -105 -277 -98zM276 0h-131v1720h117l547 -1362v1362h129v-1720h-115
l-547 1333v-1333z" />
    <glyph glyph-name="uni01CB" unicode="&#x1cb;" horiz-adv-x="1511" 
d="M1380 1473h-149v180h149v-180zM1038 -311v106q12 0 26 -0.5t21.5 -1t10.5 -0.5q86 -3 117 71q10 15 13 43q5 41 5 75v1216h149v-1243q0 -274 -260 -274q-39 0 -82 8zM276 0h-131v1720h117l547 -1362v1362h129v-1720h-115l-547 1333v-1333z" />
    <glyph glyph-name="uni01CC" unicode="&#x1cc;" horiz-adv-x="1288" 
d="M1157 1473h-149v180h149v-180zM815 -311v106q13 0 26.5 -0.5t20.5 -1t10 -0.5q82 0 118 71q9 16 12 43q6 40 6 75v1216h149v-1243q0 -274 -260 -274q-39 0 -82 8zM270 0h-149v1198h149v-113q46 68 113.5 104t140.5 36q88 0 156 -75q68 -76 68 -210v-940h-152v944
q0 85 -34 127.5t-93 42.5q-47 0 -100.5 -32.5t-98.5 -88.5v-993z" />
    <glyph glyph-name="uni01F1" unicode="&#x1f1;" horiz-adv-x="1952" 
d="M1907 0h-760v141l604 1458h-541v121h697v-141l-604 -1456h604v-123zM532 0h-387v1720h387q122 0 209.5 -39t137 -111t72 -161t22.5 -201v-700q0 -508 -441 -508zM299 1599v-1476h233q287 0 287 350v768q0 358 -287 358h-233z" />
    <glyph glyph-name="uni01F2" unicode="&#x1f2;" horiz-adv-x="1782" 
d="M1741 0h-608v143l473 940h-410v115h551v-143l-463 -940h457v-115zM532 0h-387v1720h387q122 0 209.5 -39t137 -111t72 -161t22.5 -201v-700q0 -508 -441 -508zM299 1599v-1476h233q287 0 287 350v768q0 358 -287 358h-233z" />
    <glyph glyph-name="uni01F3" unicode="&#x1f3;" horiz-adv-x="1561" 
d="M1520 0h-607v143l471 940h-407v115h549v-143l-461 -940h455v-115zM596 205v790q-107 119 -201 119q-23 -1 -37 -4t-31.5 -18.5t-30.5 -45.5q-49 -114 -44 -407v-94q0 -83 3 -149t9.5 -113t13.5 -81.5t19 -56t22 -34.5t25.5 -18.5t26 -7t28.5 -1.5q44 0 97.5 33.5
t99.5 87.5zM745 0h-149v113q-90 -140 -242 -140q-92 0 -147 61q-103 125 -107 513v94q0 297 57 438q25 59 63 94q39 36 70 43q32 9 75 9q64 0 124 -36t107 -104v635h149v-1720z" />
    <glyph glyph-name="uni01F4" unicode="&#x1f4;" horiz-adv-x="1087" 
d="M571 1909h-55l123 397h162zM115 481v729q0 535 452 535q216 -4 300 -129q57 -81 78 -197q20 -108 20 -248v-12h-154v12v15q0 84 -1 109q-2 46 -7 99q-6 63 -22 95q-14 32 -42 67q-49 66 -174 66q-170 0 -238 -107q-61 -96 -61 -239v-860q0 -128 53 -221q62 -101 234 -101
q154 0 219 106q51 84 51 216v291h-211v114h363v-821h-68l-45 168q-33 -88 -120 -142q-88 -53 -191 -53q-248 0 -358 159q-37 57 -60 146q-7 33 -12 75q-2 22 -5 67q-1 17 -1 61z" />
    <glyph glyph-name="uni01F5" unicode="&#x1f5;" horiz-adv-x="881" 
d="M479 1389h-55l123 397h162zM623 776q0 79 -19 155q-12 46 -32 84t-58.5 63.5t-85.5 25.5q-62 0 -99.5 -35t-64.5 -95q-14 -37 -20 -73q-13 -85 -13 -125q0 -80 19 -151q16 -69 60.5 -112t117.5 -44q47 0 86 22t58 56q20 35 32 78q19 71 19 151zM524 2l-215 47
q-49 -37 -99 -111q-50 -76 -50 -128q-4 -32 21 -53t63 -31q19 -7 55 -9l53 -3q13 -1 54 -1h12q264 0 264 129q0 72 -37 109t-121 51zM213 211q-4 -25 27 -35q30 -10 166 -39l63 -12q160 -31 252 -85q102 -60 102 -169q0 -144 -122 -205q-67 -37 -151 -49q-70 -10 -134 -10
q-400 0 -400 157q0 100 65 179q67 78 161 127q-14 1 -50 11q-30 9 -74 29q-42 21 -42 40q0 44 50 131q14 26 43 68q18 26 20 28q7 7 19 24l11 17q-71 62 -106 164q-33 102 -33 211q-1 58 10 116t37.5 115.5t65 101t98.5 71t133 28.5q94 0 157 -48q63 -46 126 -139
q29 53 71 107q50 63 111 76v-146q-38 -6 -79 -32t-73 -62q37 -105 37 -180q0 -92 -19 -169.5t-59 -140t-109 -98t-161 -35.5q-86 0 -143 25q-57 -106 -70 -172z" />
    <glyph glyph-name="uni0200" unicode="&#x200;" horiz-adv-x="973" 
d="M399 1909h-57l-209 311h162zM631 1909h-60l-206 311h159zM485 1563l-180 -1014h361zM289 449l-88 -449h-154l340 1720h199l340 -1720h-156l-86 449h-395z" />
    <glyph glyph-name="uni0201" unicode="&#x201;" horiz-adv-x="809" 
d="M313 1389h-57l-209 313h162zM545 1389h-60l-206 313h159zM555 244v422q-112 -80 -116 -83q-44 -32 -89 -72q-49 -44 -71 -76q-54 -78 -54 -169q0 -87 37 -127q38 -41 84 -41q56 0 115 41q60 42 94 105zM725 0h-141l-19 145q-47 -82 -116.5 -127t-137.5 -45q-92 0 -164 74
q-71 74 -71 193q0 49 6 101q5 44 36 103q16 28 37.5 50t64.5 59q88 75 335 180v10q0 101 -9 174t-22 112t-34.5 61.5t-39 28t-42.5 5.5q-54 0 -94 -36q-53 -48 -60 -193v-6h-156q13 159 92.5 247.5t210.5 88.5q72 0 129 -23t89 -60q33 -38 52 -87q36 -87 36 -203v-576
q0 -71 4 -132q5 -73 10 -105z" />
    <glyph glyph-name="uni0202" unicode="&#x202;" horiz-adv-x="973" 
d="M322 1909h-111q2 74 29 129.5t71 84.5q76 52 175 52t175 -52q45 -28 72 -84t29 -130h-111q-13 93 -56 125t-109 32q-65 0 -108 -32t-56 -125zM485 1563l-180 -1014h361zM289 449l-88 -449h-154l340 1720h199l340 -1720h-156l-86 449h-395z" />
    <glyph glyph-name="uni0203" unicode="&#x203;" horiz-adv-x="809" 
d="M236 1389h-111q2 74 29 130.5t71 84.5q82 53 175 53t175 -53q44 -28 71.5 -85t29.5 -130h-111q-13 93 -56 125t-109 32q-65 0 -108 -32t-56 -125zM555 244v422q-112 -80 -116 -83q-44 -32 -89 -72q-49 -44 -71 -76q-54 -78 -54 -169q0 -87 37 -127q38 -41 84 -41
q56 0 115 41q60 42 94 105zM725 0h-141l-19 145q-47 -82 -116.5 -127t-137.5 -45q-92 0 -164 74q-71 74 -71 193q0 49 6 101q5 44 36 103q16 28 37.5 50t64.5 59q88 75 335 180v10q0 101 -9 174t-22 112t-34.5 61.5t-39 28t-42.5 5.5q-54 0 -94 -36q-53 -48 -60 -193v-6
h-156q13 159 92.5 247.5t210.5 88.5q72 0 129 -23t89 -60q33 -38 52 -87q36 -87 36 -203v-576q0 -71 4 -132q5 -73 10 -105z" />
    <glyph glyph-name="uni0204" unicode="&#x204;" horiz-adv-x="795" 
d="M360 1909h-59l-207 311h160zM592 1909h-60l-206 311h159zM745 0h-600v1720h600v-121h-446v-653h319v-115h-319v-708h446v-123z" />
    <glyph glyph-name="uni0205" unicode="&#x205;" horiz-adv-x="829" 
d="M336 1389h-60l-206 313h159zM567 1389h-59l-207 313h160zM258 702h332v47q1 33 0.5 66.5t-1.5 66t-5 63t-10.5 57.5t-17.5 49.5t-26 38.5t-37 25t-49 9q-99 0 -146 -68q-18 -24 -29 -91q-8 -60 -10 -112q-1 -32 -1 -151zM106 553v166q0 238 63 362q44 82 108.5 113.5
t158.5 30.5q162 0 232 -114q71 -115 71 -359q0 -61 -2 -123h-481v-185q0 -228 49 -306q24 -37 53 -50.5t78 -13.5q68 0 113 67q45 68 47 226h139q-12 -139 -48 -228q-66 -166 -249 -166q-127 0 -198 50q-71 52 -103.5 178.5t-30.5 351.5z" />
    <glyph glyph-name="uni0206" unicode="&#x206;" horiz-adv-x="795" 
d="M281 1909h-111q2 74 29 129.5t71 84.5q76 52 175 52q100 0 176 -52q44 -28 71 -84t31 -130h-113q-12 94 -55 125q-44 32 -109 32q-64 0 -108 -32t-57 -125zM745 0h-600v1720h600v-121h-446v-653h319v-115h-319v-708h446v-123z" />
    <glyph glyph-name="uni0207" unicode="&#x207;" horiz-adv-x="829" 
d="M256 1389h-111q5 74 32.5 131t70.5 84q82 53 175 53q94 0 174 -53q43 -27 70 -84t31 -131h-110q-15 94 -58 125q-44 32 -109 32q-64 0 -108 -32t-57 -125zM258 702h332v47q1 33 0.5 66.5t-1.5 66t-5 63t-10.5 57.5t-17.5 49.5t-26 38.5t-37 25t-49 9q-99 0 -146 -68
q-18 -24 -29 -91q-8 -60 -10 -112q-1 -32 -1 -151zM106 553v166q0 238 63 362q44 82 108.5 113.5t158.5 30.5q162 0 232 -114q71 -115 71 -359q0 -61 -2 -123h-481v-185q0 -228 49 -306q24 -37 53 -50.5t78 -13.5q68 0 113 67q45 68 47 226h139q-12 -139 -48 -228
q-66 -166 -249 -166q-127 0 -198 50q-71 52 -103.5 178.5t-30.5 351.5z" />
    <glyph glyph-name="uni0208" unicode="&#x208;" horiz-adv-x="444" 
d="M135 1909h-59l-207 311h160zM367 1909h-60l-207 311h160zM297 0h-152v1720h152v-1720z" />
    <glyph glyph-name="uni0209" unicode="&#x209;" horiz-adv-x="406" 
d="M121 1389h-60l-206 313h159zM352 1389h-59l-207 313h160zM283 0h-152v1198h152v-1198z" />
    <glyph glyph-name="uni020A" unicode="&#x20a;" horiz-adv-x="444" 
d="M55 1909h-110q8 154 100 214q76 52 175 52t175 -52q44 -29 71.5 -84.5t31.5 -129.5h-113q-12 94 -55 125q-44 32 -109 32q-64 0 -108 -32q-43 -31 -58 -125zM297 0h-152v1720h152v-1720z" />
    <glyph glyph-name="uni020B" unicode="&#x20b;" horiz-adv-x="406" 
d="M43 1389h-113q4 74 31.5 130.5t71.5 84.5q82 53 175 53t175 -53q43 -27 69.5 -84t30.5 -131h-110q-15 94 -58 125q-44 32 -109 32q-64 0 -108 -32q-43 -31 -55 -125zM283 0h-152v1198h152v-1198z" />
    <glyph glyph-name="uni020C" unicode="&#x20c;" 
d="M467 1909h-59l-207 311h159zM698 1909h-59l-207 311h160zM115 500v721q0 188 58 308q102 216 380 216q196 0 299 -101q139 -134 139 -423v-721q0 -527 -438 -527t-438 527zM840 465v788q0 369 -287 369t-287 -369v-788q0 -371 287 -371t287 371z" />
    <glyph glyph-name="uni020D" unicode="&#x20d;" horiz-adv-x="846" 
d="M338 1389h-59l-207 313h159zM567 1389h-57l-209 313h162zM106 467v100v64q0 94 1 122q0 2 7 115q4 70 16 115q10 37 34 94q24 53 58 81q81 67 200 67q66 0 118 -20q53 -19 85.5 -47.5t55.5 -80.5q25 -54 35 -94q12 -45 16 -115l6 -115q1 -28 1 -122v-64v-100
q0 -35 -3 -96q-3 -54 -8 -93q-4 -29 -17 -82q-10 -47 -26 -76q-17 -28 -39 -59q-33 -43 -87.5 -63.5t-135.5 -24.5q-88 0 -168 39q-44 24 -95 108q-16 29 -26 76q-13 62 -16 82q-4 33 -9 93q-3 61 -3 96zM256 631v-64q0 -281 33 -387t134 -106t134 106t33 387v64
q0 72 -2 158q-5 156 -26 222q-18 59 -51 86t-88 27t-87.5 -27t-52.5 -86q-11 -39 -17 -97q-10 -100 -10 -283z" />
    <glyph glyph-name="uni020E" unicode="&#x20e;" 
d="M387 1909h-111q11 154 103 214q76 52 174 52t174 -52q44 -28 71 -84t31 -130h-110q-13 93 -58 125q-44 32 -109 32q-64 0 -108 -32t-57 -125zM115 500v721q0 188 58 308q102 216 380 216q196 0 299 -101q139 -134 139 -423v-721q0 -527 -438 -527t-438 527zM840 465v788
q0 369 -287 369t-287 -369v-788q0 -371 287 -371t287 371z" />
    <glyph glyph-name="uni020F" unicode="&#x20f;" horiz-adv-x="846" 
d="M258 1389h-111q3 74 30 131t71 84q82 53 175 53t175 -53q44 -28 71 -84.5t29 -130.5h-110q-15 93 -57 125q-43 32 -109 32q-65 0 -108 -32t-56 -125zM106 467v100v64q0 94 1 122q0 2 7 115q4 70 16 115q10 37 34 94q24 53 58 81q81 67 200 67q66 0 118 -20
q53 -19 85.5 -47.5t55.5 -80.5q25 -54 35 -94q12 -45 16 -115l6 -115q1 -28 1 -122v-64v-100q0 -35 -3 -96q-3 -54 -8 -93q-4 -29 -17 -82q-10 -47 -26 -76q-17 -28 -39 -59q-33 -43 -87.5 -63.5t-135.5 -24.5q-88 0 -168 39q-44 24 -95 108q-16 29 -26 76q-13 62 -16 82
q-4 33 -9 93q-3 61 -3 96zM256 631v-64q0 -281 33 -387t134 -106t134 106t33 387v64q0 72 -2 158q-5 156 -26 222q-18 59 -51 86t-88 27t-87.5 -27t-52.5 -86q-11 -39 -17 -97q-10 -100 -10 -283z" />
    <glyph glyph-name="uni0210" unicode="&#x210;" horiz-adv-x="1067" 
d="M487 1909h-59l-207 311h160zM719 1909h-60l-206 311h159zM299 1599v-636h305q133 0 178 99q39 81 39 218q0 115 -25 185q-45 134 -192 134h-305zM299 0h-154v1720h459q170 0 260 -87q111 -114 111 -357q0 -329 -242 -418l266 -858h-161l-250 840h-289v-840z" />
    <glyph glyph-name="uni0211" unicode="&#x211;" horiz-adv-x="535" 
d="M236 1389h-60l-207 313h160zM467 1389h-59l-207 313h159zM270 0h-149v1198h149v-170q28 93 101 140q73 46 151 49v-150q-14 2 -22 2q-230 0 -230 -174v-895z" />
    <glyph glyph-name="uni0212" unicode="&#x212;" horiz-adv-x="1067" 
d="M408 1909h-111q2 74 29 129.5t71 84.5q76 52 175 52q100 0 176 -52q44 -28 71 -84t31 -130h-113q-12 94 -55 125q-44 32 -109 32q-64 0 -108 -32t-57 -125zM299 1599v-636h305q133 0 178 99q39 81 39 218q0 115 -25 185q-45 134 -192 134h-305zM299 0h-154v1720h459
q170 0 260 -87q111 -114 111 -357q0 -329 -242 -418l266 -858h-161l-250 840h-289v-840z" />
    <glyph glyph-name="uni0213" unicode="&#x213;" horiz-adv-x="535" 
d="M156 1389h-111q2 74 29 130.5t71 84.5q82 53 175 53q94 0 176 -53q43 -27 70.5 -84t31.5 -131h-113q-13 93 -56 125t-108 32q-64 0 -108 -32t-57 -125zM270 0h-149v1198h149v-170q28 93 101 140q73 46 151 49v-150q-14 2 -22 2q-230 0 -230 -174v-895z" />
    <glyph glyph-name="uni0214" unicode="&#x214;" horiz-adv-x="1133" 
d="M471 1909h-59l-207 311h160zM702 1909h-59l-207 311h160zM121 424v1296h151v-1333q0 -150 68.5 -221.5t224.5 -71.5q147 0 213 72.5t66 220.5v1333h149v-1296q0 -451 -428 -451q-205 0 -309 88q-140 119 -135 363z" />
    <glyph glyph-name="uni0215" unicode="&#x215;" horiz-adv-x="893" 
d="M340 1389h-59l-207 313h159zM571 1389h-59l-207 313h160zM113 256v942h151v-944q0 -85 34 -127.5t93 -42.5q47 0 100 33t99 88v993h149v-1198h-149v113q-46 -68 -113 -104t-141 -36q-88 0 -156 75q-67 74 -67 208z" />
    <glyph glyph-name="uni0216" unicode="&#x216;" horiz-adv-x="1133" 
d="M391 1909h-110q4 74 31 130t71 84q76 52 174 52t174 -52q92 -60 103 -214h-111q-13 93 -57 125t-109 32q-64 0 -108 -32q-43 -31 -58 -125zM121 424v1296h151v-1333q0 -150 68.5 -221.5t224.5 -71.5q147 0 213 72.5t66 220.5v1333h149v-1296q0 -451 -428 -451
q-205 0 -309 88q-140 119 -135 363z" />
    <glyph glyph-name="uni0217" unicode="&#x217;" horiz-adv-x="893" 
d="M260 1389h-110q4 74 31.5 131t70.5 84q82 53 174 53t174 -53q43 -27 70.5 -84t31.5 -131h-110q-13 93 -57 125t-109 32t-109 -32t-57 -125zM113 256v942h151v-944q0 -85 34 -127.5t93 -42.5q47 0 100 33t99 88v993h149v-1198h-149v113q-46 -68 -113 -104t-141 -36
q-88 0 -156 75q-67 74 -67 208z" />
    <glyph glyph-name="uni0218" unicode="&#x218;" horiz-adv-x="948" 
d="M440 -625l-26 56q30 12 54 37.5t34 57.5q16 53 16 105h-127v179h184v-23v-64q0 -34 -1 -59q0 -9 -0.5 -29t-1.5 -27q-2 -67 -12 -98q-19 -65 -27 -75q-37 -53 -82 -58q-3 -1 -7 -1q-3 -1 -4 -1zM68 416l135 39q17 -149 84 -247q78 -114 223 -114q117 0 180.5 65.5
t63.5 184.5q0 98 -59 190q-60 95 -173 214l-268 282q-93 98 -137.5 178t-44.5 166q0 168 111 269q113 102 286 102q168 0 271.5 -95t136.5 -278l4 -16l-129 -39l-2 12q-21 128 -93 211q-70 82 -188 82q-117 0 -183.5 -58.5t-66.5 -168.5q0 -66 35 -131t106 -144l252 -274
l50 -55q40 -43 52 -58q7 -7 47 -54q34 -40 46 -61l35 -58q25 -39 32 -66q25 -75 25 -138q0 -184 -114 -284q-113 -99 -293 -99q-92 0 -167.5 35t-126.5 97t-83.5 140.5t-46.5 170.5z" />
    <glyph glyph-name="uni0219" unicode="&#x219;" horiz-adv-x="750" 
d="M338 -625l-27 56q31 12 54.5 37.5t33.5 57.5q19 54 19 105h-129v179h184v-23v-64q0 -34 -1 -59q0 -9 -0.5 -29t-1.5 -27q-2 -57 -11 -98q-11 -52 -28 -75q-38 -53 -83 -58q-8 -2 -10 -2zM57 299l115 41q28 -90 84 -168q64 -90 152 -90q76 0 116.5 46.5t40.5 129.5
q0 117 -205 297l-88 76q-98 86 -148 154q-50 70 -50 153q0 135 82 210t219 75q132 0 205 -95q71 -89 102 -208l-133 -41q-11 55 -30 105q-20 51 -59 90q-40 40 -93 40q-67 0 -106.5 -44.5t-39.5 -117.5q0 -57 37 -111t113 -118l96 -84q38 -33 69 -62q28 -24 63 -64
q39 -43 56 -75q48 -82 52 -176q0 -136 -85 -212q-86 -77 -221 -77q-132 0 -221 92q-88 93 -123 234z" />
    <glyph glyph-name="uni021A" unicode="&#x21a;" horiz-adv-x="754" 
d="M334 -598l-29 55q67 26 88 96q19 60 19 105h-127v178h184v-22v-63q0 -34 -1 -59q0 -10 -0.5 -30t-1.5 -27l-4 -50q-3 -27 -8 -47q-20 -65 -27 -75q-34 -54 -83 -59q-2 0 -5 -1q-2 -1 -3 -1h-2zM451 0h-152v1599h-336v121h825v-121h-337v-1599z" />
    <glyph glyph-name="uni021B" unicode="&#x21b;" horiz-adv-x="551" 
d="M213 -616l-27 55q31 12 54.5 37.5t33.5 58.5q19 56 19 105h-129v180h184v-25v-63q0 -34 -1 -59q0 -10 -0.5 -30t-1.5 -27q-2 -61 -11 -97q-11 -51 -28 -75q-34 -48 -83 -58q-2 0 -5 -1q-4 -1 -5 -1zM168 283v831h-164v84h164v424h149v-424h193v-84h-193v-823
q0 -82 7 -121q9 -42 28.5 -57.5t67.5 -18.5q46 0 88 8v-102q-68 -18 -131 -18q-108 0 -157 61q-22 28 -35 70q-14 44 -15 79q-2 50 -2 91z" />
    <glyph glyph-name="uni0237" unicode="&#x237;" horiz-adv-x="410" 
d="M-72 -311v106q12 0 25.5 -0.5t20.5 -1t10 -0.5q83 0 119 71q10 15 13 43q5 41 5 75v1216h149v-1243q0 -274 -262 -274q-37 0 -80 8z" />
    <glyph glyph-name="circumflex" unicode="&#x2c6;" horiz-adv-x="713" 
d="M207 1407h-113l156 307h213l153 -307h-110l-150 299z" />
    <glyph glyph-name="caron" unicode="&#x2c7;" horiz-adv-x="618" 
d="M340 1323h-57l-209 348h141l96 -237l95 237h143z" />
    <glyph glyph-name="breve" unicode="&#x2d8;" horiz-adv-x="739" 
d="M92 1581h111q13 -93 56 -127q42 -33 108 -33q67 0 109 33q43 34 56 127h111q-2 -76 -29 -131.5t-71 -84.5q-80 -52 -175 -52t-175 52q-44 29 -71.5 84.5t-29.5 131.5z" />
    <glyph glyph-name="dotaccent" unicode="&#x2d9;" horiz-adv-x="410" 
d="M297 1380h-184v179h184v-179z" />
    <glyph glyph-name="ring" unicode="&#x2da;" horiz-adv-x="637" 
d="M154 1657q57 65 163 65q107 0 163 -66q57 -64 57 -153t-57 -153q-55 -64 -163 -64q-106 0 -163 64q-56 65 -56 153q0 87 56 154zM211 1608q-35 -46 -35 -104q0 -59 34 -102q35 -44 106 -44q73 0 108 44t35 102q0 59 -35 103t-108 44q-72 0 -105 -43z" />
    <glyph glyph-name="ogonek" unicode="&#x2db;" horiz-adv-x="475" 
d="M379 -289v-69q-103 0 -177 13q-54 10 -77.5 39.5t-26.5 86.5q0 69 54 133q56 64 102 86h68q-132 -116 -132 -211q1 -51 47 -66q11 -6 46 -9q4 -1 14 -1.5t15 -0.5q27 -1 67 -1z" />
    <glyph glyph-name="tilde" unicode="&#x2dc;" horiz-adv-x="754" 
d="M217 1376h-115q0 38 18 85q33 98 169 102q27 0 95 -38t89 -38q31 0 46.5 14.5t21.5 52.5h114v-14q0 -1 -1.5 -11t-2.5 -14.5t-3 -15t-4.5 -17t-6 -16.5t-8.5 -18t-11 -17t-14 -16.5t-17 -14.5q-41 -36 -115 -36q-38 0 -104 39q-65 39 -89 39q-28 0 -43 -15t-19 -51z" />
    <glyph glyph-name="hungarumlaut" unicode="&#x2dd;" horiz-adv-x="655" 
d="M389 1407h-57l104 313h162zM160 1407h-60l107 313h160z" />
    <glyph glyph-name="gravecomb" unicode="&#x300;" horiz-adv-x="451" 
d="M336 1389h-57l-230 397h164z" />
    <glyph glyph-name="acutecomb" unicode="&#x301;" horiz-adv-x="444" 
d="M152 1389h-56l123 399h162z" />
    <glyph glyph-name="uni0302" unicode="&#x302;" horiz-adv-x="713" 
d="M207 1389h-113l156 307h213l153 -307h-110l-150 299z" />
    <glyph glyph-name="tildecomb" unicode="&#x303;" horiz-adv-x="754" 
d="M217 1401l-115 -1l14 44q16 48 34 71q42 55 139 50q27 0 95 -38t89 -38q31 0 46.5 15t21.5 53h114v-14q-1 -12 -11 -40q-14 -38 -57 -79q-37 -35 -115 -35q-37 0 -104 38q-65 39 -89 39q-28 0 -43 -14.5t-19 -50.5z" />
    <glyph glyph-name="uni0306" unicode="&#x306;" horiz-adv-x="739" 
d="M92 1657h111q13 -93 56 -127q42 -33 108 -33q67 0 109 33q43 34 56 127h111q-2 -76 -29 -132t-71 -85q-81 -51 -175 -51t-175 51q-44 29 -71.5 85t-29.5 132z" />
    <glyph glyph-name="hookabovecomb" unicode="&#x309;" horiz-adv-x="610" 
d="M227 1388v26q0 36 60 88t64 81q4 31 -9 46q-13 14 -51 20q-70 0 -90 -43q-9 10 -27.5 26.5t-32.5 27.5l-14 11q2 3 5.5 9t17 20t29.5 25.5t42 20.5t55 10q54 0 88 -15q30 -13 49 -30t35 -52q14 -36 10 -86t-63 -100q-57 -47 -60 -60v-25h-108z" />
    <glyph glyph-name="uni030F" unicode="&#x30f;" horiz-adv-x="666" 
d="M334 1407h-60l-206 313h159zM565 1407h-59l-207 313h160z" />
    <glyph glyph-name="uni0311" unicode="&#x311;" horiz-adv-x="737" 
d="M201 1313h-111q2 76 29 131.5t71 83.5q82 53 175 53q94 0 176 -53q44 -28 71 -83.5t29 -131.5h-111q-13 93 -56 127q-42 33 -109 33q-66 0 -108 -33q-43 -34 -56 -127z" />
    <glyph glyph-name="dotbelowcomb" unicode="&#x323;" horiz-adv-x="410" 
d="M297 -342h-184v178h184v-178z" />
    <glyph glyph-name="uni0326" unicode="&#x326;" horiz-adv-x="502" 
d="M205 -522l-27 55q66 24 88 96q19 60 19 105h-129v180h186v-25v-63q0 -33 -1 -58l-3 -57l-5 -51q-3 -33 -7 -47q-13 -53 -28 -75q-34 -48 -83 -58q-8 -2 -10 -2z" />
    <glyph glyph-name="uni1E02" unicode="&#x1e02;" horiz-adv-x="1012" 
d="M635 1868h-184v178h184v-178zM299 1606v-625h244q55 -1 95 24t62 69t32 95.5t9 110.5q0 326 -245 326h-197zM299 864v-747h270q100 0 155 77q24 35 38 88q26 99 26 230q0 125 -24 205q-44 147 -195 147h-270zM547 0h-402v1720h371q177 0 270 -90q42 -39 71 -99
q48 -100 48 -247q0 -107 -49 -209q-50 -103 -137 -141q124 -55 175 -184q46 -115 46 -238q0 -185 -42 -297q-25 -69 -68 -115t-116.5 -73t-166.5 -27z" />
    <glyph glyph-name="uni1E03" unicode="&#x1e03;" horiz-adv-x="870" 
d="M535 1843h-185v178h185v-178zM614 545v94q3 299 -44 407q-10 32 -30 45q-17 14 -31 18.5t-38 4.5q-94 0 -201 -119v-790q46 -54 99.5 -87.5t97.5 -33.5q18 0 28.5 1.5t26 7t25.5 18.5t22 34.5t19 56t13.5 81.5t9.5 113t3 149zM270 0h-149v1720h149v-635q47 68 107.5 104
t124.5 36q42 0 74 -9q31 -7 70 -43t61 -94q59 -146 59 -438v-94q0 -109 -9 -196q-17 -164 -57 -248q-35 -77 -82 -103.5t-106 -26.5q-152 0 -242 140v-113z" />
    <glyph glyph-name="uni1E0A" unicode="&#x1e0a;" horiz-adv-x="1085" 
d="M651 1868h-184v178h184v-178zM532 0h-387v1720h387q122 0 209.5 -39t137 -111t72 -161t22.5 -201v-700q0 -508 -441 -508zM299 1599v-1476h233q287 0 287 350v768q0 358 -287 358h-233z" />
    <glyph glyph-name="uni1E0B" unicode="&#x1e0b;" horiz-adv-x="866" 
d="M514 1843h-182v178h182v-178zM596 205v790q-107 119 -201 119q-23 -1 -37 -4t-31.5 -18.5t-30.5 -45.5q-49 -114 -44 -407v-94q0 -83 3 -149t9.5 -113t13.5 -81.5t19 -56t22 -34.5t25.5 -18.5t26 -7t28.5 -1.5q44 0 97.5 33.5t99.5 87.5zM745 0h-149v113
q-90 -140 -242 -140q-92 0 -147 61q-103 125 -107 513v94q0 297 57 438q25 59 63 94q39 36 70 43q32 9 75 9q64 0 124 -36t107 -104v635h149v-1720z" />
    <glyph glyph-name="uni1E1E" unicode="&#x1e1e;" horiz-adv-x="735" 
d="M541 1868h-185v178h185v-178zM299 0h-154v1720h607v-121h-453v-653h354v-115h-354v-831z" />
    <glyph glyph-name="uni1E1F" unicode="&#x1e1f;" horiz-adv-x="532" 
d="M356 1774h-184v180h184v-180zM328 0h-152v1114h-166v84h166v129v19v49q0 24 4 56q5 37 12 59q28 73 61 100q56 43 140 43q71 0 123 -15v-108q-24 6 -74 6q-61 0 -91 -32q-11 -11 -17 -36q-6 -24 -6 -82v-8v-180h190v-84h-190v-1114z" />
    <glyph glyph-name="uni1E40" unicode="&#x1e40;" horiz-adv-x="1329" 
d="M758 1868h-185v178h185v-178zM281 0h-136v1720h189l332 -1484q53 265 160 713q102 423 171 771h187v-1720h-135v1376l-318 -1376h-133l-317 1376v-1376z" />
    <glyph glyph-name="uni1E41" unicode="&#x1e41;" horiz-adv-x="1335" 
d="M764 1348h-184v178h184v-178zM270 0h-149v1198h149v-111q117 138 267 138q60 0 118 -38q57 -37 82 -97q59 64 128 99.5t128 35.5q93 0 161 -64q69 -63 69 -160v-1001h-150v971q0 71 -32.5 107t-90.5 36q-94 0 -190 -96v-1018h-150v971q0 143 -127 143q-51 0 -107.5 -31.5
t-105.5 -87.5v-995z" />
    <glyph glyph-name="uni1E56" unicode="&#x1e56;" horiz-adv-x="1004" 
d="M651 1868h-182v178h182v-178zM299 1599v-712h285q127 -2 182 86.5t55 281.5q0 178 -58 261t-179 83h-285zM299 0h-154v1720h422q111 0 192 -36.5t127 -102t67.5 -146t21.5 -178.5q0 -162 -52 -279q-92 -212 -358 -212h-266v-766z" />
    <glyph glyph-name="uni1E57" unicode="&#x1e57;" horiz-adv-x="870" 
d="M535 1348h-185v178h185v-178zM614 557v96q0 83 -3 149t-9.5 113t-13.5 81.5t-19 56t-22 34.5t-25.5 18.5t-26 7t-28.5 1.5q-45 0 -98 -33t-99 -88v-790q107 -119 201 -119q25 0 37 4q17 4 34.5 20t27.5 43q47 110 44 406zM270 -385h-149v1583h149v-113q90 140 242 140
q39 0 70 -9t67 -43.5t59.5 -94t40 -168.5t17.5 -259v-94q0 -291 -59 -439q-23 -59 -61 -94q-36 -32 -66.5 -41.5t-77.5 -9.5q-137 0 -232 140v-498z" />
    <glyph glyph-name="uni1E60" unicode="&#x1e60;" horiz-adv-x="948" 
d="M575 1868h-184v178h184v-178zM68 416l135 39q17 -149 84 -247q78 -114 223 -114q117 0 180.5 65.5t63.5 184.5q0 98 -59 190q-60 95 -173 214l-268 282q-93 98 -137.5 178t-44.5 166q0 168 111 269q113 102 286 102q168 0 271.5 -95t136.5 -278l4 -16l-129 -39l-2 12
q-21 128 -93 211q-70 82 -188 82q-117 0 -183.5 -58.5t-66.5 -168.5q0 -66 35 -131t106 -144l252 -274l50 -55q40 -43 52 -58q7 -7 47 -54q34 -40 46 -61l35 -58q25 -39 32 -66q25 -75 25 -138q0 -184 -114 -284q-113 -99 -293 -99q-92 0 -167.5 35t-126.5 97t-83.5 140.5
t-46.5 170.5z" />
    <glyph glyph-name="uni1E61" unicode="&#x1e61;" horiz-adv-x="750" 
d="M473 1348h-184v178h184v-178zM57 299l115 41q28 -90 84 -168q64 -90 152 -90q76 0 116.5 46.5t40.5 129.5q0 117 -205 297l-88 76q-98 86 -148 154q-50 70 -50 153q0 135 82 210t219 75q132 0 205 -95q71 -89 102 -208l-133 -41q-11 55 -30 105q-20 51 -59 90
q-40 40 -93 40q-67 0 -106.5 -44.5t-39.5 -117.5q0 -57 37 -111t113 -118l96 -84q38 -33 69 -62q28 -24 63 -64q39 -43 56 -75q48 -82 52 -176q0 -136 -85 -212q-86 -77 -221 -77q-132 0 -221 92q-88 93 -123 234z" />
    <glyph glyph-name="uni1E6A" unicode="&#x1e6a;" horiz-adv-x="754" 
d="M469 1868h-184v178h184v-178zM451 0h-152v1599h-336v121h825v-121h-337v-1599z" />
    <glyph glyph-name="uni1E6B" unicode="&#x1e6b;" horiz-adv-x="551" 
d="M348 1745h-182v178h182v-178zM168 283v831h-164v84h164v424h149v-424h193v-84h-193v-823q0 -82 7 -121q9 -42 28.5 -57.5t67.5 -18.5q46 0 88 8v-102q-68 -18 -131 -18q-108 0 -157 61q-22 28 -35 70q-14 44 -15 79q-2 50 -2 91z" />
    <glyph glyph-name="Wgrave" unicode="&#x1e80;" horiz-adv-x="1415" 
d="M735 1909h-55l-229 397h161zM485 0h-174l-288 1720h143l233 -1470l224 1470h192l203 -1470l233 1470h142l-285 -1720h-176l-215 1520z" />
    <glyph glyph-name="wgrave" unicode="&#x1e81;" horiz-adv-x="1161" 
d="M608 1389h-55l-229 397h161zM399 0h-159l-197 1198h129l160 -1022l170 1022h160l184 -1022l143 1022h129l-194 -1198h-146l-192 987z" />
    <glyph glyph-name="Wacute" unicode="&#x1e82;" horiz-adv-x="1415" 
d="M735 1909h-55l123 397h162zM485 0h-174l-288 1720h143l233 -1470l224 1470h192l203 -1470l233 1470h142l-285 -1720h-176l-215 1520z" />
    <glyph glyph-name="wacute" unicode="&#x1e83;" horiz-adv-x="1161" 
d="M608 1389h-55l123 397h162zM399 0h-159l-197 1198h129l160 -1022l170 1022h160l184 -1022l143 1022h129l-194 -1198h-146l-192 987z" />
    <glyph glyph-name="Wdieresis" unicode="&#x1e84;" horiz-adv-x="1415" 
d="M991 1909h-182v178h182v-178zM608 1909h-184v178h184v-178zM485 0h-174l-288 1720h143l233 -1470l224 1470h192l203 -1470l233 1470h142l-285 -1720h-176l-215 1520z" />
    <glyph glyph-name="wdieresis" unicode="&#x1e85;" horiz-adv-x="1161" 
d="M864 1389h-182v178h182v-178zM481 1389h-184v178h184v-178zM399 0h-159l-197 1198h129l160 -1022l170 1022h160l184 -1022l143 1022h129l-194 -1198h-146l-192 987z" />
    <glyph glyph-name="uni1EA0" unicode="&#x1ea0;" horiz-adv-x="973" 
d="M485 1563l-180 -1014h361zM289 449l-88 -449h-154l340 1720h199l340 -1720h-156l-86 449h-395zM575 -342h-184v178h184v-178z" />
    <glyph glyph-name="uni1EA1" unicode="&#x1ea1;" horiz-adv-x="809" 
d="M555 244v422q-112 -80 -116 -83q-44 -32 -89 -72q-49 -44 -71 -76q-54 -78 -54 -169q0 -87 37 -127q38 -41 84 -41q56 0 115 41q60 42 94 105zM725 0h-141l-19 145q-47 -82 -116.5 -127t-137.5 -45q-92 0 -164 74q-71 74 -71 193q0 49 6 101q5 44 36 103q16 28 37.5 50
t64.5 59q88 75 335 180v10q0 101 -9 174t-22 112t-34.5 61.5t-39 28t-42.5 5.5q-54 0 -94 -36q-53 -48 -60 -193v-6h-156q13 159 92.5 247.5t210.5 88.5q72 0 129 -23t89 -60q33 -38 52 -87q36 -87 36 -203v-576q0 -71 4 -132q5 -73 10 -105zM505 -342h-184v178h184v-178z
" />
    <glyph glyph-name="uni1EA2" unicode="&#x1ea2;" horiz-adv-x="973" 
d="M305 549l180 1014l181 -1014h-361zM201 0l88 449h395l86 -449h156l-340 1720h-199l-340 -1720h154zM410 1908v26q0 36 60 88t64 81q4 31 -9 46q-13 14 -51 20q-70 0 -90 -43q-9 10 -27.5 26.5t-32.5 27.5l-14 11q2 3 5.5 9t17 20t29.5 25.5t42 20.5t55 10q54 0 88 -15
q30 -13 49 -30t35 -52q14 -36 10 -86t-63 -100q-57 -47 -60 -60v-25h-108z" />
    <glyph glyph-name="uni1EA3" unicode="&#x1ea3;" horiz-adv-x="809" 
d="M555 244q-34 -63 -94 -105q-59 -41 -115 -41q-46 0 -84 41q-37 40 -37 127q0 91 54 169q22 32 71 76q45 40 89 72q4 3 116 83v-422zM584 0h141l-4 39q-5 32 -10 105q-4 61 -4 132v576q0 116 -36 203q-19 49 -52 87q-32 37 -89 60t-129 23q-131 0 -210.5 -88.5
t-92.5 -247.5h156v6q7 145 60 193q40 36 94 36q25 0 42.5 -5.5t39 -28t34.5 -61.5t22 -112t9 -174v-10q-247 -105 -335 -180q-29 -25 -44 -38.5t-31 -32t-27 -38.5q-31 -59 -36 -103q-6 -52 -6 -101q0 -119 71 -193q72 -74 164 -74q68 0 137.5 45t116.5 127zM358 1386v26
q0 36 60 88t64 81q4 31 -9 46q-13 14 -51 20q-70 0 -90 -43q-9 10 -27.5 26.5t-32.5 27.5l-14 11q2 3 5.5 9t17 20t29.5 25.5t42 20.5t55 10q54 0 88 -15q30 -13 49 -30t35 -52q14 -36 10 -86t-63 -100q-57 -47 -60 -60v-25h-108z" />
    <glyph glyph-name="uni1EA4" unicode="&#x1ea4;" horiz-adv-x="973" 
d="M338 1909h-113l156 307h213l154 -307h-111l-150 299zM485 1563l-180 -1014h361zM289 449l-88 -449h-154l340 1720h199l340 -1720h-156l-86 449h-395zM762 2158h-56l123 399h162z" />
    <glyph glyph-name="uni1EA5" unicode="&#x1ea5;" horiz-adv-x="809" 
d="M252 1389h-115l158 307h213l151 -307h-108l-152 299zM555 244v422q-112 -80 -116 -83q-44 -32 -89 -72q-49 -44 -71 -76q-54 -78 -54 -169q0 -87 37 -127q38 -41 84 -41q56 0 115 41q60 42 94 105zM725 0h-141l-19 145q-47 -82 -116.5 -127t-137.5 -45q-92 0 -164 74
q-71 74 -71 193q0 49 6 101q5 44 36 103q16 28 37.5 50t64.5 59q88 75 335 180v10q0 101 -9 174t-22 112t-34.5 61.5t-39 28t-42.5 5.5q-54 0 -94 -36q-53 -48 -60 -193v-6h-156q13 159 92.5 247.5t210.5 88.5q72 0 129 -23t89 -60q33 -38 52 -87q36 -87 36 -203v-576
q0 -71 4 -132q5 -73 10 -105zM658 1640h-56l123 399h162z" />
    <glyph glyph-name="uni1EA6" unicode="&#x1ea6;" horiz-adv-x="973" 
d="M338 1909h-113l156 307h213l154 -307h-111l-150 299zM485 1563l-180 -1014h361zM289 449l-88 -449h-154l340 1720h199l340 -1720h-156l-86 449h-395zM799 2156h-57l-230 397h164z" />
    <glyph glyph-name="uni1EA7" unicode="&#x1ea7;" horiz-adv-x="809" 
d="M252 1389h-115l158 307h213l151 -307h-108l-152 299zM555 244v422q-112 -80 -116 -83q-44 -32 -89 -72q-49 -44 -71 -76q-54 -78 -54 -169q0 -87 37 -127q38 -41 84 -41q56 0 115 41q60 42 94 105zM725 0h-141l-19 145q-47 -82 -116.5 -127t-137.5 -45q-92 0 -164 74
q-71 74 -71 193q0 49 6 101q5 44 36 103q16 28 37.5 50t64.5 59q88 75 335 180v10q0 101 -9 174t-22 112t-34.5 61.5t-39 28t-42.5 5.5q-54 0 -94 -36q-53 -48 -60 -193v-6h-156q13 159 92.5 247.5t210.5 88.5q72 0 129 -23t89 -60q33 -38 52 -87q36 -87 36 -203v-576
q0 -71 4 -132q5 -73 10 -105zM712 1639h-57l-230 397h164z" />
    <glyph glyph-name="uni1EA8" unicode="&#x1ea8;" horiz-adv-x="973" 
d="M225 1909h113l149 299l150 -299h111l-154 307h-213zM305 549l180 1014l181 -1014h-361zM201 0l88 449h395l86 -449h156l-340 1720h-199l-340 -1720h154zM704 2156v26q0 36 60 88t64 81q4 31 -9 46q-13 14 -51 20q-70 0 -90 -43q-9 10 -27.5 26.5t-32.5 27.5l-14 11
q2 3 5.5 9t17 20t29.5 25.5t42 20.5t55 10q54 0 88 -15q30 -13 49 -30t35 -52q14 -36 10 -86t-63 -100q-57 -47 -60 -60v-25h-108z" />
    <glyph glyph-name="uni1EA9" unicode="&#x1ea9;" horiz-adv-x="809" 
d="M137 1389h115l147 299l152 -299h108l-151 307h-213zM555 244q-34 -63 -94 -105q-59 -41 -115 -41q-46 0 -84 41q-37 40 -37 127q0 91 54 169q22 32 71 76q45 40 89 72q4 3 116 83v-422zM584 0h141l-4 39q-5 32 -10 105q-4 61 -4 132v576q0 116 -36 203q-19 49 -52 87
q-32 37 -89 60t-129 23q-131 0 -210.5 -88.5t-92.5 -247.5h156v6q7 145 60 193q40 36 94 36q25 0 42.5 -5.5t39 -28t34.5 -61.5t22 -112t9 -174v-10q-247 -105 -335 -180q-29 -25 -44 -38.5t-31 -32t-27 -38.5q-31 -59 -36 -103q-6 -52 -6 -101q0 -119 71 -193
q72 -74 164 -74q68 0 137.5 45t116.5 127zM603 1639v26q0 35 60 88q60 52 64 81q4 31 -9 46q-13 14 -51 20q-70 0 -90 -43q-9 10 -27.5 26.5t-32.5 27.5l-14 11q2 3 5.5 9t17 20t29.5 25.5t42 20.5t55 10q54 0 88 -15q30 -13 49 -30t35 -52q14 -36 10 -86t-63 -100
q-57 -46 -60 -60v-25h-108z" />
    <glyph glyph-name="uni1EAA" unicode="&#x1eaa;" horiz-adv-x="973" 
d="M338 1909h-113l156 307h213l154 -307h-111l-150 299zM485 1563l-180 -1014h361zM289 449l-88 -449h-154l340 1720h199l340 -1720h-156l-86 449h-395zM400 2264l-115 -1l14 44q16 48 34 71q42 55 139 50q27 0 95 -38t89 -38q31 0 46.5 15t21.5 53h114v-14q-1 -12 -11 -40
q-14 -38 -57 -79q-37 -35 -115 -35q-37 0 -104 38q-64 39 -89 39q-28 0 -43 -14.5t-19 -50.5z" />
    <glyph glyph-name="uni1EAB" unicode="&#x1eab;" horiz-adv-x="809" 
d="M252 1389h-115l158 307h213l151 -307h-108l-152 299zM555 244v422q-112 -80 -116 -83q-44 -32 -89 -72q-49 -44 -71 -76q-54 -78 -54 -169q0 -87 37 -127q38 -41 84 -41q56 0 115 41q60 42 94 105zM725 0h-141l-19 145q-47 -82 -116.5 -127t-137.5 -45q-92 0 -164 74
q-71 74 -71 193q0 49 6 101q5 44 36 103q16 28 37.5 50t64.5 59q88 75 335 180v10q0 101 -9 174t-22 112t-34.5 61.5t-39 28t-42.5 5.5q-54 0 -94 -36q-53 -48 -60 -193v-6h-156q13 159 92.5 247.5t210.5 88.5q72 0 129 -23t89 -60q33 -38 52 -87q36 -87 36 -203v-576
q0 -71 4 -132q5 -73 10 -105zM289 1738l-115 -1l14 44q16 48 34 71q42 55 139 50q27 0 95 -38t89 -38q31 0 46.5 15t21.5 53h114v-14q-1 -12 -11 -40q-14 -38 -57 -79q-37 -35 -115 -35q-37 0 -104 38q-64 39 -89 39q-28 0 -43 -14.5t-19 -50.5z" />
    <glyph glyph-name="uni1EAC" unicode="&#x1eac;" horiz-adv-x="973" 
d="M576 -354h-184v178h184v-178zM338 1909h-113l156 307h213l154 -307h-111l-150 299zM485 1563l-180 -1014h361zM289 449l-88 -449h-154l340 1720h199l340 -1720h-156l-86 449h-395z" />
    <glyph glyph-name="uni1EAD" unicode="&#x1ead;" horiz-adv-x="809" 
d="M494 -354h-184v178h184v-178zM252 1389h-115l158 307h213l151 -307h-108l-152 299zM555 244v422q-112 -80 -116 -83q-44 -32 -89 -72q-49 -44 -71 -76q-54 -78 -54 -169q0 -87 37 -127q38 -41 84 -41q56 0 115 41q60 42 94 105zM725 0h-141l-19 145q-47 -82 -116.5 -127
t-137.5 -45q-92 0 -164 74q-71 74 -71 193q0 49 6 101q5 44 36 103q16 28 37.5 50t64.5 59q88 75 335 180v10q0 101 -9 174t-22 112t-34.5 61.5t-39 28t-42.5 5.5q-54 0 -94 -36q-53 -48 -60 -193v-6h-156q13 159 92.5 247.5t210.5 88.5q72 0 129 -23t89 -60q33 -38 52 -87
q36 -87 36 -203v-576q0 -71 4 -132q5 -73 10 -105z" />
    <glyph glyph-name="uni1EAE" unicode="&#x1eae;" horiz-adv-x="973" 
d="M211 2175h111q14 -88 54 -123t110 -35q71 0 111 35t54 123h111q-2 -74 -29 -129.5t-72 -85.5q-75 -51 -175 -51t-175 51q-44 30 -71 85.5t-29 129.5zM485 1563l-180 -1014h361zM289 449l-88 -449h-154l340 1720h199l340 -1720h-156l-86 449h-395zM480 2156h-56l123 399
h162z" />
    <glyph glyph-name="uni1EAF" unicode="&#x1eaf;" horiz-adv-x="809" 
d="M125 1657h111q13 -93 56 -127q42 -33 108 -33q67 0 109 33q43 34 56 127h111q-2 -75 -29.5 -131.5t-71.5 -86.5q-77 -50 -175 -50t-175 50q-44 30 -71 86t-29 132zM555 244v422q-112 -80 -116 -83q-44 -32 -89 -72q-49 -44 -71 -76q-54 -78 -54 -169q0 -87 37 -127
q38 -41 84 -41q56 0 115 41q60 42 94 105zM725 0h-141l-19 145q-47 -82 -116.5 -127t-137.5 -45q-92 0 -164 74q-71 74 -71 193q0 49 6 101q5 44 36 103q16 28 37.5 50t64.5 59q88 75 335 180v10q0 101 -9 174t-22 112t-34.5 61.5t-39 28t-42.5 5.5q-54 0 -94 -36
q-53 -48 -60 -193v-6h-156q13 159 92.5 247.5t210.5 88.5q72 0 129 -23t89 -60q33 -38 52 -87q36 -87 36 -203v-576q0 -71 4 -132q5 -73 10 -105zM387 1637h-56l123 399h162z" />
    <glyph glyph-name="uni1EB0" unicode="&#x1eb0;" horiz-adv-x="973" 
d="M211 2175h111q14 -88 54 -123t110 -35q71 0 111 35t54 123h111q-2 -74 -29 -129.5t-72 -85.5q-75 -51 -175 -51t-175 51q-44 30 -71 85.5t-29 129.5zM485 1563l-180 -1014h361zM289 449l-88 -449h-154l340 1720h199l340 -1720h-156l-86 449h-395zM584 2158h-57l-230 397
h164z" />
    <glyph glyph-name="uni1EB1" unicode="&#x1eb1;" horiz-adv-x="809" 
d="M125 1657h111q13 -93 56 -127q42 -33 108 -33q67 0 109 33q43 34 56 127h111q-2 -75 -29.5 -131.5t-71.5 -86.5q-77 -50 -175 -50t-175 50q-44 30 -71 86t-29 132zM555 244v422q-112 -80 -116 -83q-44 -32 -89 -72q-49 -44 -71 -76q-54 -78 -54 -169q0 -87 37 -127
q38 -41 84 -41q56 0 115 41q60 42 94 105zM725 0h-141l-19 145q-47 -82 -116.5 -127t-137.5 -45q-92 0 -164 74q-71 74 -71 193q0 49 6 101q5 44 36 103q16 28 37.5 50t64.5 59q88 75 335 180v10q0 101 -9 174t-22 112t-34.5 61.5t-39 28t-42.5 5.5q-54 0 -94 -36
q-53 -48 -60 -193v-6h-156q13 159 92.5 247.5t210.5 88.5q72 0 129 -23t89 -60q33 -38 52 -87q36 -87 36 -203v-576q0 -71 4 -132q5 -73 10 -105zM482 1637h-57l-230 397h164z" />
    <glyph glyph-name="uni1EB2" unicode="&#x1eb2;" horiz-adv-x="973" 
d="M211 2175q2 -74 29 -129.5t71 -85.5q75 -51 175 -51t175 51q45 30 72 85.5t29 129.5h-111q-14 -88 -54 -123t-111 -35q-70 0 -110 35t-54 123h-111zM305 549l180 1014l181 -1014h-361zM201 0l88 449h395l86 -449h156l-340 1720h-199l-340 -1720h154zM427 2171v26
q0 35 60 88q60 52 64 81q4 31 -9 46q-13 14 -51 20q-70 0 -90 -43q-9 10 -27.5 26.5t-32.5 27.5l-14 11q2 3 5.5 9t17 20t29.5 25.5t42 20.5t55 10q54 0 88 -15q30 -13 49 -30t35 -52q14 -36 10 -86t-63 -100q-57 -46 -60 -60v-25h-108z" />
    <glyph glyph-name="uni1EB3" unicode="&#x1eb3;" horiz-adv-x="809" 
d="M125 1657q2 -76 29 -132t71 -86q77 -50 175 -50t175 50q44 30 71.5 86.5t29.5 131.5h-111q-13 -93 -56 -127q-42 -33 -109 -33q-66 0 -108 33q-43 34 -56 127h-111zM555 244q-34 -63 -94 -105q-59 -41 -115 -41q-46 0 -84 41q-37 40 -37 127q0 91 54 169q22 32 71 76
q45 40 89 72q4 3 116 83v-422zM584 0h141l-4 39q-5 32 -10 105q-4 61 -4 132v576q0 116 -36 203q-19 49 -52 87q-32 37 -89 60t-129 23q-131 0 -210.5 -88.5t-92.5 -247.5h156v6q7 145 60 193q40 36 94 36q25 0 42.5 -5.5t39 -28t34.5 -61.5t22 -112t9 -174v-10
q-247 -105 -335 -180q-29 -25 -44 -38.5t-31 -32t-27 -38.5q-31 -59 -36 -103q-6 -52 -6 -101q0 -119 71 -193q72 -74 164 -74q68 0 137.5 45t116.5 127zM350 1655v26q0 35 60 88q60 52 64 81q4 31 -9 46q-13 14 -51 20q-70 0 -90 -43q-9 10 -27.5 26.5t-32.5 27.5l-14 11
q2 3 5.5 9t17 20t29.5 25.5t42 20.5t55 10q54 0 88 -15q30 -13 49 -30t35 -52q14 -36 10 -86t-63 -100q-57 -46 -60 -60v-25h-108z" />
    <glyph glyph-name="uni1EB4" unicode="&#x1eb4;" horiz-adv-x="973" 
d="M211 2175h111q14 -88 54 -123t110 -35q71 0 111 35t54 123h111q-2 -74 -29 -129.5t-72 -85.5q-75 -51 -175 -51t-175 51q-44 30 -71 85.5t-29 129.5zM485 1563l-180 -1014h361zM289 449l-88 -449h-154l340 1720h199l340 -1720h-156l-86 449h-395zM336 2236l-115 -1l14 44
q16 48 34 71q42 55 139 50q27 0 95 -38t89 -38q31 0 46.5 15t21.5 53h114v-14q-1 -12 -11 -40q-14 -38 -57 -79q-37 -35 -115 -35q-37 0 -104 38q-65 39 -89 39q-28 0 -43 -14.5t-19 -50.5z" />
    <glyph glyph-name="uni1EB5" unicode="&#x1eb5;" horiz-adv-x="809" 
d="M125 1657h111q13 -93 56 -127q42 -33 108 -33q67 0 109 33q43 34 56 127h111q-2 -75 -29.5 -131.5t-71.5 -86.5q-77 -50 -175 -50t-175 50q-44 30 -71 86t-29 132zM555 244v422q-112 -80 -116 -83q-44 -32 -89 -72q-49 -44 -71 -76q-54 -78 -54 -169q0 -87 37 -127
q38 -41 84 -41q56 0 115 41q60 42 94 105zM725 0h-141l-19 145q-47 -82 -116.5 -127t-137.5 -45q-92 0 -164 74q-71 74 -71 193q0 49 6 101q5 44 36 103q16 28 37.5 50t64.5 59q88 75 335 180v10q0 101 -9 174t-22 112t-34.5 61.5t-39 28t-42.5 5.5q-54 0 -94 -36
q-53 -48 -60 -193v-6h-156q13 159 92.5 247.5t210.5 88.5q72 0 129 -23t89 -60q33 -38 52 -87q36 -87 36 -203v-576q0 -71 4 -132q5 -73 10 -105zM250 1703l-115 -1l14 44q16 48 34 71q42 55 139 50q27 0 95 -38t89 -38q31 0 46.5 15t21.5 53h114v-14q-1 -12 -11 -40
q-14 -38 -57 -79q-37 -35 -115 -35q-37 0 -104 38q-65 39 -89 39q-28 0 -43 -14.5t-19 -50.5z" />
    <glyph glyph-name="uni1EB6" unicode="&#x1eb6;" horiz-adv-x="973" 
d="M575 -342h-184v178h184v-178zM211 2175h111q14 -88 54 -123t110 -35q71 0 111 35t54 123h111q-2 -74 -29 -129.5t-72 -85.5q-75 -51 -175 -51t-175 51q-44 30 -71 85.5t-29 129.5zM485 1563l-180 -1014h361zM289 449l-88 -449h-154l340 1720h199l340 -1720h-156l-86 449
h-395z" />
    <glyph glyph-name="uni1EB7" unicode="&#x1eb7;" horiz-adv-x="809" 
d="M494 -342h-184v178h184v-178zM125 1657h111q13 -93 56 -127q42 -33 108 -33q67 0 109 33q43 34 56 127h111q-2 -75 -29.5 -131.5t-71.5 -86.5q-77 -50 -175 -50t-175 50q-44 30 -71 86t-29 132zM555 244v422q-112 -80 -116 -83q-44 -32 -89 -72q-49 -44 -71 -76
q-54 -78 -54 -169q0 -87 37 -127q38 -41 84 -41q56 0 115 41q60 42 94 105zM725 0h-141l-19 145q-47 -82 -116.5 -127t-137.5 -45q-92 0 -164 74q-71 74 -71 193q0 49 6 101q5 44 36 103q16 28 37.5 50t64.5 59q88 75 335 180v10q0 101 -9 174t-22 112t-34.5 61.5t-39 28
t-42.5 5.5q-54 0 -94 -36q-53 -48 -60 -193v-6h-156q13 159 92.5 247.5t210.5 88.5q72 0 129 -23t89 -60q33 -38 52 -87q36 -87 36 -203v-576q0 -71 4 -132q5 -73 10 -105z" />
    <glyph glyph-name="uni1EB8" unicode="&#x1eb8;" horiz-adv-x="795" 
d="M745 0h-600v1720h600v-121h-446v-653h319v-115h-319v-708h446v-123zM539 -342h-184v178h184v-178z" />
    <glyph glyph-name="uni1EB9" unicode="&#x1eb9;" horiz-adv-x="829" 
d="M258 702h332v47q1 33 0.5 66.5t-1.5 66t-5 63t-10.5 57.5t-17.5 49.5t-26 38.5t-37 25t-49 9q-99 0 -146 -68q-18 -24 -29 -91q-8 -60 -10 -112q-1 -32 -1 -151zM107 553v166q0 240 62 362q44 82 108.5 113.5t158.5 30.5q162 0 232 -114q71 -115 71 -359q0 -61 -2 -123
h-481v-185q0 -228 49 -306q24 -37 53 -50.5t78 -13.5q68 0 113 67q45 68 47 226h139q-12 -139 -48 -228q-66 -166 -249 -166q-127 0 -198 50q-70 51 -103 177t-30 353zM523 -342h-184v178h184v-178z" />
    <glyph glyph-name="uni1EBA" unicode="&#x1eba;" horiz-adv-x="795" 
d="M145 0h600v123h-446v708h319v115h-319v653h446v121h-600v-1720zM403 1910v26q0 35 60 88q60 52 64 81q4 31 -9 46q-13 14 -51 20q-70 0 -90 -43q-9 10 -27.5 26.5t-32.5 27.5l-14 11q2 3 5.5 9t17 20t29.5 25.5t42 20.5t55 10q54 0 88 -15q30 -13 49 -30t35 -52
q14 -36 10 -86t-63 -100q-57 -47 -60 -60v-25h-108z" />
    <glyph glyph-name="uni1EBB" unicode="&#x1ebb;" horiz-adv-x="829" 
d="M258 702q0 119 1 151q2 52 10 112q11 67 29 91q47 68 146 68q53 0 85.5 -29.5t44.5 -97.5t14.5 -111t1.5 -137v-47h-332zM107 553q-3 -227 30 -353t103 -177q71 -50 198 -50q183 0 249 166q36 89 48 228h-139q-2 -158 -47 -226q-45 -67 -113 -67q-49 0 -78 13.5t-53 50.5
q-49 78 -49 306v185h481q2 62 2 123q0 244 -71 359q-70 114 -232 114q-94 1 -158.5 -30.5t-108.5 -113.5q-62 -122 -62 -362v-166zM384 1388v26q0 36 60 88t64 81q4 31 -9 46q-13 14 -51 20q-70 0 -90 -43q-9 10 -27.5 26.5t-32.5 27.5l-14 11q2 3 5.5 9t17 20t29.5 25.5
t42 20.5t55 10q54 0 88 -15q30 -13 49 -30t35 -52q14 -36 10 -86t-63 -100q-57 -47 -60 -60v-25h-108z" />
    <glyph glyph-name="Etilde" unicode="&#x1ebc;" horiz-adv-x="795" 
d="M745 0h-600v1720h600v-121h-446v-653h319v-115h-319v-708h446v-123zM286 1920l-115 -1l14 44q16 48 34 71q42 55 139 50q27 0 95 -38t89 -38q31 0 46.5 15t21.5 53h114v-14q-1 -12 -11 -40q-14 -38 -57 -79q-37 -35 -115 -35q-37 0 -104 38q-65 39 -89 39
q-28 0 -43 -14.5t-19 -50.5z" />
    <glyph glyph-name="etilde" unicode="&#x1ebd;" horiz-adv-x="829" 
d="M258 702h332v47q1 33 0.5 66.5t-1.5 66t-5 63t-10.5 57.5t-17.5 49.5t-26 38.5t-37 25t-49 9q-99 0 -146 -68q-18 -24 -29 -91q-8 -60 -10 -112q-1 -32 -1 -151zM107 553v166q0 240 62 362q44 82 108.5 113.5t158.5 30.5q162 0 232 -114q71 -115 71 -359q0 -61 -2 -123
h-481v-185q0 -228 49 -306q24 -37 53 -50.5t78 -13.5q68 0 113 67q45 68 47 226h139q-12 -139 -48 -228q-66 -166 -249 -166q-127 0 -198 50q-70 51 -103 177t-30 353zM274 1401l-115 -1l14 44q16 48 34 71q42 55 139 50q27 0 95 -38t89 -38q31 0 46.5 15t21.5 53h114v-14
q-1 -12 -11 -40q-14 -38 -57 -79q-37 -35 -115 -35q-37 0 -104 38q-64 39 -89 39q-28 0 -43 -14.5t-19 -50.5z" />
    <glyph glyph-name="uni1EBE" unicode="&#x1ebe;" horiz-adv-x="795" 
d="M299 1909h-115l158 307h213l152 -307h-109l-152 299zM745 0h-600v1720h600v-121h-446v-653h319v-115h-319v-708h446v-123zM710 2156h-56l123 399h162z" />
    <glyph glyph-name="uni1EBF" unicode="&#x1ebf;" horiz-adv-x="829" 
d="M274 1389h-112l155 307h213l152 -307h-109l-149 299zM258 702h332v47q1 33 0.5 66.5t-1.5 66t-5 63t-10.5 57.5t-17.5 49.5t-26 38.5t-37 25t-49 9q-99 0 -146 -68q-18 -24 -29 -91q-8 -60 -10 -112q-1 -32 -1 -151zM106 553v166q0 238 63 362q44 82 108.5 113.5
t158.5 30.5q162 0 232 -114q71 -115 71 -359q0 -61 -2 -123h-481v-185q0 -228 49 -306q24 -37 53 -50.5t78 -13.5q68 0 113 67q45 68 47 226h139q-12 -139 -48 -228q-66 -166 -249 -166q-127 0 -198 50q-71 52 -103.5 178.5t-30.5 351.5zM686 1638h-56l123 399h162z" />
    <glyph glyph-name="uni1EC0" unicode="&#x1ec0;" horiz-adv-x="795" 
d="M299 1909h-115l158 307h213l152 -307h-109l-152 299zM745 0h-600v1720h600v-121h-446v-653h319v-115h-319v-708h446v-123zM769 2158h-57l-230 397h164z" />
    <glyph glyph-name="uni1EC1" unicode="&#x1ec1;" horiz-adv-x="829" 
d="M274 1389h-112l155 307h213l152 -307h-109l-149 299zM258 702h332v47q1 33 0.5 66.5t-1.5 66t-5 63t-10.5 57.5t-17.5 49.5t-26 38.5t-37 25t-49 9q-99 0 -146 -68q-18 -24 -29 -91q-8 -60 -10 -112q-1 -32 -1 -151zM106 553v166q0 238 63 362q44 82 108.5 113.5
t158.5 30.5q162 0 232 -114q71 -115 71 -359q0 -61 -2 -123h-481v-185q0 -228 49 -306q24 -37 53 -50.5t78 -13.5q68 0 113 67q45 68 47 226h139q-12 -139 -48 -228q-66 -166 -249 -166q-127 0 -198 50q-71 52 -103.5 178.5t-30.5 351.5zM750 1640h-57l-230 397h164z" />
    <glyph glyph-name="uni1EC2" unicode="&#x1ec2;" horiz-adv-x="795" 
d="M184 1909h115l147 299l152 -299h109l-152 307h-213zM145 0h600v123h-446v708h319v115h-319v653h446v121h-600v-1720zM661 2154v26q0 36 60 88t64 81q4 31 -9 46q-13 14 -51 20q-70 0 -90 -43q-9 10 -27.5 26.5t-32.5 27.5l-14 11q2 3 5.5 9t17 20t29.5 25.5t42 20.5
t55 10q54 0 88 -15q30 -13 49 -30t35 -52q14 -36 10 -86t-63 -100q-57 -47 -60 -60v-25h-108z" />
    <glyph glyph-name="uni1EC3" unicode="&#x1ec3;" horiz-adv-x="829" 
d="M162 1389h112l150 299l149 -299h109l-152 307h-213zM258 702q0 119 1 151q2 52 10 112q11 67 29 91q47 68 146 68q53 0 85.5 -29.5t44.5 -97.5t14.5 -111t1.5 -137v-47h-332zM106 553q-2 -225 30.5 -351.5t103.5 -178.5q71 -50 198 -50q183 0 249 166q36 89 48 228h-139
q-2 -158 -47 -226q-45 -67 -113 -67q-49 0 -78 13.5t-53 50.5q-49 78 -49 306v185h481q2 62 2 123q0 244 -71 359q-70 114 -232 114q-94 1 -158.5 -30.5t-108.5 -113.5q-63 -124 -63 -362v-166zM659 1637v26q0 35 60 88q60 52 64 81q4 31 -9 46q-13 14 -51 20q-70 0 -90 -43
q-9 10 -27.5 26.5t-32.5 27.5l-14 11q2 3 5.5 9t17 20t29.5 25.5t42 20.5t55 10q54 0 88 -15q30 -13 49 -30t35 -52q14 -36 10 -86t-63 -100q-57 -46 -60 -60v-25h-108z" />
    <glyph glyph-name="uni1EC4" unicode="&#x1ec4;" horiz-adv-x="795" 
d="M299 1909h-115l158 307h213l152 -307h-109l-152 299zM745 0h-600v1720h600v-121h-446v-653h319v-115h-319v-708h446v-123zM328 2267l-115 -1l14 44q16 48 34 71q42 55 139 50q27 0 95 -38t89 -38q31 0 46.5 15t21.5 53h114v-14q-1 -12 -11 -40q-14 -38 -57 -79
q-37 -35 -115 -35q-37 0 -104 38q-64 39 -89 39q-28 0 -43 -14.5t-19 -50.5z" />
    <glyph glyph-name="uni1EC5" unicode="&#x1ec5;" horiz-adv-x="829" 
d="M274 1389h-112l155 307h213l152 -307h-109l-149 299zM258 702h332v47q1 33 0.5 66.5t-1.5 66t-5 63t-10.5 57.5t-17.5 49.5t-26 38.5t-37 25t-49 9q-99 0 -146 -68q-18 -24 -29 -91q-8 -60 -10 -112q-1 -32 -1 -151zM106 553v166q0 238 63 362q44 82 108.5 113.5
t158.5 30.5q162 0 232 -114q71 -115 71 -359q0 -61 -2 -123h-481v-185q0 -228 49 -306q24 -37 53 -50.5t78 -13.5q68 0 113 67q45 68 47 226h139q-12 -139 -48 -228q-66 -166 -249 -166q-127 0 -198 50q-71 52 -103.5 178.5t-30.5 351.5zM312 1750l-115 -1l14 44
q16 48 34 71q42 55 139 50q27 0 95 -38t89 -38q31 0 46.5 15t21.5 53h114v-14q-1 -12 -11 -40q-14 -38 -57 -79q-37 -35 -115 -35q-37 0 -104 38q-64 39 -89 39q-28 0 -43 -14.5t-19 -50.5z" />
    <glyph glyph-name="uni1EC6" unicode="&#x1ec6;" horiz-adv-x="795" 
d="M539 -342h-184v178h184v-178zM299 1909h-115l158 307h213l152 -307h-109l-152 299zM745 0h-600v1720h600v-121h-446v-653h319v-115h-319v-708h446v-123z" />
    <glyph glyph-name="uni1EC7" unicode="&#x1ec7;" horiz-adv-x="829" 
d="M274 1389h-112l155 307h213l152 -307h-109l-149 299zM258 702h332v47q1 33 0.5 66.5t-1.5 66t-5 63t-10.5 57.5t-17.5 49.5t-26 38.5t-37 25t-49 9q-99 0 -146 -68q-18 -24 -29 -91q-8 -60 -10 -112q-1 -32 -1 -151zM106 553v166q0 238 63 362q44 82 108.5 113.5
t158.5 30.5q162 0 232 -114q71 -115 71 -359q0 -61 -2 -123h-481v-185q0 -228 49 -306q24 -37 53 -50.5t78 -13.5q68 0 113 67q45 68 47 226h139q-12 -139 -48 -228q-66 -166 -249 -166q-127 0 -198 50q-71 52 -103.5 178.5t-30.5 351.5zM508 -342h-184v178h184v-178z" />
    <glyph glyph-name="uni1EC8" unicode="&#x1ec8;" horiz-adv-x="444" 
d="M145 0h152v1720h-152v-1720zM166 1909v26q0 35 60 88q60 52 64 81q4 31 -9 46q-13 14 -51 20q-70 0 -90 -43q-9 10 -27.5 26.5t-32.5 27.5l-14 11q2 3 5.5 9t17 20t29.5 25.5t42 20.5t55 10q54 0 88 -15q30 -13 49 -30t35 -52q14 -36 10 -86t-63 -100q-57 -46 -60 -60
v-25h-108z" />
    <glyph glyph-name="uni1EC9" unicode="&#x1ec9;" horiz-adv-x="406" 
d="M140 1386v26q0 36 60 88t64 81q4 31 -9 46q-13 14 -51 20q-70 0 -90 -43q-9 10 -27.5 26.5t-32.5 27.5l-14 11q2 3 5.5 9t17 20t29.5 25.5t42 20.5t55 10q54 0 88 -15q30 -13 49 -30t35 -52q14 -36 10 -86t-63 -100q-57 -47 -60 -60v-25h-108zM131 0h152v1198h-152v-1198
z" />
    <glyph glyph-name="uni1ECA" unicode="&#x1eca;" horiz-adv-x="444" 
d="M297 0h-152v1720h152v-1720zM416 -342h-184v178h184v-178z" />
    <glyph glyph-name="uni1ECB" unicode="&#x1ecb;" horiz-adv-x="406" 
d="M283 1473h-152v178h152v-178zM283 0h-152v1198h152v-1198zM301 -342h-184v178h184v-178z" />
    <glyph glyph-name="uni1ECC" unicode="&#x1ecc;" 
d="M115 500v721q0 188 58 308q102 216 380 216q196 0 299 -101q139 -134 139 -423v-721q0 -527 -438 -527t-438 527zM840 465v788q0 369 -287 369t-287 -369v-788q0 -371 287 -371t287 371zM648 -342h-184v178h184v-178z" />
    <glyph glyph-name="uni1ECD" unicode="&#x1ecd;" horiz-adv-x="846" 
d="M106 467v100v64q0 94 1 122q0 2 7 115q4 70 16 115q10 37 34 94q24 53 58 81q81 67 200 67q66 0 118 -20q53 -19 85.5 -47.5t55.5 -80.5q25 -54 35 -94q12 -45 16 -115l6 -115q1 -28 1 -122v-64v-100q0 -35 -3 -96q-3 -54 -8 -93q-4 -29 -17 -82q-10 -47 -26 -76
q-17 -28 -39 -59q-33 -43 -87.5 -63.5t-135.5 -24.5q-88 0 -168 39q-44 24 -95 108q-16 29 -26 76q-13 62 -16 82q-4 33 -9 93q-3 61 -3 96zM256 631v-64q0 -281 33 -387t134 -106t134 106t33 387v64q0 72 -2 158q-5 156 -26 222q-18 59 -51 86t-88 27t-87.5 -27t-52.5 -86
q-11 -39 -17 -97q-10 -100 -10 -283zM523 -342h-184v178h184v-178z" />
    <glyph glyph-name="uni1ECE" unicode="&#x1ece;" 
d="M115 500q0 -527 438 -527t438 527v721q0 289 -139 423q-103 101 -299 101q-278 0 -380 -216q-58 -120 -58 -308v-721zM840 465q0 -371 -287 -371t-287 371v788q0 369 287 369t287 -369v-788zM520 1912v26q0 35 60 88q60 52 64 81q4 31 -9 46q-13 14 -51 20q-70 0 -90 -43
q-9 10 -27.5 26.5t-32.5 27.5l-14 11q2 3 5.5 9t17 20t29.5 25.5t42 20.5t55 10q54 0 88 -15q30 -13 49 -30t35 -52q14 -36 10 -86t-63 -100q-57 -47 -60 -60v-25h-108z" />
    <glyph glyph-name="uni1ECF" unicode="&#x1ecf;" horiz-adv-x="846" 
d="M106 567v-100q0 -35 3 -96q5 -60 9 -93q3 -20 16 -82q10 -47 26 -76q51 -84 95 -108q80 -39 168 -39q81 4 135.5 24.5t87.5 63.5q22 31 39 59q16 29 26 76q13 53 17 82q5 39 8 93q3 61 3 96v100v64q0 94 -1 122l-6 115q-4 70 -16 115q-10 40 -35 94q-23 52 -55.5 80.5
t-85.5 47.5q-52 20 -118 20q-119 0 -200 -67q-34 -28 -58 -81q-24 -57 -34 -94q-12 -45 -16 -115q-7 -113 -7 -115q-1 -28 -1 -122v-64zM256 631q0 183 10 283q6 58 17 97q20 59 52.5 86t87.5 27t88 -27t51 -86q21 -66 26 -222q2 -86 2 -158v-64q0 -281 -33 -387t-134 -106
t-134 106t-33 387v64zM386 1388v26q0 36 60 88t64 81q4 31 -9 46q-13 14 -51 20q-70 0 -90 -43q-9 10 -27.5 26.5t-32.5 27.5l-14 11q2 3 5.5 9t17 20t29.5 25.5t42 20.5t55 10q54 0 88 -15q30 -13 49 -30t35 -52q14 -36 10 -86t-63 -100q-57 -47 -60 -60v-25h-108z" />
    <glyph glyph-name="uni1ED0" unicode="&#x1ed0;" 
d="M406 1909h-113l156 307h213l151 -307h-108l-150 299zM115 500v721q0 188 58 308q102 216 380 216q196 0 299 -101q139 -134 139 -423v-721q0 -527 -438 -527t-438 527zM840 465v788q0 369 -287 369t-287 -369v-788q0 -371 287 -371t287 371zM827 2156h-56l123 399h162z
" />
    <glyph glyph-name="uni1ED1" unicode="&#x1ed1;" horiz-adv-x="846" 
d="M274 1389h-112l155 307h213l154 -307h-111l-149 299zM106 467v100v64q0 94 1 122q0 2 7 115q4 70 16 115q10 37 34 94q24 53 58 81q81 67 200 67q66 0 118 -20q53 -19 85.5 -47.5t55.5 -80.5q25 -54 35 -94q12 -45 16 -115l6 -115q1 -28 1 -122v-64v-100q0 -35 -3 -96
q-3 -54 -8 -93q-4 -29 -17 -82q-10 -47 -26 -76q-17 -28 -39 -59q-33 -43 -87.5 -63.5t-135.5 -24.5q-88 0 -168 39q-44 24 -95 108q-16 29 -26 76q-13 62 -16 82q-4 33 -9 93q-3 61 -3 96zM256 631v-64q0 -281 33 -387t134 -106t134 106t33 387v64q0 72 -2 158
q-5 156 -26 222q-18 59 -51 86t-88 27t-87.5 -27t-52.5 -86q-11 -39 -17 -97q-10 -100 -10 -283zM705 1640h-56l123 399h162z" />
    <glyph glyph-name="uni1ED2" unicode="&#x1ed2;" 
d="M406 1909h-113l156 307h213l151 -307h-108l-150 299zM115 500v721q0 188 58 308q102 216 380 216q196 0 299 -101q139 -134 139 -423v-721q0 -527 -438 -527t-438 527zM840 465v788q0 369 -287 369t-287 -369v-788q0 -371 287 -371t287 371zM874 2156h-57l-230 397h164z
" />
    <glyph glyph-name="uni1ED3" unicode="&#x1ed3;" horiz-adv-x="846" 
d="M274 1389h-112l155 307h213l154 -307h-111l-149 299zM106 467v100v64q0 94 1 122q0 2 7 115q4 70 16 115q10 37 34 94q24 53 58 81q81 67 200 67q66 0 118 -20q53 -19 85.5 -47.5t55.5 -80.5q25 -54 35 -94q12 -45 16 -115l6 -115q1 -28 1 -122v-64v-100q0 -35 -3 -96
q-3 -54 -8 -93q-4 -29 -17 -82q-10 -47 -26 -76q-17 -28 -39 -59q-33 -43 -87.5 -63.5t-135.5 -24.5q-88 0 -168 39q-44 24 -95 108q-16 29 -26 76q-13 62 -16 82q-4 33 -9 93q-3 61 -3 96zM256 631v-64q0 -281 33 -387t134 -106t134 106t33 387v64q0 72 -2 158
q-5 156 -26 222q-18 59 -51 86t-88 27t-87.5 -27t-52.5 -86q-11 -39 -17 -97q-10 -100 -10 -283zM756 1638h-57l-230 397h164z" />
    <glyph glyph-name="uni1ED4" unicode="&#x1ed4;" 
d="M293 1909h113l149 299l150 -299h108l-151 307h-213zM115 500q0 -527 438 -527t438 527v721q0 289 -139 423q-103 101 -299 101q-278 0 -380 -216q-58 -120 -58 -308v-721zM840 465q0 -371 -287 -371t-287 371v788q0 369 287 369t287 -369v-788zM773 2158v26q0 36 60 88
t64 81q4 31 -9 46q-13 14 -51 20q-70 0 -90 -43q-9 10 -27.5 26.5t-32.5 27.5l-14 11q2 3 5.5 9t17 20t29.5 25.5t42 20.5t55 10q54 0 88 -15q30 -13 49 -30t35 -52q14 -36 10 -86t-63 -100q-57 -47 -60 -60v-25h-108z" />
    <glyph glyph-name="uni1ED5" unicode="&#x1ed5;" horiz-adv-x="846" 
d="M162 1389h112l150 299l149 -299h111l-154 307h-213zM106 567v-100q0 -35 3 -96q5 -60 9 -93q3 -20 16 -82q10 -47 26 -76q51 -84 95 -108q80 -39 168 -39q81 4 135.5 24.5t87.5 63.5q22 31 39 59q16 29 26 76q13 53 17 82q5 39 8 93q3 61 3 96v100v64q0 94 -1 122l-6 115
q-4 70 -16 115q-10 40 -35 94q-23 52 -55.5 80.5t-85.5 47.5q-52 20 -118 20q-119 0 -200 -67q-34 -28 -58 -81q-24 -57 -34 -94q-12 -45 -16 -115q-7 -113 -7 -115q-1 -28 -1 -122v-64zM256 631q0 183 10 283q6 58 17 97q20 59 52.5 86t87.5 27t88 -27t51 -86
q21 -66 26 -222q2 -86 2 -158v-64q0 -281 -33 -387t-134 -106t-134 106t-33 387v64zM641 1639v26q0 35 60 88q60 52 64 81q4 31 -9 46q-13 14 -51 20q-70 0 -90 -43q-9 10 -27.5 26.5t-32.5 27.5l-14 11q2 3 5.5 9t17 20t29.5 25.5t42 20.5t55 10q54 0 88 -15q30 -13 49 -30
t35 -52q14 -36 10 -86t-63 -100q-57 -46 -60 -60v-25h-108z" />
    <glyph glyph-name="uni1ED6" unicode="&#x1ed6;" 
d="M406 1909h-113l156 307h213l151 -307h-108l-150 299zM115 500v721q0 188 58 308q102 216 380 216q196 0 299 -101q139 -134 139 -423v-721q0 -527 -438 -527t-438 527zM840 465v788q0 369 -287 369t-287 -369v-788q0 -371 287 -371t287 371zM451 2267l-115 -1l14 44
q16 48 34 71q42 55 139 50q27 0 95 -38t89 -38q31 0 46.5 15t21.5 53h114v-14q-1 -12 -11 -40q-14 -38 -57 -79q-37 -35 -115 -35q-37 0 -104 38q-64 39 -89 39q-28 0 -43 -14.5t-19 -50.5z" />
    <glyph glyph-name="uni1ED7" unicode="&#x1ed7;" horiz-adv-x="846" 
d="M274 1389h-112l155 307h213l154 -307h-111l-149 299zM106 467v100v64q0 94 1 122q0 2 7 115q4 70 16 115q10 37 34 94q24 53 58 81q81 67 200 67q66 0 118 -20q53 -19 85.5 -47.5t55.5 -80.5q25 -54 35 -94q12 -45 16 -115l6 -115q1 -28 1 -122v-64v-100q0 -35 -3 -96
q-3 -54 -8 -93q-4 -29 -17 -82q-10 -47 -26 -76q-17 -28 -39 -59q-33 -43 -87.5 -63.5t-135.5 -24.5q-88 0 -168 39q-44 24 -95 108q-16 29 -26 76q-13 62 -16 82q-4 33 -9 93q-3 61 -3 96zM256 631v-64q0 -281 33 -387t134 -106t134 106t33 387v64q0 72 -2 158
q-5 156 -26 222q-18 59 -51 86t-88 27t-87.5 -27t-52.5 -86q-11 -39 -17 -97q-10 -100 -10 -283zM318 1751l-115 -1l14 44q16 48 34 71q42 55 139 50q27 0 95 -38t89 -38q31 0 46.5 15t21.5 53h114v-14q-1 -12 -11 -40q-14 -38 -57 -79q-37 -35 -115 -35q-37 0 -104 38
q-64 39 -89 39q-28 0 -43 -14.5t-19 -50.5z" />
    <glyph glyph-name="uni1ED8" unicode="&#x1ed8;" 
d="M640 -342h-184v178h184v-178zM406 1909h-113l156 307h213l151 -307h-108l-150 299zM115 500v721q0 188 58 308q102 216 380 216q196 0 299 -101q139 -134 139 -423v-721q0 -527 -438 -527t-438 527zM840 465v788q0 369 -287 369t-287 -369v-788q0 -371 287 -371t287 371z
" />
    <glyph glyph-name="uni1ED9" unicode="&#x1ed9;" horiz-adv-x="846" 
d="M510 -342h-184v178h184v-178zM274 1389h-112l155 307h213l154 -307h-111l-149 299zM106 467v100v64q0 94 1 122q0 2 7 115q4 70 16 115q10 37 34 94q24 53 58 81q81 67 200 67q66 0 118 -20q53 -19 85.5 -47.5t55.5 -80.5q25 -54 35 -94q12 -45 16 -115l6 -115
q1 -28 1 -122v-64v-100q0 -35 -3 -96q-3 -54 -8 -93q-4 -29 -17 -82q-10 -47 -26 -76q-17 -28 -39 -59q-33 -43 -87.5 -63.5t-135.5 -24.5q-88 0 -168 39q-44 24 -95 108q-16 29 -26 76q-13 62 -16 82q-4 33 -9 93q-3 61 -3 96zM256 631v-64q0 -281 33 -387t134 -106
t134 106t33 387v64q0 72 -2 158q-5 156 -26 222q-18 59 -51 86t-88 27t-87.5 -27t-52.5 -86q-11 -39 -17 -97q-10 -100 -10 -283z" />
    <glyph glyph-name="uni1EDA" unicode="&#x1eda;" 
d="M115 500v721q0 289 139 423q103 101 299 101q97 0 174 -27q73 -24 125 -73q4 -4 11.5 -13t8.5 -10q58 57 58 184q0 14 -4 25h149q-1 -78 -49 -152q-40 -67 -123 -96q19 -28 31 -53q32 -68 45 -144q12 -75 12 -165v-721q0 -527 -438 -527t-438 527zM840 465v788
q0 369 -287 369t-287 -369v-788q0 -371 287 -371t287 371zM577 1911h-56l123 399h162z" />
    <glyph glyph-name="uni1EDB" unicode="&#x1edb;" horiz-adv-x="846" 
d="M424 1389h-56l123 399h162zM106 567v64q0 94 1 122q0 2 7 115q4 70 16 115q10 37 34 94q23 51 56 79.5t86 48.5q51 20 116 20q66 0 119 -21q50 -18 84 -47q19 -14 32 -39q39 58 39 166q0 14 -4 23h152q-1 -77 -49 -152q-38 -59 -109 -90q17 -39 29 -82q13 -42 17 -115
q7 -112 7 -116v-121v-64v-100q0 -35 -3 -96q-3 -54 -8 -93q-4 -29 -17 -82q-10 -47 -26 -76q-48 -83 -94 -108q-80 -39 -168 -39q-82 4 -135.5 24t-88.5 64l-39 59q-16 29 -26 76q-13 62 -16 82q-4 33 -9 93q-3 61 -3 96v100zM256 631v-64q0 -281 33 -387t134 -106t134 106
t33 387v64q0 185 -11 283q-6 58 -17 97q-18 59 -51 86t-88 27t-87.5 -27t-52.5 -86q-19 -62 -25 -222q-2 -86 -2 -158z" />
    <glyph glyph-name="uni1EDC" unicode="&#x1edc;" 
d="M115 500v721q0 289 139 423q103 101 299 101q97 0 174 -27q73 -24 125 -73q4 -4 11.5 -13t8.5 -10q58 57 58 184q0 14 -4 25h149q-1 -78 -49 -152q-40 -67 -123 -96q19 -28 31 -53q32 -68 45 -144q12 -75 12 -165v-721q0 -527 -438 -527t-438 527zM840 465v788
q0 369 -287 369t-287 -369v-788q0 -371 287 -371t287 371zM684 1909h-57l-230 397h164z" />
    <glyph glyph-name="uni1EDD" unicode="&#x1edd;" horiz-adv-x="846" 
d="M545 1389h-57l-230 397h164zM106 567v64q0 94 1 122q0 2 7 115q4 70 16 115q10 37 34 94q23 51 56 79.5t86 48.5q51 20 116 20q66 0 119 -21q50 -18 84 -47q19 -14 32 -39q39 58 39 166q0 14 -4 23h152q-1 -77 -49 -152q-38 -59 -109 -90q17 -39 29 -82q13 -42 17 -115
q7 -112 7 -116v-121v-64v-100q0 -35 -3 -96q-3 -54 -8 -93q-4 -29 -17 -82q-10 -47 -26 -76q-48 -83 -94 -108q-80 -39 -168 -39q-82 4 -135.5 24t-88.5 64l-39 59q-16 29 -26 76q-13 62 -16 82q-4 33 -9 93q-3 61 -3 96v100zM256 631v-64q0 -281 33 -387t134 -106t134 106
t33 387v64q0 185 -11 283q-6 58 -17 97q-18 59 -51 86t-88 27t-87.5 -27t-52.5 -86q-19 -62 -25 -222q-2 -86 -2 -158z" />
    <glyph glyph-name="uni1EDE" unicode="&#x1ede;" 
d="M115 500v721q0 289 139 423q103 101 299 101q97 0 174 -27q73 -24 125 -73q4 -4 11.5 -13t8.5 -10q58 57 58 184q0 14 -4 25h149q-1 -78 -49 -152q-40 -67 -123 -96q19 -28 31 -53q32 -68 45 -144q12 -75 12 -165v-721q0 -527 -438 -527t-438 527zM840 465v788
q0 369 -287 369t-287 -369v-788q0 -371 287 -371t287 371zM505 1908v26q0 36 60 88t64 81q4 31 -9 46q-13 14 -51 20q-70 0 -90 -43q-9 10 -27.5 26.5t-32.5 27.5l-14 11q2 3 5.5 9t17 20t29.5 25.5t42 20.5t55 10q54 0 88 -15q30 -13 49 -30t35 -52q14 -36 10 -86t-63 -100
q-57 -47 -60 -60v-25h-108z" />
    <glyph glyph-name="uni1EDF" unicode="&#x1edf;" horiz-adv-x="846" 
d="M370 1388v26q0 36 60 88t64 81q4 31 -9 46q-13 14 -51 20q-70 0 -90 -43q-9 10 -27.5 26.5t-32.5 27.5l-14 11q2 3 5.5 9t17 20t29.5 25.5t42 20.5t55 10q54 0 88 -15q30 -13 49 -30t35 -52q14 -36 10 -86t-63 -100q-57 -47 -60 -60v-25h-108zM106 567v64q0 94 1 122
q0 2 7 115q4 70 16 115q10 37 34 94q23 51 56 79.5t86 48.5q51 20 116 20q66 0 119 -21q50 -18 84 -47q19 -14 32 -39q39 58 39 166q0 14 -4 23h152q-1 -77 -49 -152q-38 -59 -109 -90q17 -39 29 -82q13 -42 17 -115q7 -112 7 -116v-121v-64v-100q0 -35 -3 -96
q-3 -54 -8 -93q-4 -29 -17 -82q-10 -47 -26 -76q-48 -83 -94 -108q-80 -39 -168 -39q-82 4 -135.5 24t-88.5 64l-39 59q-16 29 -26 76q-13 62 -16 82q-4 33 -9 93q-3 61 -3 96v100zM256 631v-64q0 -281 33 -387t134 -106t134 106t33 387v64q0 185 -11 283q-6 58 -17 97
q-18 59 -51 86t-88 27t-87.5 -27t-52.5 -86q-19 -62 -25 -222q-2 -86 -2 -158z" />
    <glyph glyph-name="uni1EE0" unicode="&#x1ee0;" 
d="M115 500v721q0 289 139 423q103 101 299 101q97 0 174 -27q73 -24 125 -73q4 -4 11.5 -13t8.5 -10q58 57 58 184q0 14 -4 25h149q-1 -78 -49 -152q-40 -67 -123 -96q19 -28 31 -53q32 -68 45 -144q12 -75 12 -165v-721q0 -527 -438 -527t-438 527zM840 465v788
q0 369 -287 369t-287 -369v-788q0 -371 287 -371t287 371zM391 1924l-115 -1l14 44q16 48 34 71q42 55 139 50q27 0 95 -38t89 -38q31 0 46.5 15t21.5 53h114v-14q-1 -12 -11 -40q-14 -38 -57 -79q-37 -35 -115 -35q-37 0 -104 38q-64 39 -89 39q-28 0 -43 -14.5t-19 -50.5z
" />
    <glyph glyph-name="uni1EE1" unicode="&#x1ee1;" horiz-adv-x="846" 
d="M291 1401l-115 -1l14 44q16 48 34 71q42 55 139 50q27 0 95 -38t89 -38q31 0 46.5 15t21.5 53h114v-14q-1 -12 -11 -40q-14 -38 -57 -79q-37 -35 -115 -35q-37 0 -104 38q-65 39 -89 39q-28 0 -43 -14.5t-19 -50.5zM106 567v64q0 94 1 122q0 2 7 115q4 70 16 115
q10 37 34 94q23 51 56 79.5t86 48.5q51 20 116 20q66 0 119 -21q50 -18 84 -47q19 -14 32 -39q39 58 39 166q0 14 -4 23h152q-1 -77 -49 -152q-38 -59 -109 -90q17 -39 29 -82q13 -42 17 -115q7 -112 7 -116v-121v-64v-100q0 -35 -3 -96q-3 -54 -8 -93q-4 -29 -17 -82
q-10 -47 -26 -76q-48 -83 -94 -108q-80 -39 -168 -39q-82 4 -135.5 24t-88.5 64l-39 59q-16 29 -26 76q-13 62 -16 82q-4 33 -9 93q-3 61 -3 96v100zM256 631v-64q0 -281 33 -387t134 -106t134 106t33 387v64q0 185 -11 283q-6 58 -17 97q-18 59 -51 86t-88 27t-87.5 -27
t-52.5 -86q-19 -62 -25 -222q-2 -86 -2 -158z" />
    <glyph glyph-name="uni1EE2" unicode="&#x1ee2;" 
d="M115 500v721q0 289 139 423q103 101 299 101q97 0 174 -27q73 -24 125 -73q4 -4 11.5 -13t8.5 -10q58 57 58 184q0 14 -4 25h149q-1 -78 -49 -152q-40 -67 -123 -96q19 -28 31 -53q32 -68 45 -144q12 -75 12 -165v-721q0 -527 -438 -527t-438 527zM840 465v788
q0 369 -287 369t-287 -369v-788q0 -371 287 -371t287 371zM454 -342h184v178h-184v-178z" />
    <glyph glyph-name="uni1EE3" unicode="&#x1ee3;" horiz-adv-x="846" 
d="M331 -342h184v178h-184v-178zM106 567v64q0 94 1 122q0 2 7 115q4 70 16 115q10 37 34 94q23 51 56 79.5t86 48.5q51 20 116 20q66 0 119 -21q50 -18 84 -47q19 -14 32 -39q39 58 39 166q0 14 -4 23h152q-1 -77 -49 -152q-38 -59 -109 -90q17 -39 29 -82q13 -42 17 -115
q7 -112 7 -116v-121v-64v-100q0 -35 -3 -96q-3 -54 -8 -93q-4 -29 -17 -82q-10 -47 -26 -76q-48 -83 -94 -108q-80 -39 -168 -39q-82 4 -135.5 24t-88.5 64l-39 59q-16 29 -26 76q-13 62 -16 82q-4 33 -9 93q-3 61 -3 96v100zM256 631v-64q0 -281 33 -387t134 -106t134 106
t33 387v64q0 185 -11 283q-6 58 -17 97q-18 59 -51 86t-88 27t-87.5 -27t-52.5 -86q-19 -62 -25 -222q-2 -86 -2 -158z" />
    <glyph glyph-name="uni1EE4" unicode="&#x1ee4;" horiz-adv-x="1133" 
d="M121 424v1296h151v-1333q0 -150 68.5 -221.5t224.5 -71.5q147 0 213 72.5t66 220.5v1333h149v-1296q0 -451 -428 -451q-205 0 -309 88q-140 119 -135 363zM666 -342h-184v178h184v-178z" />
    <glyph glyph-name="uni1EE5" unicode="&#x1ee5;" horiz-adv-x="893" 
d="M113 256v942h151v-944q0 -85 34 -127.5t93 -42.5q47 0 100 33t99 88v993h149v-1198h-149v113q-46 -68 -113 -104t-141 -36q-88 0 -156 75q-67 74 -67 208zM494 -342h-184v178h184v-178z" />
    <glyph glyph-name="uni1EE6" unicode="&#x1ee6;" horiz-adv-x="1133" 
d="M121 424q-5 -244 135 -363q104 -88 309 -88q428 0 428 451v1296h-149v-1333q0 -148 -66 -220.5t-213 -72.5q-156 0 -224.5 71.5t-68.5 221.5v1333h-151v-1296zM521 1911v26q0 35 60 88q60 52 64 81q4 31 -9 46q-13 14 -51 20q-70 0 -90 -43q-9 10 -27.5 26.5t-32.5 27.5
l-14 11q2 3 5.5 9t17 20t29.5 25.5t42 20.5t55 10q54 0 88 -15q30 -13 49 -30t35 -52q14 -36 10 -86t-63 -100q-57 -46 -60 -60v-25h-108z" />
    <glyph glyph-name="uni1EE7" unicode="&#x1ee7;" horiz-adv-x="893" 
d="M113 256q0 -134 67 -208q68 -75 156 -75q74 0 141 36t113 104v-113h149v1198h-149v-993q-46 -55 -99 -88t-100 -33q-59 0 -93 42.5t-34 127.5v944h-151v-942zM396 1388v26q0 36 60 88t64 81q4 31 -9 46q-13 14 -51 20q-70 0 -90 -43q-9 10 -27.5 26.5t-32.5 27.5l-14 11
q2 3 5.5 9t17 20t29.5 25.5t42 20.5t55 10q54 0 88 -15q30 -13 49 -30t35 -52q14 -36 10 -86t-63 -100q-57 -47 -60 -60v-25h-108z" />
    <glyph glyph-name="uni1EE8" unicode="&#x1ee8;" horiz-adv-x="1133" 
d="M121 424v1296h151v-1333q0 -146 68 -219q66 -74 225 -74q150 0 213 74q66 74 66 219v1333h149v-108q68 53 68 194q0 14 -4 25h151q-1 -78 -49 -153q-46 -72 -139 -99l-27 -6v-1149q0 -451 -428 -451q-294 1 -390 187q-54 99 -54 264zM590 1912h-56l123 399h162z" />
    <glyph glyph-name="uni1EE9" unicode="&#x1ee9;" horiz-adv-x="893" 
d="M453 1388h-56l123 399h162zM113 256v942h151v-944q0 -88 35 -129t92 -41q47 0 101 33q54 34 98 88v993h149v-111q68 56 68 197q0 14 -4 23h151q-1 -76 -49 -151q-45 -72 -139 -101l-27 -6v-1049h-149v113q-46 -70 -115 -105q-68 -35 -139 -35q-88 0 -156 75
q-67 74 -67 208z" />
    <glyph glyph-name="uni1EEA" unicode="&#x1eea;" horiz-adv-x="1133" 
d="M121 424v1296h151v-1333q0 -146 68 -219q66 -74 225 -74q150 0 213 74q66 74 66 219v1333h149v-108q68 53 68 194q0 14 -4 25h151q-1 -78 -49 -153q-46 -72 -139 -99l-27 -6v-1149q0 -451 -428 -451q-294 1 -390 187q-54 99 -54 264zM708 1909h-57l-230 397h164z" />
    <glyph glyph-name="uni1EEB" unicode="&#x1eeb;" horiz-adv-x="893" 
d="M599 1388h-57l-230 397h164zM113 256v942h151v-944q0 -88 35 -129t92 -41q47 0 101 33q54 34 98 88v993h149v-111q68 56 68 197q0 14 -4 23h151q-1 -76 -49 -151q-45 -72 -139 -101l-27 -6v-1049h-149v113q-46 -70 -115 -105q-68 -35 -139 -35q-88 0 -156 75
q-67 74 -67 208z" />
    <glyph glyph-name="uni1EEC" unicode="&#x1eec;" horiz-adv-x="1133" 
d="M121 424v1296h151v-1333q0 -146 68 -219q66 -74 225 -74q150 0 213 74q66 74 66 219v1333h149v-108q68 53 68 194q0 14 -4 25h151q-1 -78 -49 -153q-46 -72 -139 -99l-27 -6v-1149q0 -451 -428 -451q-294 1 -390 187q-54 99 -54 264zM517 1912v26q0 35 60 88q60 52 64 81
q4 31 -9 46q-13 14 -51 20q-70 0 -90 -43q-9 10 -27.5 26.5t-32.5 27.5l-14 11q2 3 5.5 9t17 20t29.5 25.5t42 20.5t55 10q54 0 88 -15q30 -13 49 -30t35 -52q14 -36 10 -86t-63 -100q-57 -47 -60 -60v-25h-108z" />
    <glyph glyph-name="uni1EED" unicode="&#x1eed;" horiz-adv-x="893" 
d="M113 256v942h151v-944q0 -88 35 -129t92 -41q47 0 101 33q54 34 98 88v993h149v-111q68 56 68 197q0 14 -4 23h151q-1 -76 -49 -151q-45 -72 -139 -101l-27 -6v-1049h-149v113q-46 -70 -115 -105q-68 -35 -139 -35q-88 0 -156 75q-67 74 -67 208zM392 1387v26q0 35 60 88
q60 52 64 81q4 31 -9 46q-13 14 -51 20q-70 0 -90 -43q-9 10 -27.5 26.5t-32.5 27.5l-14 11q2 3 5.5 9t17 20t29.5 25.5t42 20.5t55 10q54 0 88 -15q30 -13 49 -30t35 -52q14 -36 10 -86t-63 -100q-57 -46 -60 -60v-25h-108z" />
    <glyph glyph-name="uni1EEE" unicode="&#x1eee;" horiz-adv-x="1133" 
d="M121 424v1296h151v-1333q0 -146 68 -219q66 -74 225 -74q150 0 213 74q66 74 66 219v1333h149v-108q68 53 68 194q0 14 -4 25h151q-1 -78 -49 -153q-46 -72 -139 -99l-27 -6v-1149q0 -451 -428 -451q-294 1 -390 187q-54 99 -54 264zM402 1924l-115 -1l14 44q16 48 34 71
q42 55 139 50q27 0 95 -38t89 -38q31 0 46.5 15t21.5 53h114v-14q-1 -12 -11 -40q-14 -38 -57 -79q-37 -35 -115 -35q-37 0 -104 38q-65 39 -89 39q-28 0 -43 -14.5t-19 -50.5z" />
    <glyph glyph-name="uni1EEF" unicode="&#x1eef;" horiz-adv-x="893" 
d="M113 256v942h151v-944q0 -88 35 -129t92 -41q47 0 101 33q54 34 98 88v993h149v-111q68 56 68 197q0 14 -4 23h151q-1 -76 -49 -151q-45 -72 -139 -101l-27 -6v-1049h-149v113q-46 -70 -115 -105q-68 -35 -139 -35q-88 0 -156 75q-67 74 -67 208zM305 1401l-115 -1l14 44
q16 48 34 71q42 55 139 50q27 0 95 -38t89 -38q31 0 46.5 15t21.5 53h114v-14q-1 -12 -11 -40q-14 -38 -57 -79q-37 -35 -115 -35q-37 0 -104 38q-64 39 -89 39q-28 0 -43 -14.5t-19 -50.5z" />
    <glyph glyph-name="uni1EF0" unicode="&#x1ef0;" horiz-adv-x="1133" 
d="M121 424v1296h151v-1333q0 -146 68 -219q66 -74 225 -74q150 0 213 74q66 74 66 219v1333h149v-108q68 53 68 194q0 14 -4 25h151q-1 -78 -49 -153q-46 -72 -139 -99l-27 -6v-1149q0 -451 -428 -451q-294 1 -390 187q-54 99 -54 264zM471 -342h184v178h-184v-178z" />
    <glyph glyph-name="uni1EF1" unicode="&#x1ef1;" horiz-adv-x="893" 
d="M113 256v942h151v-944q0 -88 35 -129t92 -41q47 0 101 33q54 34 98 88v993h149v-111q68 56 68 197q0 14 -4 23h151q-1 -76 -49 -151q-45 -72 -139 -101l-27 -6v-1049h-149v113q-46 -70 -115 -105q-68 -35 -139 -35q-88 0 -156 75q-67 74 -67 208zM332 -342h184v178h-184
v-178z" />
    <glyph glyph-name="Ygrave" unicode="&#x1ef2;" horiz-adv-x="889" 
d="M471 1909h-55l-230 397h162zM526 0h-151v535l-377 1185h154l58 -203q41 -142 78 -266l77 -259q54 -179 61 -204l25 -79q63 235 147 519q96 326 143 492h150l-365 -1185v-535z" />
    <glyph glyph-name="ygrave" unicode="&#x1ef3;" horiz-adv-x="776" 
d="M424 1389h-57l-230 397h162zM80 -299h-2v123q119 8 174 40t55 91q0 75 -10 141l-260 1102h151l209 -1001l203 1001h154l-301 -1282q-29 -113 -117 -162t-256 -53z" />
    <glyph glyph-name="uni1EF4" unicode="&#x1ef4;" horiz-adv-x="889" 
d="M526 0h-151v535l-377 1185h154l58 -203q41 -142 78 -266l77 -259q54 -179 61 -204l25 -79q63 235 147 519q96 326 143 492h150l-365 -1185v-535zM543 -379h-184v178h184v-178z" />
    <glyph glyph-name="uni1EF5" unicode="&#x1ef5;" horiz-adv-x="776" 
d="M80 -299h-2v123q119 8 174 40t55 91q0 75 -10 141l-260 1102h151l209 -1001l203 1001h154l-301 -1282q-29 -113 -117 -162t-256 -53zM654 -379h-184v178h184v-178z" />
    <glyph glyph-name="uni1EF6" unicode="&#x1ef6;" horiz-adv-x="889" 
d="M375 0h151v535l365 1185h-150q-47 -166 -143 -492q-84 -284 -147 -519l-25 79q-7 25 -61 204l-77 259q-37 124 -78 266l-58 203h-154l377 -1185v-535zM419 1908v26q0 36 60 88t64 81q4 31 -9 46q-13 14 -51 20q-70 0 -90 -43q-9 10 -27.5 26.5t-32.5 27.5l-14 11
q2 3 5.5 9t17 20t29.5 25.5t42 20.5t55 10q54 0 88 -15q30 -13 49 -30t35 -52q14 -36 10 -86t-63 -100q-57 -47 -60 -60v-25h-108z" />
    <glyph glyph-name="uni1EF7" unicode="&#x1ef7;" horiz-adv-x="776" 
d="M78 -299h2q168 4 256 53t117 162l301 1282h-154l-203 -1001l-209 1001h-151l260 -1102q10 -66 10 -141q0 -59 -55 -91t-174 -40v-123zM364 1386v26q0 36 60 88t64 81q4 31 -9 46q-13 14 -51 20q-70 0 -90 -43q-9 10 -27.5 26.5t-32.5 27.5l-14 11q2 3 5.5 9t17 20
t29.5 25.5t42 20.5t55 10q54 0 88 -15q30 -13 49 -30t35 -52q14 -36 10 -86t-63 -100q-57 -47 -60 -60v-25h-108z" />
    <glyph glyph-name="Ytilde" unicode="&#x1ef8;" horiz-adv-x="889" 
d="M526 0h-151v535l-377 1185h154l58 -203q41 -142 78 -266l77 -259q54 -179 61 -204l25 -79q63 235 147 519q96 326 143 492h150l-365 -1185v-535zM330 1922l-115 -1l14 44q16 48 34 71q42 55 139 50q27 0 95 -38t89 -38q31 0 46.5 15t21.5 53h114v-14q-1 -12 -11 -40
q-14 -38 -57 -79q-37 -35 -115 -35q-37 0 -104 38q-65 39 -89 39q-28 0 -43 -14.5t-19 -50.5z" />
    <glyph glyph-name="ytilde" unicode="&#x1ef9;" horiz-adv-x="776" 
d="M80 -299h-2v123q119 8 174 40t55 91q0 75 -10 141l-260 1102h151l209 -1001l203 1001h154l-301 -1282q-29 -113 -117 -162t-256 -53zM257 1401l-115 -1l14 44q16 48 34 71q42 55 139 50q27 0 95 -38t89 -38q31 0 46.5 15t21.5 53h114v-14q-1 -12 -11 -40q-14 -38 -57 -79
q-37 -35 -115 -35q-37 0 -104 38q-64 39 -89 39q-28 0 -43 -14.5t-19 -50.5z" />
    <glyph glyph-name="endash" unicode="&#x2013;" horiz-adv-x="793" 
d="M690 449h-573v114h573v-114z" />
    <glyph glyph-name="emdash" unicode="&#x2014;" horiz-adv-x="1194" 
d="M1092 449h-975v114h975v-114z" />
    <glyph glyph-name="quoteleft" unicode="&#x2018;" horiz-adv-x="403" 
d="M297 1491v-180h-186q0 245 25 333q25 91 112 103l26 -55q-33 -12 -57 -39.5t-34 -62.5q-15 -56 -15 -99h129z" />
    <glyph glyph-name="quoteright" unicode="&#x2019;" horiz-adv-x="393" 
d="M150 1286l-27 55q35 11 58.5 38t31.5 63q14 60 14 100h-127v178h185q0 -243 -25 -333q-24 -90 -110 -101z" />
    <glyph glyph-name="quotesinglbase" unicode="&#x201a;" horiz-adv-x="403" 
d="M242 -322h-70l-49 308h168q-39 -244 -49 -308z" />
    <glyph glyph-name="quotedblleft" unicode="&#x201c;" horiz-adv-x="698" 
d="M590 1491v-180h-184q0 243 24 333q25 91 111 103l26 -55q-71 -26 -90 -102q-14 -57 -14 -99h127zM297 1491v-180h-186q0 245 25 333q25 91 112 103l26 -55q-33 -12 -57 -39.5t-34 -62.5q-15 -56 -15 -99h129z" />
    <glyph glyph-name="quotedblright" unicode="&#x201d;" horiz-adv-x="686" 
d="M442 1286l-26 55q71 23 91 101q15 59 15 100h-129v178h187q0 -240 -26 -333q-25 -90 -112 -101zM150 1286l-27 55q35 11 58.5 38t31.5 63q14 60 14 100h-127v178h185q0 -243 -25 -333q-24 -90 -110 -101z" />
    <glyph glyph-name="quotedblbase" unicode="&#x201e;" horiz-adv-x="725" 
d="M563 -319h-65l-52 307h168q-43 -264 -51 -307zM242 -319h-68l-51 307h168z" />
    <glyph glyph-name="dagger" unicode="&#x2020;" horiz-adv-x="590" 
d="M362 0h-118v1034h-226v82h226v342h118v-342h224v-82h-224v-1034z" />
    <glyph glyph-name="daggerdbl" unicode="&#x2021;" horiz-adv-x="590" 
d="M362 0h-118v449h-226v88h226v577h-226v82h226v262h118v-262h224v-82h-224v-577h224v-88h-224v-449z" />
    <glyph glyph-name="bullet" unicode="&#x2022;" horiz-adv-x="565" 
d="M104 768q0 80 50 130q52 50 133 50q85 0 133.5 -47.5t48.5 -132.5t-48.5 -132.5t-133.5 -47.5t-134 47.5t-49 132.5z" />
    <glyph glyph-name="guilsinglleft" unicode="&#x2039;" horiz-adv-x="561" 
d="M467 324v-199l-389 450v130l389 450v-199l-277 -315z" />
    <glyph glyph-name="guilsinglright" unicode="&#x203a;" horiz-adv-x="561" 
d="M467 575l-389 -450v199l276 317l-276 315v199l389 -450v-130z" />
    <glyph glyph-name="fraction" unicode="&#x2044;" horiz-adv-x="651" 
d="M115 0h-144l551 1720h146z" />
    <glyph glyph-name="uni2074" unicode="&#x2074;" horiz-adv-x="737" 
d="M414 1606l-230 -637h230v637zM414 866h-375v95l301 761h211v-753h133v-103h-133v-276h-137v276z" />
    <glyph glyph-name="Euro" unicode="&#x20ac;" horiz-adv-x="1096" 
d="M164 500v194h-123v90h123v131h-123v91h123v215q0 524 436 524q404 0 404 -524v-70h-146v102q0 169 -53 263q-58 106 -205 106q-167 0 -228 -106q-57 -98 -57 -263v-247h269v-91h-269v-131h269v-90h-269v-229q0 -165 57 -263q64 -108 228 -108q144 0 205 108q53 94 53 263
v119h146v-84q0 -184 -51 -311q-38 -102 -126.5 -158t-226.5 -58q-195 0 -302 102q-47 46 -79 114q-55 123 -55 311z" />
    <glyph glyph-name="trademark" unicode="&#x2122;" horiz-adv-x="1399" 
d="M733 686h-88v756h164l147 -541l164 541h150v-756h-88v723l-201 -723h-47l-201 715v-715zM319 686h-100v678h-162v78h426v-78h-164v-678z" />
    <glyph glyph-name="product" unicode="&#x220f;" horiz-adv-x="1188" 
d="M336 0h-184v1714h888v-1714h-184v1599h-520v-1599z" />
    <glyph glyph-name="minus" unicode="&#x2212;" horiz-adv-x="702" 
d="M610 461h-504v114h504v-114z" />
    <glyph glyph-name="integral" unicode="&#x222b;" horiz-adv-x="500" 
d="M-41 -381v109q24 -7 74 -7q61 0 91 34q11 13 17 36t6 80v8v1235h-137v84h137v168q0 79 19 147q12 42 33 71q54 69 166 69q69 0 122 -15v-108q-24 6 -73 6q-60 0 -92 -32q-11 -11 -17 -36q-6 -24 -6 -82v-8v-180h219v-84h-219v-1225q0 -41 -3 -71q-3 -32 -16 -74
q-34 -131 -198 -137q-70 0 -123 12z" />
    <glyph glyph-name="f_f" unicode="&#xfb00;" horiz-adv-x="1028" 
d="M328 0h-152v1114h-166v84h166v129v19v49q0 24 4 56q5 37 12 59q28 73 61 100q56 43 140 43q71 0 123 -15v-108q-24 6 -74 6q-61 0 -91 -32q-11 -11 -17 -36q-6 -24 -6 -82v-8v-180h346v129v19v49q0 24 4 56q5 42 11 59q7 26 24.5 55t37.5 45q56 43 140 43q71 0 123 -15
v-108q-26 6 -76 6q-59 0 -89 -32q-11 -10 -18 -36q-8 -32 -8 -82v-8v-180h193v-84h-193v-1114h-149v1114h-346v-1114z" />
    <glyph glyph-name="fi" unicode="&#xfb01;" horiz-adv-x="942" 
d="M819 1473h-149v178h149v-178zM328 0h-152v1114h-166v84h166v129v19v49q0 24 4 56q5 37 12 59q28 73 61 100q56 43 140 43q71 0 123 -15v-108q-24 6 -74 6q-61 0 -91 -32q-11 -11 -17 -36q-6 -24 -6 -82v-8v-180h491v-1198h-149v1114h-342v-1114z" />
    <glyph glyph-name="fl" unicode="&#xfb02;" horiz-adv-x="983" 
d="M328 0h-152v1114h-166v84h166v168q0 177 92 234q83 53 258 53q89 0 164 -13q79 -12 113 -24l35 -12v-1604h-152v1532q-123 10 -172 10q-104 0 -145 -33q-41 -32 -41 -131v-180h190v-84h-190v-1114z" />
    <glyph glyph-name="f_f_i" unicode="&#xfb03;" horiz-adv-x="1440" 
d="M1317 1473h-152v178h152v-178zM328 0h-152v1114h-166v84h166v129v19v49q0 24 4 56q5 37 12 59q28 73 61 100q56 43 140 43q71 0 123 -15v-108q-24 6 -74 6q-61 0 -91 -32q-11 -11 -17 -36q-6 -24 -6 -82v-8v-180h346v129v19v49q0 24 4 56q5 42 11 59q7 26 24.5 55
t37.5 45q56 43 140 43q71 0 123 -15v-108q-26 6 -76 6q-59 0 -89 -32q-11 -10 -18 -36q-8 -32 -8 -82v-8v-180h494v-1198h-152v1114h-342v-1114h-149v1114h-346v-1114z" />
    <glyph glyph-name="f_f_l" unicode="&#xfb04;" horiz-adv-x="1481" 
d="M328 0h-152v1114h-166v84h166v129v19v49q0 24 4 56q5 37 12 59q28 73 61 100q56 43 140 43q71 0 123 -15v-108q-24 6 -74 6q-61 0 -91 -32q-11 -11 -17 -36q-6 -24 -6 -82v-8v-180h346v168q0 177 92 234q83 53 258 53q89 0 163 -13q77 -12 111 -24l35 -12v-1604h-149
v1532q-123 10 -172 10q-105 0 -147 -33q-42 -31 -42 -131v-180h250v-84h-250v-1114h-149v1114h-346v-1114z" />
    <glyph glyph-name="_415" horiz-adv-x="1362" 
d="M680 604l-459 -328l168 543l-459 338l572 10l178 543l188 -543h572l-461 -348l170 -543z" />
    <glyph glyph-name="_416" horiz-adv-x="1081" 
d="M178 283v831h-162v84h162v424h152v-424h338v424h149v-424h193v-84h-193v-823q0 -82 7 -121q7 -40 29 -56.5t67 -19.5q46 0 88 8v-102q-68 -18 -131 -18q-109 0 -158 61q-21 27 -33 70q-18 64 -18 170v831h-338v-823q0 -82 7 -121q7 -41 27 -57t66 -19q46 0 88 8v-102
q-64 -18 -129 -18q-108 0 -157 61q-22 28 -35 70q-13 41 -16 79t-3 91z" />
    </font>
</defs>
</svg>
